<?xml version="1.0" encoding="UTF-8" standalone="no"?>
<svg id="svg3727" xmlns:rdf="http://www.w3.org/1999/02/22-rdf-syntax-ns#" xmlns="http://www.w3.org/2000/svg" height="22" width="22" version="1.0" xmlns:cc="http://creativecommons.org/ns#" xmlns:dc="http://purl.org/dc/elements/1.1/">
	<defs id="defs3615">
		<style id="current-color-scheme" type="text/css">.ColorScheme-Text { color:#0000FF; }</style>
	</defs>
	<metadata id="metadata7">
		<rdf:RDF>
			<cc:Work rdf:about="">
				<dc:format>image/svg+xml</dc:format>
				<dc:type rdf:resource="http://purl.org/dc/dcmitype/StillImage"/>
				<dc:title/>
				<dc:creator>
					<cc:Agent>
						<dc:title>obnosim</dc:title>
					</cc:Agent>
				</dc:creator>
				<cc:license rdf:resource="http://creativecommons.org/licenses/by-sa/3.0/"/>
			</cc:Work>
			<cc:License rdf:about="http://creativecommons.org/licenses/by-sa/3.0/">
				<cc:permits rdf:resource="http://creativecommons.org/ns#Reproduction"/>
				<cc:permits rdf:resource="http://creativecommons.org/ns#Distribution"/>
				<cc:requires rdf:resource="http://creativecommons.org/ns#Notice"/>
				<cc:requires rdf:resource="http://creativecommons.org/ns#Attribution"/>
				<cc:permits rdf:resource="http://creativecommons.org/ns#DerivativeWorks"/>
				<cc:requires rdf:resource="http://creativecommons.org/ns#ShareAlike"/>
			</cc:License>
		</rdf:RDF>
	</metadata>
	<g id="22-22-kmail" transform="translate(-29,3)">
		<rect style="fill:none" height="22" width="22" y="-3" x="1"/>
		<path style="opacity:.875;fill:currentColor" d="m2 1c-.554 0-1 .446-1 1v12c0 .554.446 1 1 1h20c.554 0 1-.446 1-1v-12c0-.554-.446-1-1-1zm19.031 1.4062c.56304-.095149.82002.67579.3125.9375l-4.656 4.6563 4.6562 4.6562c.72211.44168-.24582 1.4096-.6875.6875l-4.656-4.6565-3.656 3.6565-.344.375-.344-.375-3.6558-3.6568-4.6562 4.6568c-.4417.722-1.4096-.246-.6875-.688l4.6562-4.6558-4.6563-4.6562c-.2819-.2806-.1393-.7621 0.25-.8438.1627-.0230.3262.0354.4376.1562l8.6562 8.6563 8.6572-8.6562c.07823-.13813.21740-.23092.375-.25z" class="ColorScheme-Text"/>
	</g>
	<g id="kmail" transform="matrix(1.3333,0,0,1.3333,-38,-28.667)">
		<rect style="fill:none" height="24" width="24" y="-4" x="0"/>
		<path style="opacity:.875;fill-rule:evenodd;fill:currentColor" d="m2-27c-.554 0-1 .446-1 1v16c0 .554.446 1 1 1h28c.554 0 1-.446 1-1v-16c0-.554-.446-1-1-1zm.99414 1.4941c.13548-.000002.26517.05497.35938.15234l12.647 12.645 12.647-12.645c.47043-.53137 1.2384.23660.70703.70703l-6.646 6.647 6.6445 6.6465c.53137.47043-.23660 1.2384-.70703.70703l-6.647-6.644-6 6-6-6-6.6465 6.6445c-.47161.51130-1.2191-.23676-.7075-.708l6.6445-6.646-6.6445-6.646c-.32294-.31254-.10175-.85930.34766-.85938z" transform="matrix(.75 0 0 .75 0 21.5)" class="ColorScheme-Text"/>
	</g>
	<g id="22-22-mail-unread-new" transform="translate(-29,3)">
		<rect style="fill:none" height="22" width="22" y="-3" x="29"/>
		<path style="opacity:.875;fill:currentColor" d="m40-2.75c-1.3608 0-2.7772.61425-4.5 1.75h9c-1.723-1.1358-3.139-1.75-4.5-1.75zm-9 2.75v2.4062 2.5938.3125l1.0312 1c.076-.1796.261-.3125.469-.3125h15c.20775 0 .39305.13292.46875.3125l1.031-1v-.3125-2.5938-2.4062h-3.062-11.876-3.062zm1.5 2h5c.277 0 .5.223.5.5s-.223.5-.5.5h-5c-.277 0-.5-.223-.5-.5s.223-.5.5-.5zm-2.5 1.1875c-.353.2878-.622.5034-1 .8125v13c0 .554.446 1 1 1h20c.554 0 1-.446 1-1v-13c-.378-.3091-.647-.5247-1-.8125v2.3125c-.005.1306-.061.2540-.156.3438l-5.156 5.1562 4.6562 4.6562c.72211.44168-.24582 1.4096-.6875.6875l-5.343-5.344h-6.625l-5.344 5.344c-.442.722-1.41-.246-.688-.688l4.656-4.656-5.156-5.1562c-.095-.0898-.151-.2132-.156-.3438v-2.3125zm5.438.8125h12.124c.247 0 .438.1911.438.4375v.125c0 .2464-.191.4375-.438.4375h-12.124c-.247 0-.438-.1911-.438-.4375v-.125c0-.2464.191-.4375.438-.4375zm-2.75 3 1 1h12.625l1-1zm2 2 1 1h8.625l1-1z" class="ColorScheme-Text"/>
	</g>
	<g id="mail-unread-new" transform="matrix(1.3333,0,0,1.3333,0,-28.667)">
		<rect style="fill:none" height="24.001" width="24.001" y="-3.9999" x="0"/>
		<path style="opacity:.875;fill-rule:evenodd;fill:currentColor" d="m2.2501 3.1634c-.4785.3451-.9354.6729-1.5001 1.087v12.75c0 .4155.33452.75002.75002.75002h21.001c.4155 0 .75002-.33452.75002-.75002v-12.75c-.565-.4137-1.022-.7415-1.5-1.0866v2.962a.37505 .37505 0 0 1 -.110 .2651l-4.5 4.5005a.37505 .37505 0 0 1 -.13477 .08643l5.0099 5.0099a.37505 .37505 0 1 1 -.52882 .52882l-5.5167-5.5153h-7.9382l-5.5167 5.5153a.37505 .37505 0 1 1 -.5301 -.529l5.0099-5.0099a.37505 .37505 0 0 1 -.13477 -.08643l-4.5001-4.5005a.37505 .37505 0 0 1 -.1098 -.2651v-2.962zm.75002-2.6632v2.1197 3.3502l1.5264 1.5249c.053003-.14261.18713-.24464.34864-.24464h14.25c.16201 0 0.296.10279.34864.24610l1.5264-1.5264v-3.3502-2.1197h-3.0103-11.98-3.0103zm1.875 2.2501h3.0001c.20776 0 .37501.16725.37501.37501s-.16725.37501-.37501.37501h-3.0001c-.20776 0-.37501-.16725-.37501-.37501s.16725-.37501.37501-.37501zm2.2501 1.5h12c.20776 0 .37501.16725.37501.37501s-.16725.37501-.37501.37501h-12c-.20776 0-.37501-.16725-.37501-.37501s.16725-.37501.37501-.37501zm-2.2501 1.5h14.25c.20776 0 .37501.16725.37501.37501s-.16725.37501-.37501.37501h-14.25c-.20776 0-.37501-.16725-.37501-.37501s.16725-.37501.37501-.37501zm.15528 2.2501.75148.75002h12.438l.75002-.75002h-13.94zm1.5015 1.5.75002.75002h.59328 8.2502.59474l.75002-.75002h-10.938zm5.4681-11.438c-1.4544 0-2.9332.58396-4.777 1.6875h9.5539c-1.844-1.1035-3.322-1.6875-4.777-1.6875z" class="ColorScheme-Text"/>
	</g>
</svg>
