<?xml version="1.0" encoding="UTF-8" standalone="no"?>
<svg id="svg3155" xmlns:rdf="http://www.w3.org/1999/02/22-rdf-syntax-ns#" xmlns="http://www.w3.org/2000/svg" height="36" width="84" version="1.1" xmlns:cc="http://creativecommons.org/ns#" xmlns:xlink="http://www.w3.org/1999/xlink" xmlns:dc="http://purl.org/dc/elements/1.1/">
	<defs id="defs3157">
		<style id="current-color-scheme" type="text/css">
			.ColorScheme-Text { color:#0000FF; }
		</style>
		<g class="ColorScheme-Text">
			<linearGradient id="linearGradient4112">
				<stop id="stop4114" style="stop-color:currentColor" offset="0"/>
				<stop id="stop4116" style="stop-color:currentColor;stop-opacity:.75294" offset="1"/>
			</linearGradient>
			<linearGradient id="linearGradient4282" y2="61" xlink:href="#linearGradient4112" gradientUnits="userSpaceOnUse" x2="-54" gradientTransform="translate(118,-48)" y1="51" x1="-54"/>
			<linearGradient id="linearGradient4285" y2="61" xlink:href="#linearGradient4112" gradientUnits="userSpaceOnUse" x2="-37" gradientTransform="translate(118,-48)" y1="51" x1="-37"/>
			<linearGradient id="linearGradient4288" y2="61" xlink:href="#linearGradient4112" gradientUnits="userSpaceOnUse" x2="-73" gradientTransform="translate(118,-48)" y1="51" x1="-73"/>
			<linearGradient id="linearGradient4309" y2="61" xlink:href="#linearGradient4112" gradientUnits="userSpaceOnUse" x2="-54" gradientTransform="translate(74,-28)" y1="51" x1="-54"/>
			<linearGradient id="linearGradient4312" y2="61" xlink:href="#linearGradient4112" gradientUnits="userSpaceOnUse" x2="-37" gradientTransform="translate(74,-28)" y1="51" x1="-37"/>
			<linearGradient id="linearGradient4315" y2="61" xlink:href="#linearGradient4112" gradientUnits="userSpaceOnUse" x2="-73" gradientTransform="translate(74,-28)" y1="51" x1="-73"/>
			<linearGradient id="linearGradient4336" y2="61" xlink:href="#linearGradient4112" gradientUnits="userSpaceOnUse" x2="-54" gradientTransform="translate(74,-48)" y1="51" x1="-54"/>
			<linearGradient id="linearGradient4339" y2="61" xlink:href="#linearGradient4112" gradientUnits="userSpaceOnUse" x2="-37" gradientTransform="translate(74,-48)" y1="51" x1="-37"/>
			<linearGradient id="linearGradient4342" y2="61" xlink:href="#linearGradient4112" gradientUnits="userSpaceOnUse" x2="-73" gradientTransform="translate(74,-48)" y1="51" x1="-73"/>
			<linearGradient id="linearGradient4391" y2="61" xlink:href="#linearGradient4112" gradientUnits="userSpaceOnUse" x2="-54" gradientTransform="translate(118,-28)" y1="51" x1="-54"/>
			<linearGradient id="linearGradient4476" y2="61" xlink:href="#linearGradient4112" gradientUnits="userSpaceOnUse" x2="-37" gradientTransform="translate(118,-8)" y1="51" x1="-37"/>
			<linearGradient id="linearGradient4478" y2="61" xlink:href="#linearGradient4112" gradientUnits="userSpaceOnUse" x2="-73" gradientTransform="translate(118,-8)" y1="51" x1="-73"/>
		</g>
	</defs>
	<metadata id="metadata7">
		<rdf:RDF>
			<cc:Work rdf:about="">
				<dc:format>image/svg+xml</dc:format>
				<dc:type rdf:resource="http://purl.org/dc/dcmitype/StillImage"/>
				<dc:title/>
				<dc:creator>
					<cc:Agent>
						<dc:title>obnosim</dc:title>
					</cc:Agent>
				</dc:creator>
				<cc:license rdf:resource="http://creativecommons.org/licenses/by-sa/3.0/"/>
			</cc:Work>
			<cc:License rdf:about="http://creativecommons.org/licenses/by-sa/3.0/">
				<cc:permits rdf:resource="http://creativecommons.org/ns#Reproduction"/>
				<cc:permits rdf:resource="http://creativecommons.org/ns#Distribution"/>
				<cc:requires rdf:resource="http://creativecommons.org/ns#Notice"/>
				<cc:requires rdf:resource="http://creativecommons.org/ns#Attribution"/>
				<cc:permits rdf:resource="http://creativecommons.org/ns#DerivativeWorks"/>
				<cc:requires rdf:resource="http://creativecommons.org/ns#ShareAlike"/>
			</cc:License>
		</rdf:RDF>
	</metadata>
	<rect id="hint-stretch-borders" style="opacity:.5;fill:#008000" height="5" width="5" y="-5" x="-5"/>
	<g id="normal" class="ColorScheme-Text">
		<rect id="normal-left" style="opacity:.062;fill:url(#linearGradient4342)" height="10" width="3" y="3" x="0"/>
		<rect id="normal-right" style="opacity:.062;fill:url(#linearGradient4339)" height="10" width="3" y="3" x="37"/>
		<rect id="normal-center" style="opacity:.062;fill:url(#linearGradient4336)" height="10" width="34" y="3" x="3"/>
		<g id="normal-top" style="opacity:.5" transform="translate(215,-41)">
			<rect style="opacity:.125;fill:currentColor" transform="scale(1,-1)" height="3" width="34" y="-44" x="-212"/>
			<rect style="opacity:0.062;fill:currentColor" transform="translate(-141,-7)" height="1" width="34" y="48" x="-71"/>
		</g>
		<g id="normal-topleft" style="opacity:.5" transform="translate(215,-41)">
			<path d="m-215 44c0-1.662 1.338-3 3-3v3h-3z" style="opacity:.125;fill:currentColor"/>
			<path d="m-212 41c-1.662 0-3 1.338-3 3 0-1.108 1.338-2 3-2v-1z" style="opacity:0.062;fill:currentColor"/>
		</g>
		<g id="normal-topright" style="opacity:.5" transform="translate(215,-41)">
			<path d="m-175 44c0-1.662-1.338-3-3-3v3h3z" style="opacity:.125;fill:currentColor"/>
			<path d="m-178 41c1.662 0 3 1.338 3 3 0-1.108-1.338-2-3-2v-1z" style="opacity:0.062;fill:currentColor"/>
		</g>
		<g id="normal-bottom" style="opacity:.5" transform="matrix(1,0,0,-1,215,57)">
			<rect style="opacity:.125;fill:currentColor;fill-opacity:.75294" transform="scale(1,-1)" height="3" width="34" y="-44" x="-212"/>
			<rect style="opacity:0.062;fill:#000000" transform="translate(-141,-7)" height="1" width="34" y="48" x="-71"/>
		</g>
		<g id="normal-bottomleft" style="opacity:.5" transform="matrix(1,0,0,-1,215,57)">
			<path d="m-215 44c0-1.662 1.338-3 3-3v3h-3z" style="opacity:.125;fill-opacity:.75294;fill:currentColor"/>
			<path d="m-212 41c-1.662 0-3 1.338-3 3 0-1.108 1.338-2 3-2v-1z" style="opacity:0.062;fill:#000000"/>
		</g>
		<g id="normal-bottomright" style="opacity:.5" transform="matrix(1,0,0,-1,215,57)">
			<path d="m-175 44c0-1.662-1.338-3-3-3v3h3z" style="opacity:.125;fill-opacity:.75294;fill:currentColor"/>
			<path d="m-178 41c1.662 0 3 1.338 3 3 0-1.108-1.338-2-3-2v-1z" style="opacity:0.062;fill:#000000"/>
		</g>
	</g>
	<g id="hover" class="ColorScheme-Text">
		<rect id="hover-left" style="opacity:.125;fill:url(#linearGradient4315)" height="10" width="3" y="23" x="0"/>
		<rect id="hover-right" style="opacity:.125;fill:url(#linearGradient4312)" height="10" width="3" y="23" x="37"/>
		<rect id="hover-center" style="opacity:.125;fill:url(#linearGradient4309)" height="10" width="34" y="23" x="3"/>
		<g id="hover-top" transform="translate(215,-21)">
			<rect style="opacity:.125;fill:currentColor" transform="scale(1,-1)" height="3" width="34" y="-44" x="-212"/>
			<rect style="opacity:0.062;fill:currentColor" transform="translate(-141,-7)" height="1" width="34" y="48" x="-71"/>
		</g>
		<g id="hover-topleft" transform="translate(215,-21)">
			<path d="m-215 44c0-1.662 1.338-3 3-3v3h-3z" style="opacity:.125;fill:currentColor"/>
			<path d="m-212 41c-1.662 0-3 1.338-3 3 0-1.108 1.338-2 3-2v-1z" style="opacity:0.062;fill:currentColor"/>
		</g>
		<g id="hover-topright" transform="translate(215,-21)">
			<path d="m-175 44c0-1.662-1.338-3-3-3v3h3z" style="opacity:.125;fill:currentColor"/>
			<path d="m-178 41c1.662 0 3 1.338 3 3 0-1.108-1.338-2-3-2v-1z" style="opacity:0.062;fill:currentColor"/>
		</g>
		<g id="hover-bottom" transform="matrix(1,0,0,-1,215,77)">
			<rect style="opacity:.125;fill:currentColor;fill-opacity:.75294" transform="scale(1,-1)" height="3" width="34" y="-44" x="-212"/>
			<rect style="opacity:0.062;fill:#000000" transform="translate(-141,-7)" height="1" width="34" y="48" x="-71"/>
		</g>
		<g id="hover-bottomleft" transform="matrix(1,0,0,-1,215,77)">
			<path d="m-215 44c0-1.662 1.338-3 3-3v3h-3z" style="opacity:.125;fill-opacity:.75294;fill:currentColor"/>
			<path d="m-212 41c-1.662 0-3 1.338-3 3 0-1.108 1.338-2 3-2v-1z" style="opacity:0.062;fill:#000000"/>
		</g>
		<g id="hover-bottomright" transform="matrix(1,0,0,-1,215,77)">
			<path d="m-175 44c0-1.662-1.338-3-3-3v3h3z" style="opacity:.125;fill-opacity:.75294;fill:currentColor"/>
			<path d="m-178 41c1.662 0 3 1.338 3 3 0-1.108-1.338-2-3-2v-1z" style="opacity:0.062;fill:#000000"/>
		</g>
	</g>
	<g id="selected" class="ColorScheme-Text">
		<rect id="selected-left" style="opacity:.125;fill:url(#linearGradient4288)" height="10" width="3" y="3" x="44"/>
		<rect id="selected-right" style="opacity:.125;fill:url(#linearGradient4285)" height="10" width="3" y="3" x="81"/>
		<rect id="selected-center" style="opacity:.125;fill:url(#linearGradient4282)" height="10" width="34" y="3" x="47"/>
		<g id="selected-top" transform="translate(259,-41)">
			<rect style="opacity:.125;fill:currentColor" transform="scale(1,-1)" height="3" width="34" y="-44" x="-212"/>
			<rect style="opacity:0.062;fill:currentColor" transform="translate(-141,-7)" height="1" width="34" y="48" x="-71"/>
		</g>
		<g id="selected-topleft" transform="translate(259,-41)">
			<path d="m-215 44c0-1.662 1.338-3 3-3v3h-3z" style="opacity:.125;fill:currentColor"/>
			<path d="m-212 41c-1.662 0-3 1.338-3 3 0-1.108 1.338-2 3-2v-1z" style="opacity:0.062;fill:currentColor"/>
		</g>
		<g id="selected-topright" transform="translate(259,-41)">
			<path d="m-175 44c0-1.662-1.338-3-3-3v3h3z" style="opacity:.125;fill:currentColor"/>
			<path d="m-178 41c1.662 0 3 1.338 3 3 0-1.108-1.338-2-3-2v-1z" style="opacity:0.062;fill:currentColor"/>
		</g>
		<g id="selected-bottom" transform="translate(215,-41)">
			<rect style="opacity:.125;fill:currentColor;fill-opacity:.75294" height="3" width="34" y="54" x="-168"/>
			<rect style="opacity:0.062;fill:currentColor" transform="scale(1,-1)" height="1" width="34" y="-57" x="-168"/>
		</g>
		<g id="selected-bottomleft" transform="matrix(1,0,0,-1,259,57)">
			<path d="m-215 44c0-1.662 1.338-3 3-3v3h-3z" style="opacity:.125;fill-opacity:.75294;fill:currentColor"/>
			<path d="m-212 41c-1.662 0-3 1.338-3 3 0-1.108 1.338-2 3-2v-1z" style="opacity:0.062;fill:currentColor"/>
		</g>
		<g id="selected-bottomright" transform="matrix(1,0,0,-1,259,57)">
			<path d="m-175 44c0-1.662-1.338-3-3-3v3h3z" style="opacity:.125;fill-opacity:.75294;fill:currentColor"/>
			<path d="m-178 41c1.662 0 3 1.338 3 3 0-1.108-1.338-2-3-2v-1z" style="opacity:0.062;fill:currentColor"/>
		</g>
		<rect id="selected+hover-center" style="opacity:.125;fill:url(#linearGradient4391)" height="10" width="34" y="23" x="47"/>
		<g id="selected+hover-top" transform="translate(0,-20)">
			<rect style="opacity:.125;fill:currentColor" transform="scale(1,-1)" height="3" width="34" y="-43" x="47"/>
			<rect style="opacity:0.062;fill:currentColor" height="1" width="34" y="40" x="47"/>
		</g>
		<g id="selected+hover-bottom" transform="translate(0,-20)">
			<rect style="opacity:.125;fill:currentColor;fill-opacity:.75294" height="3" width="34" y="53" x="47"/>
			<rect style="opacity:0.062;fill:currentColor" transform="scale(1,-1)" height="1" width="34" y="-56" x="47"/>
		</g>
		<g id="selected+hover-topleft" transform="translate(0,-20)">
			<path style="opacity:.125;fill:currentColor" d="m44 43c0-1.662 1.338-3 3-3v3h-3z"/>
			<path style="opacity:0.062;fill:currentColor" d="m47 40c-1.662 0-3 1.338-3 3h1c0-1.108.892-2 2-2v-1z"/>
		</g>
		<g id="selected+hover-bottomleft" transform="translate(0,-20)">
			<path style="opacity:.125;fill-opacity:.75294;fill:currentColor" d="m44 53c0 1.662 1.338 3 3 3v-3h-3z"/>
			<path style="opacity:0.062;fill:currentColor" d="m47 56c-1.662 0-3-1.338-3-3h1c0 1.108.892 2 2 2v1z"/>
		</g>
		<g id="selected+hover-topright" transform="translate(0,-20)">
			<path style="opacity:.125;fill:currentColor" d="m84 43c0-1.662-1.338-3-3-3v3h3z"/>
			<path style="opacity:0.062;fill:currentColor" d="m81 40c1.662 0 3 1.338 3 3h-1c0-1.108-.892-2-2-2v-1z"/>
		</g>
		<g id="selected+hover-bottomright" transform="translate(0,-20)">
			<path style="opacity:.125;fill-opacity:.75294;fill:currentColor" d="m84 53c0 1.662-1.338 3-3 3v-3h3z"/>
			<path style="opacity:0.062;fill:currentColor" d="m81 56c1.662 0 3-1.338 3-3h-1c0 1.108-.892 2-2 2v1z"/>
		</g>
		<g id="selected+hover-left" transform="translate(0,-20)">
			<rect style="opacity:.125;fill:url(#linearGradient4478)" height="10" width="3" y="43" x="44"/>
			<rect style="opacity:0.062;fill:currentColor" height="10" width="1" y="43" x="44"/>
		</g>
		<g id="selected+hover-right" transform="translate(0,-20)">
			<rect style="opacity:.125;fill:url(#linearGradient4476)" height="10" width="3" y="43" x="81"/>
			<rect style="opacity:0.062;fill:currentColor" height="10" width="1" y="43" x="83"/>
		</g>
	</g>
</svg>
