<?xml version="1.0" encoding="UTF-8" standalone="no"?>
<svg
   xmlns:dc="http://purl.org/dc/elements/1.1/"
   xmlns:cc="http://creativecommons.org/ns#"
   xmlns:rdf="http://www.w3.org/1999/02/22-rdf-syntax-ns#"
   xmlns:svg="http://www.w3.org/2000/svg"
   xmlns="http://www.w3.org/2000/svg"
   xmlns:sodipodi="http://sodipodi.sourceforge.net/DTD/sodipodi-0.dtd"
   xmlns:inkscape="http://www.inkscape.org/namespaces/inkscape"
   width="100%"
   height="100%"
   viewBox="0 0 48 48"
   version="1.1"
   xml:space="preserve"
   style="fill-rule:evenodd;clip-rule:evenodd;stroke-linecap:round;stroke-linejoin:round;stroke-miterlimit:1.5;"
   id="svg13"
   sodipodi:docname="status_lock.svg"
   inkscape:version="0.92.4 5da689c313, 2019-01-14"><metadata
     id="metadata17"><rdf:RDF><cc:Work
         rdf:about=""><dc:format>image/svg+xml</dc:format><dc:type
           rdf:resource="http://purl.org/dc/dcmitype/StillImage" /></cc:Work></rdf:RDF></metadata><sodipodi:namedview
     pagecolor="#ffffff"
     bordercolor="#666666"
     borderopacity="1"
     objecttolerance="10"
     gridtolerance="10"
     guidetolerance="10"
     inkscape:pageopacity="0"
     inkscape:pageshadow="2"
     inkscape:window-width="1920"
     inkscape:window-height="1050"
     id="namedview15"
     showgrid="false"
     inkscape:zoom="17.093099"
     inkscape:cx="8.0578937"
     inkscape:cy="24"
     inkscape:window-x="0"
     inkscape:window-y="30"
     inkscape:window-maximized="1"
     inkscape:current-layer="svg13" /><path
     d="M13.84,14.969c0,-5.638 4.577,-10.215 10.215,-10.215c5.637,0 10.214,4.577 10.214,10.215c0,1.013 -0.05,10.536 -0.088,11.499c-0.171,4.4 -5.556,7.072 -10.181,7.072c-3.028,0 -10.398,-0.112 -10.309,-4.82c0.077,-4.077 0.149,-11.141 0.149,-13.751"
     style="fill:none;stroke:#cec6c6;stroke-width:6.58px;"
     id="path2" /><path
     d="M38,20c1.104,0 2,0.896 2,2l0,20c0,1.104 -0.896,2 -2,2l-28,0c-1.104,0 -2,-0.896 -2,-2l0,-20c0,-1.104 0.896,-2 2,-2l28,0Z"
     style="fill:url(#_Linear1);"
     id="path4" /><defs
     id="defs11"><linearGradient
       id="_Linear1"
       x1="0"
       y1="0"
       x2="1"
       y2="0"
       gradientUnits="userSpaceOnUse"
       gradientTransform="matrix(0,-24,-32,0,24,44)"><stop
         offset="0"
         style="stop-color:#4400aa;stop-opacity:1"
         id="stop6" /><stop
         offset="1"
         style="stop-color:#dd55ff;stop-opacity:1"
         id="stop8" /></linearGradient></defs></svg>