<?xml version="1.0" encoding="UTF-8" standalone="no"?>
<!-- Created with Inkscape (http://www.inkscape.org/) -->

<svg
   xmlns:dc="http://purl.org/dc/elements/1.1/"
   xmlns:cc="http://creativecommons.org/ns#"
   xmlns:rdf="http://www.w3.org/1999/02/22-rdf-syntax-ns#"
   xmlns:svg="http://www.w3.org/2000/svg"
   xmlns="http://www.w3.org/2000/svg"
   xmlns:sodipodi="http://sodipodi.sourceforge.net/DTD/sodipodi-0.dtd"
   xmlns:inkscape="http://www.inkscape.org/namespaces/inkscape"
   id="svg7384"
   style="enable-background:new"
   height="16"
   width="16"
   version="1.1"
   inkscape:version="0.92.4 5da689c313, 2019-01-14"
   sodipodi:docname="semi-starred.svg">
  <sodipodi:namedview
     pagecolor="#ffffff"
     bordercolor="#666666"
     borderopacity="1"
     objecttolerance="10"
     gridtolerance="10"
     guidetolerance="10"
     inkscape:pageopacity="0"
     inkscape:pageshadow="2"
     inkscape:window-width="1920"
     inkscape:window-height="1050"
     id="namedview11"
     showgrid="false"
     inkscape:zoom="29.5"
     inkscape:cx="7.1512579"
     inkscape:cy="6.3726069"
     inkscape:window-x="0"
     inkscape:window-y="30"
     inkscape:window-maximized="1"
     inkscape:current-layer="layer9" />
  <metadata
     id="metadata90">
    <rdf:RDF>
      <cc:Work
         rdf:about="">
        <dc:format>image/svg+xml</dc:format>
        <dc:type
           rdf:resource="http://purl.org/dc/dcmitype/StillImage" />
        <dc:title>Paper Symbolic Icon Theme</dc:title>
      </cc:Work>
    </rdf:RDF>
  </metadata>
  <title
     id="title8473">Paper Symbolic Icon Theme</title>
  <defs
     id="defs7386">
    <filter
       id="filter7554"
       color-interpolation-filters="sRGB">
      <feBlend
         id="feBlend7556"
         in2="BackgroundImage"
         mode="darken" />
    </filter>
  </defs>
  <g
     style="fill:#cccccc;enable-background:new"
     transform="matrix(0.875,0,0,0.91943998,-265.875,194.65245)"
     id="g4138">
    <path
       inkscape:connector-curvature="0"
       d="m 313,-210.61 -2.1187,5.495 -5.8812,0.31706 4.5715,3.7134 -1.5158,5.6912 4.9443,-3.2001 4.9437,3.2001 -1.5153,-5.6912 4.5715,-3.7134 -5.8812,-0.31706 z"
       style="color:#000000;text-indent:0;text-transform:none;block-progression:tb;opacity:0.35;fill:#cccccc;enable-background:accumulate"
       id="path4140" />
    <path
       inkscape:connector-curvature="0"
       d="m 313,-210.62 -2.125,5.5 -5.875,0.3125 4.5625,3.7188 -1.5,5.6875 4.9375,-3.1875 0,-12.031 z"
       style="color:#000000;text-indent:0;text-transform:none;block-progression:tb;fill:#cccccc;enable-background:accumulate"
       id="path4142" />
  </g>
  <g
     id="layer9"
     transform="matrix(0.875,0,0,0.91943998,-274.72246,193.6016)"
     style="fill:#ffcc00">
    <path
       style="color:#000000;text-indent:0;text-transform:none;block-progression:tb;opacity:0.35;fill:none;enable-background:accumulate"
       d="m 8.0001,12.40656 0,0 4.9437,3.2001 L 11.4285,9.91546 16,6.20206 10.1188,5.885 8,0.39 l 0,0 -0.1114492,0.28905199"
       id="path4158"
       transform="translate(305,-211)"
       inkscape:connector-curvature="0" />
    <path
       style="color:#000000;text-indent:0;text-transform:none;block-progression:tb;opacity:0.35;fill:none;enable-background:accumulate"
       d="M 7.8885508,0.67905199 5.8813,5.885 1e-4,6.20206 l 4.5715,3.7134 -1.5158,5.6912 4.9443,-3.2001"
       id="path5823"
       transform="translate(305,-211)"
       inkscape:connector-curvature="0" />
    <path
       id="path5833"
       style="color:#000000;text-indent:0;text-transform:none;block-progression:tb;fill:#6600ff;fill-opacity:1;enable-background:accumulate"
       d="m 323.11138,-209.46922 -2.125,5.5 -5.875,0.3125 4.5625,3.7188 -1.5,5.6875 4.9375,-3.1875 0,-12.031 z"
       inkscape:connector-curvature="0" />
  </g>
</svg>
