<?xml version="1.0" encoding="UTF-8" standalone="no"?>
<svg
   xmlns:dc="http://purl.org/dc/elements/1.1/"
   xmlns:cc="http://creativecommons.org/ns#"
   xmlns:rdf="http://www.w3.org/1999/02/22-rdf-syntax-ns#"
   xmlns:svg="http://www.w3.org/2000/svg"
   xmlns="http://www.w3.org/2000/svg"
   xmlns:xlink="http://www.w3.org/1999/xlink"
   xmlns:sodipodi="http://sodipodi.sourceforge.net/DTD/sodipodi-0.dtd"
   xmlns:inkscape="http://www.inkscape.org/namespaces/inkscape"
   width="100%"
   height="100%"
   viewBox="0 0 22 22"
   version="1.1"
   xml:space="preserve"
   style="fill-rule:evenodd;clip-rule:evenodd;stroke-linejoin:round;stroke-miterlimit:1.41421;"
   id="svg10"
   sodipodi:docname="update-medium.svg"
   inkscape:version="0.92.4 5da689c313, 2019-01-14"><metadata
     id="metadata14"><rdf:RDF><cc:Work
         rdf:about=""><dc:format>image/svg+xml</dc:format><dc:type
           rdf:resource="http://purl.org/dc/dcmitype/StillImage" /></cc:Work></rdf:RDF></metadata><sodipodi:namedview
     pagecolor="#ffffff"
     bordercolor="#666666"
     borderopacity="1"
     objecttolerance="10"
     gridtolerance="10"
     guidetolerance="10"
     inkscape:pageopacity="0"
     inkscape:pageshadow="2"
     inkscape:window-width="1920"
     inkscape:window-height="1050"
     id="namedview12"
     showgrid="false"
     inkscape:zoom="22.91999"
     inkscape:cx="12.697865"
     inkscape:cy="11.617022"
     inkscape:window-x="0"
     inkscape:window-y="30"
     inkscape:window-maximized="1"
     inkscape:current-layer="svg10" /><path
     id="path6775"
     d="M11,1.003c-1.055,1.041 -2.061,2.237 -3.133,3.259l-3.608,0l0,3.608c-1.023,1.072 -2.218,2.079 -3.259,3.133c1.041,1.055 2.236,2.104 3.259,3.176l0,3.568l3.608,0c1.072,1.023 2.078,2.215 3.133,3.256c1.055,-1.04 2.104,-2.233 3.176,-3.256l3.565,-0.003l0,-3.565c1.022,-1.072 2.218,-2.121 3.259,-3.176c-1.041,-1.055 -2.237,-2.061 -3.259,-3.133l0,-3.611l-3.565,0.003c-1.072,-1.022 -2.121,-2.218 -3.176,-3.259l0,0Zm0,4.716l3.519,5.279l-0.086,0l-2.06,0l0,5.579l-2.747,-0.042l0,-5.537l-2.06,0l-0.085,0c1.601,-2.338 3.083,-4.609 3.519,-5.279l0,0Z"
     style="fill:url(#linearGradient825);fill-rule:nonzero;fill-opacity:1" /><defs
     id="defs8"><linearGradient
       inkscape:collect="always"
       id="linearGradient823"><stop
         style="stop-color:#b380ff;stop-opacity:1"
         offset="0"
         id="stop819" /><stop
         style="stop-color:#9955ff;stop-opacity:1"
         offset="1"
         id="stop821" /></linearGradient><linearGradient
       id="_Linear1"
       x1="0"
       y1="0"
       x2="1"
       y2="0"
       gradientUnits="userSpaceOnUse"
       gradientTransform="matrix(1.22465e-15,-20,20,1.22465e-15,11,21.0034)"><stop
         offset="0"
         style="stop-color:#000080;stop-opacity:1"
         id="stop3" /><stop
         offset="1"
         style="stop-color:#ff00ff;stop-opacity:1"
         id="stop5" /></linearGradient><linearGradient
       inkscape:collect="always"
       xlink:href="#linearGradient823"
       id="linearGradient825"
       x1="10.82025"
       y1="1.4066224"
       x2="11"
       y2="21.003"
       gradientUnits="userSpaceOnUse" /></defs><rect
     style="opacity:1;fill:#1c1c24;fill-opacity:1"
     id="rect815"
     width="2.747"
     height="5.579"
     x="9.6260004"
     y="10.998" /><path
     sodipodi:type="star"
     style="opacity:1;fill:#1c1c24;fill-opacity:1"
     id="path817"
     sodipodi:sides="3"
     sodipodi:cx="11.171266"
     sodipodi:cy="9.0816479"
     sodipodi:r1="3.8574257"
     sodipodi:r2="1.9287128"
     sodipodi:arg1="0.51990269"
     sodipodi:arg2="1.5671002"
     inkscape:flatsided="false"
     inkscape:rounded="0"
     inkscape:randomized="0"
     d="m 14.519,10.998 -3.340606,0.01235 -3.3406055,0.01235 1.6596098,-2.8992233 1.6596097,-2.8992232 1.680996,2.8868759 z"
     inkscape:transform-center-x="-0.0076560439"
     inkscape:transform-center-y="-0.88170546"
     transform="matrix(1.0738815,0,0,0.9201913,-0.96470577,0.87970689)" /></svg>