<?xml version="1.0" encoding="UTF-8" standalone="no"?>
<svg
   xmlns:dc="http://purl.org/dc/elements/1.1/"
   xmlns:cc="http://creativecommons.org/ns#"
   xmlns:rdf="http://www.w3.org/1999/02/22-rdf-syntax-ns#"
   xmlns:svg="http://www.w3.org/2000/svg"
   xmlns="http://www.w3.org/2000/svg"
   xmlns:sodipodi="http://sodipodi.sourceforge.net/DTD/sodipodi-0.dtd"
   xmlns:inkscape="http://www.inkscape.org/namespaces/inkscape"
   style="clip-rule:evenodd;fill-rule:evenodd;stroke-linejoin:round;stroke-miterlimit:2"
   version="1.1"
   viewBox="0 0 48 48"
   id="svg13"
   sodipodi:docname="launchpad.svg"
   inkscape:version="0.92.4 5da689c313, 2019-01-14">
  <metadata
     id="metadata17">
    <rdf:RDF>
      <cc:Work
         rdf:about="">
        <dc:format>image/svg+xml</dc:format>
        <dc:type
           rdf:resource="http://purl.org/dc/dcmitype/StillImage" />
      </cc:Work>
    </rdf:RDF>
  </metadata>
  <sodipodi:namedview
     pagecolor="#ffffff"
     bordercolor="#666666"
     borderopacity="1"
     objecttolerance="10"
     gridtolerance="10"
     guidetolerance="10"
     inkscape:pageopacity="0"
     inkscape:pageshadow="2"
     inkscape:window-width="1920"
     inkscape:window-height="1050"
     id="namedview15"
     showgrid="false"
     inkscape:zoom="17.073893"
     inkscape:cx="8.0399611"
     inkscape:cy="24"
     inkscape:window-x="0"
     inkscape:window-y="30"
     inkscape:window-maximized="1"
     inkscape:current-layer="svg13" />
  <path
     d="m24 1.236c12.573 0 22.764 10.191 22.764 22.764s-10.191 22.764-22.764 22.764-22.764-10.191-22.764-22.764 10.191-22.764 22.764-22.764z"
     style="fill-rule:nonzero;fill:url(#_Linear1);fill-opacity:1"
     id="path2" />
  <path
     d="m17.887 28.608l-4.751 2.691 9.828 5.568v-5.379l-5.077-2.88zm12.21 8e-3l-5.077 2.865v5.383l9.829-5.56-4.752-2.691v3e-3zm-0.398-7.841v6.454l-5.703 3.224-5.699-3.228 4e-3 -6.454 5.703-3.224 5.695 3.228zm6.178-2.334l-4.752 2.687v5.749l4.748 2.687 4e-3 -11.123zm-23.754-8e-3l-4e-3 11.122 4.752-2.683v-5.753l-4.748-2.686zm12.91-7.3l9.828 5.568-4.755 2.687-5.077-2.876v-5.379h4e-3zm-2.043 0l-9.832 5.56 4.752 2.687 5.08-2.865v-5.382z"
     style="fill-rule:nonzero;fill:#fff"
     id="path4" />
  <defs
     id="defs11">
    <linearGradient
       id="_Linear1"
       x2="0.01916364"
       gradientTransform="matrix(2.78779e-15,-45.528,45.528,2.78779e-15,46.764,46.764)"
       gradientUnits="userSpaceOnUse"
       x1="1"
       y1="-0.5"
       y2="-0.47140691">
      <stop
         style="stop-color:#790bf8;stop-opacity:1"
         offset="0"
         id="stop6" />
      <stop
         style="stop-color:#8bf6ff;stop-opacity:1"
         offset="1"
         id="stop8" />
    </linearGradient>
  </defs>
</svg>
