<?xml version="1.0" encoding="UTF-8" standalone="no"?>
<svg
   xmlns:dc="http://purl.org/dc/elements/1.1/"
   xmlns:cc="http://creativecommons.org/ns#"
   xmlns:rdf="http://www.w3.org/1999/02/22-rdf-syntax-ns#"
   xmlns:svg="http://www.w3.org/2000/svg"
   xmlns="http://www.w3.org/2000/svg"
   xmlns:sodipodi="http://sodipodi.sourceforge.net/DTD/sodipodi-0.dtd"
   xmlns:inkscape="http://www.inkscape.org/namespaces/inkscape"
   style="clip-rule:evenodd;fill-rule:evenodd;stroke-linejoin:round;stroke-miterlimit:2"
   version="1.1"
   viewBox="0 0 48 48"
   id="svg20"
   sodipodi:docname="battery.svg"
   inkscape:version="0.92.4 5da689c313, 2019-01-14">
  <metadata
     id="metadata24">
    <rdf:RDF>
      <cc:Work
         rdf:about="">
        <dc:format>image/svg+xml</dc:format>
        <dc:type
           rdf:resource="http://purl.org/dc/dcmitype/StillImage" />
      </cc:Work>
    </rdf:RDF>
  </metadata>
  <sodipodi:namedview
     pagecolor="#ffffff"
     bordercolor="#666666"
     borderopacity="1"
     objecttolerance="10"
     gridtolerance="10"
     guidetolerance="10"
     inkscape:pageopacity="0"
     inkscape:pageshadow="2"
     inkscape:window-width="1920"
     inkscape:window-height="1050"
     id="namedview22"
     showgrid="false"
     inkscape:zoom="17.093099"
     inkscape:cx="24.438774"
     inkscape:cy="24"
     inkscape:window-x="0"
     inkscape:window-y="30"
     inkscape:window-maximized="1"
     inkscape:current-layer="svg20" />
  <path
     d="m32.325 5.811c0-1.936-1.57-3.506-3.506-3.506h-9.638c-1.936 0-3.506 1.57-3.506 3.506v0.494h16.65v-0.494z"
     style="fill:#8e8e8e"
     id="path2" />
  <path
     d="m40 12.463c0-3.567-2.896-6.463-6.463-6.463h-19.074c-3.567 0-6.463 2.896-6.463 6.463v26.711c0 3.568 2.896 6.464 6.463 6.464h19.074c3.567 0 6.463-2.896 6.463-6.464v-26.711z"
     style="fill:url(#_Linear1)"
     id="path4" />
  <path
     d="m14.467 9.804c-1.915 0-3.467 1.552-3.467 3.467v5.788h26v-5.788c0-1.915-1.552-3.467-3.467-3.467h-19.066zm-3.467 11.569v9.254h26v-9.254h-26zm0 11.568v5.788c0 1.915 1.552 3.467 3.467 3.467h19.066c1.915 0 3.467-1.552 3.467-3.467v-5.788h-26z"
     style="fill-rule:nonzero;fill:url(#_Linear2)"
     id="path6" />
  <defs
     id="defs18">
    <linearGradient
       id="_Linear1"
       x2="1"
       gradientTransform="matrix(2.20436e-15,-39.6377,36,2.42711e-15,24,45.6377)"
       gradientUnits="userSpaceOnUse">
      <stop
         style="stop-color:#2f2f2f"
         offset="0"
         id="stop8" />
      <stop
         style="stop-color:#4f4f4f"
         offset="1"
         id="stop10" />
    </linearGradient>
    <linearGradient
       id="_Linear2"
       x2="1"
       gradientTransform="matrix(1.71025e-15,-32.3117,27.9305,1.97852e-15,24,42.1157)"
       gradientUnits="userSpaceOnUse">
      <stop
         style="stop-color:#2ad4ff;stop-opacity:1"
         offset="0"
         id="stop13" />
      <stop
         style="stop-color:#d7eef4;stop-opacity:1"
         offset="1"
         id="stop15" />
    </linearGradient>
  </defs>
</svg>
