<svg xmlns="http://www.w3.org/2000/svg" xmlns:xlink="http://www.w3.org/1999/xlink" height="48" width="48" version="1.1" id="svg24"><defs id="defs14"><linearGradient id="linearGradient903"><stop id="stop901" stop-color="#00ff80" offset="0" stop-opacity="1"/><stop id="stop899" stop-color="#0080ff" offset="1" stop-opacity="1"/></linearGradient><linearGradient id="linearGradient881"><stop id="stop879" offset="0" stop-color="#00ff80" stop-opacity="1"/><stop id="stop877" offset="1" stop-color="#0080ff" stop-opacity="1"/></linearGradient><style id="current-color-scheme" type="text/css"/><style id="current-color-scheme-7" type="text/css"/><style id="current-color-scheme-8" type="text/css"/><style id="current-color-scheme-9" type="text/css"/><linearGradient xlink:href="#linearGradient881" id="linearGradient897" x1="3.448" y1="6.302" x2="43.812" y2="43.393" gradientUnits="userSpaceOnUse" gradientTransform="translate(-1.29 -1.312) scale(1.05286)"/><linearGradient xlink:href="#linearGradient903" id="linearGradient883-2" x1="4.413" y1="5.973" x2="45.56" y2="44.159" gradientUnits="userSpaceOnUse" gradientTransform="matrix(1.05341 0 0 1.0173 -1.304 .585)"/><style id="current-color-scheme-3" type="text/css"/></defs><path style="marker:none" d="M9.625 3.762c-7.158 0-7.893.402-7.893 7.545v16.527c0-7.15.735-7.883 7.893-7.883h9.871l3.238-3.238h16.448c6.973.172 7.849.752 7.89 7.387v-8.82c0-7.146-.73-8.281-7.894-8.281h-17.61l-3.242-3.238H9.625z" id="path16" color="#000" overflow="visible" fill="url(#linearGradient897)" fill-opacity="1" stroke="#fff" stroke-width="1" stroke-miterlimit="4" stroke-dasharray="none" stroke-opacity="0"/><path id="path18-7" d="M9.617 21.13c-7.163 0-7.896.707-7.896 7.616v9.807c0 6.905.733 7.617 7.897 7.617h29.571c7.164 0 7.904-.712 7.904-7.617V25.617c0-6.91-.74-7.447-7.904-7.617H22.733l-3.24 3.13z" style="marker:none" overflow="visible" color="#000" opacity="1" fill="url(#linearGradient883-2)" fill-opacity="1" stroke="#fff" stroke-width=".983" stroke-miterlimit="4" stroke-dasharray="none" stroke-opacity="0"/><g transform="translate(14 22)">HERE</g></svg>