<?xml version="1.0" encoding="UTF-8" standalone="no"?>
<svg id="RSSicon" xmlns:rdf="http://www.w3.org/1999/02/22-rdf-syntax-ns#" xmlns="http://www.w3.org/2000/svg" height="22" viewBox="0 0 44 44" width="22" version="1.1" xmlns:cc="http://creativecommons.org/ns#" xmlns:dc="http://purl.org/dc/elements/1.1/">
	<defs>
		<style id="current-color-scheme" type="text/css">.ColorScheme-Text { color:#0000FF; }</style>
	</defs>
	<metadata>
		<rdf:RDF>
			<cc:Work rdf:about="">
				<dc:format>image/svg+xml</dc:format>
				<dc:type rdf:resource="http://purl.org/dc/dcmitype/StillImage"/>
				<dc:title/>
				<dc:creator>
					<cc:Agent>
						<dc:title>obnosim</dc:title>
					</cc:Agent>
				</dc:creator>
				<cc:license rdf:resource="http://creativecommons.org/licenses/by-sa/3.0/"/>
			</cc:Work>
			<cc:License rdf:about="http://creativecommons.org/licenses/by-sa/3.0/">
				<cc:permits rdf:resource="http://creativecommons.org/ns#Reproduction"/>
				<cc:permits rdf:resource="http://creativecommons.org/ns#Distribution"/>
				<cc:requires rdf:resource="http://creativecommons.org/ns#Notice"/>
				<cc:requires rdf:resource="http://creativecommons.org/ns#Attribution"/>
				<cc:permits rdf:resource="http://creativecommons.org/ns#DerivativeWorks"/>
				<cc:requires rdf:resource="http://creativecommons.org/ns#ShareAlike"/>
			</cc:License>
		</rdf:RDF>
	</metadata>
	<rect style="opacity:.125;fill-rule:evenodd;fill:#000000" height="0" width="0" y="-2" x="-2"/>
	<g id="22-22-akregator" class="ColorScheme-Text" transform="translate(176)">
		<rect style="opacity:.875;fill:none" height="44" width="44" y="0" x="-176"/>
		<path style="opacity:.875;stroke-linejoin:round;stroke:currentColor;stroke-linecap:round;stroke-width:2;fill:none" d="m-76 18v-1.2656c0-3.731-3.003-6.734-6.734-6.734h-1.266" transform="scale(2)"/>
		<path style="opacity:.875;stroke-linejoin:round;stroke:currentColor;stroke-linecap:round;stroke-width:2;fill:none" d="m-70 18v-1c0-7.202-5.798-13-13-13h-1" transform="scale(2)"/>
		<circle r="4" style="opacity:.875;fill-rule:evenodd;fill:currentColor" cx="-166" cy="34"/>
	</g>
	<g id="akregator" class="ColorScheme-Text">
		<rect style="opacity:.875;fill:none" height="64" width="64" y="-20" x="48"/>
		<circle cx="59" cy="33" r="5" style="fill-rule:evenodd;fill:currentColor;fill-opacity:.87843"/>
		<path style="stroke-linejoin:round;stroke-opacity:.87843;stroke:currentColor;stroke-linecap:round;stroke-width:2;fill:none" d="m51 18v-1c0-12.188-9.812-22-22-22h-1v-.97461c.332-.0141.665-.0254 1-.0254 12.742 0 23 10.258 23 23 0 .33532-.01132.66826-.02539 1z" transform="scale(2)"/>
		<path style="stroke-linejoin:round;stroke-opacity:.87843;stroke:currentColor;stroke-linecap:round;stroke-width:2;fill:none" d="m41 18v-1c0-6.648-5.352-12-12-12h-1v-.9492c.331-.0251.662-.0508 1-.0508 7.202 0 13 5.798 13 13 0 .33794-.0257.66870-.05078 1z" transform="scale(2)"/>
	</g>
</svg>
