<?xml version="1.0" encoding="UTF-8" standalone="no"?>
<svg id="svg3066" xmlns:rdf="http://www.w3.org/1999/02/22-rdf-syntax-ns#" xmlns="http://www.w3.org/2000/svg" height="22" width="22" version="1.1" xmlns:cc="http://creativecommons.org/ns#" xmlns:dc="http://purl.org/dc/elements/1.1/">
	<defs id="defs3615">
		<style id="current-color-scheme" type="text/css">
			.ColorScheme-Text { color:#0000FF; }
		</style>
	</defs>
	<metadata id="metadata7">
		<rdf:RDF>
			<cc:Work rdf:about="">
				<dc:format>image/svg+xml</dc:format>
				<dc:type rdf:resource="http://purl.org/dc/dcmitype/StillImage"/>
				<dc:title/>
				<dc:creator>
					<cc:Agent>
						<dc:title>obnosim</dc:title>
					</cc:Agent>
				</dc:creator>
				<cc:license rdf:resource="http://creativecommons.org/licenses/by-sa/3.0/"/>
			</cc:Work>
			<cc:License rdf:about="http://creativecommons.org/licenses/by-sa/3.0/">
				<cc:permits rdf:resource="http://creativecommons.org/ns#Reproduction"/>
				<cc:permits rdf:resource="http://creativecommons.org/ns#Distribution"/>
				<cc:requires rdf:resource="http://creativecommons.org/ns#Notice"/>
				<cc:requires rdf:resource="http://creativecommons.org/ns#Attribution"/>
				<cc:permits rdf:resource="http://creativecommons.org/ns#DerivativeWorks"/>
				<cc:requires rdf:resource="http://creativecommons.org/ns#ShareAlike"/>
			</cc:License>
		</rdf:RDF>
	</metadata>
	<g id="22-22-bangarang" transform="translate(-1,-1)">
		<rect style="fill:none" height="22" width="22" y="1" x="1"/>
		<path class="ColorScheme-Text" style="opacity:.875;fill-rule:evenodd;fill:currentColor" d="m2 2c-.554 0-1 .446-1 1v18c0 .554.446 1 1 1h7.7695a3 3 0 0 1 -.5957 -1h-5.1738c-.5540 0-1-.446-1-1s.4460-1 1-1h5.1758a3 3 0 0 1 .5918 -1h-6.7676v-14h18v14h-6.7695a3 3 0 0 1 .5957 1h5.174c.554 0 1 .446 1 1s-.446 1-1 1h-5.1758a3 3 0 0 1 -.5918 1h7.768c.554 0 1-.446 1-1v-18c0-.554-.446-1-1-1h-20zm8 5v8l6-4-6-4zm2 11a2 2 0 0 0 -2 2 2 2 0 0 0 2 2 2 2 0 0 0 2 -2 2 2 0 0 0 -2 -2z"/>
	</g>
	<g id="bangarang" transform="matrix(1.3333 0 0 1.3333 24 -9)">
		<rect style="fill:none" height="24" width="24" y="0" x="0"/>
		<path class="ColorScheme-Text" style="opacity:.875;fill-rule:evenodd;fill:currentColor" d="m26-6c-.554 0-1 .446-1 1v24c0 .554.446 1 1 1h11.77a3 3 0 0 1 -.596 -1h-9.174c-.554 0-1-.446-1-1s.446-1 1-1h9.1758a3 3 0 0 1 .59180 -1h-10.768v-20h26v20h-10.77a3 3 0 0 1 .59570 1h9.174c.554 0 1 .446 1 1s-.446 1-1 1h-9.1758a3 3 0 0 1 -.59180 1h11.768c.554 0 1-.446 1-1v-24c0-.554-.446-1-1-1h-28zm11 7v10l8-5-8-5zm3 15a2 2 0 0 0 -2 2 2 2 0 0 0 2 2 2 2 0 0 0 2 -2 2 2 0 0 0 -2 -2z" transform="matrix(0.75 0 0 0.75 -18 6.75)"/>
	</g>
</svg>
