<?xml version="1.0" encoding="UTF-8" standalone="no"?>
<svg id="svg2" xmlns:rdf="http://www.w3.org/1999/02/22-rdf-syntax-ns#" xmlns="http://www.w3.org/2000/svg" height="22" width="22" version="1.1" xmlns:cc="http://creativecommons.org/ns#" xmlns:dc="http://purl.org/dc/elements/1.1/">
	<defs id="defs3615">
		<style id="current-color-scheme" type="text/css">
			.ColorScheme-Text { color:#0000FF; }
		</style>
	</defs>
	<metadata id="metadata7">
		<rdf:RDF>
			<cc:Work rdf:about="">
				<dc:format>image/svg+xml</dc:format>
				<dc:type rdf:resource="http://purl.org/dc/dcmitype/StillImage"/>
				<dc:title/>
				<dc:creator>
					<cc:Agent>
						<dc:title>obnosim</dc:title>
					</cc:Agent>
				</dc:creator>
				<cc:license rdf:resource="http://creativecommons.org/licenses/by-sa/3.0/"/>
			</cc:Work>
			<cc:License rdf:about="http://creativecommons.org/licenses/by-sa/3.0/">
				<cc:permits rdf:resource="http://creativecommons.org/ns#Reproduction"/>
				<cc:permits rdf:resource="http://creativecommons.org/ns#Distribution"/>
				<cc:requires rdf:resource="http://creativecommons.org/ns#Notice"/>
				<cc:requires rdf:resource="http://creativecommons.org/ns#Attribution"/>
				<cc:permits rdf:resource="http://creativecommons.org/ns#DerivativeWorks"/>
				<cc:requires rdf:resource="http://creativecommons.org/ns#ShareAlike"/>
			</cc:License>
		</rdf:RDF>
	</metadata>
	<g id="22-22-dialog-error" transform="translate(-29,-5)">
		<rect style="fill:none" height="22" width="22" y="5" x="1"/>
		<path class="ColorScheme-Text" style="opacity:.875;stroke-linejoin:round;stroke-dashoffset:2.6;stroke:currentColor;stroke-linecap:round;stroke-width:2;fill:none" d="m8 20 8-8m-8 0 8 8m6-4c0 5.523-4.477 10-10 10-5.5228 0-10-4.477-10-10s4.4772-10 10-10 10 4.4772 10 10z"/>
	</g>
	<g id="22-22-dialog-ok" transform="translate(-29,-5)">
		<rect style="fill:none" height="22" width="22" y="5" x="29"/>
		<path class="ColorScheme-Text" style="opacity:.875;stroke-dashoffset:2.6;stroke:currentColor;stroke-linecap:round;stroke-width:2;fill:none" d="m35 17 4 3 6-7m5 3c0 5.523-4.477 10-10 10s-10-4.477-10-10 4.477-10 10-10c5.5228 0 10 4.4772 10 10z"/>
	</g>
	<g id="dialog-error" transform="matrix(1.3333 0 0 1.3333 -32 -39.333)">
		<rect style="fill:none" height="24" width="24" y="4" x="0"/>
		<path class="ColorScheme-Text" style="opacity:.875;stroke-dashoffset:1;stroke:currentColor;stroke-linecap:round;stroke-width:1.5;fill:none" d="m21.75 16c0 5.3848-4.3652 9.75-9.75 9.75s-9.75-4.3652-9.75-9.75 4.3652-9.75 9.75-9.75 9.75 4.3652 9.75 9.75zm-13.5-3.75 7.5 7.5m-7.75 0 7.75-7.5"/>
	</g>
	<g id="dialog-ok" transform="matrix(1.3333 0 0 1.3333 -37.333 -39.333)">
		<rect style="fill:none" height="24" width="24" y="4" x="28"/>
		<path class="ColorScheme-Text" style="opacity:.875;stroke-dashoffset:1;stroke:currentColor;stroke-linecap:round;stroke-width:1.5;fill:none" d="m49.75 16c0 5.3848-4.3652 9.75-9.75 9.75s-9.75-4.3652-9.75-9.75 4.3652-9.75 9.75-9.75 9.75 4.3652 9.75 9.75zm-15 .75 4.5 3.75 6-7.5"/>
	</g>
</svg>
