<?xml version="1.0" encoding="UTF-8" standalone="no"?>
<svg
   xmlns:dc="http://purl.org/dc/elements/1.1/"
   xmlns:cc="http://creativecommons.org/ns#"
   xmlns:rdf="http://www.w3.org/1999/02/22-rdf-syntax-ns#"
   xmlns:svg="http://www.w3.org/2000/svg"
   xmlns="http://www.w3.org/2000/svg"
   xmlns:sodipodi="http://sodipodi.sourceforge.net/DTD/sodipodi-0.dtd"
   xmlns:inkscape="http://www.inkscape.org/namespaces/inkscape"
   style="clip-rule:evenodd;fill-rule:evenodd;stroke-linejoin:round;stroke-miterlimit:2"
   version="1.1"
   viewBox="0 0 48 48"
   id="svg18"
   sodipodi:docname="studio.svg"
   inkscape:version="0.92.4 5da689c313, 2019-01-14">
  <metadata
     id="metadata22">
    <rdf:RDF>
      <cc:Work
         rdf:about="">
        <dc:format>image/svg+xml</dc:format>
        <dc:type
           rdf:resource="http://purl.org/dc/dcmitype/StillImage" />
      </cc:Work>
    </rdf:RDF>
  </metadata>
  <sodipodi:namedview
     pagecolor="#ffffff"
     bordercolor="#666666"
     borderopacity="1"
     objecttolerance="10"
     gridtolerance="10"
     guidetolerance="10"
     inkscape:pageopacity="0"
     inkscape:pageshadow="2"
     inkscape:window-width="1920"
     inkscape:window-height="1050"
     id="namedview20"
     showgrid="false"
     inkscape:zoom="17.093099"
     inkscape:cx="8.0578937"
     inkscape:cy="24"
     inkscape:window-x="0"
     inkscape:window-y="30"
     inkscape:window-maximized="1"
     inkscape:current-layer="svg18" />
  <path
     d="m46.824 9.587c0-0.736-0.293-1.441-0.813-1.959-0.519-0.52-1.225-0.812-1.96-0.812-8.147 2e-3 -31.964 0.01-40.111 0.013-0.736 0-1.441 0.292-1.96 0.812-0.519 0.519-0.811 1.224-0.811 1.96 2e-3 6.442 6e-3 22.371 9e-3 28.812 0 0.736 0.292 1.441 0.812 1.96s1.224 0.811 1.96 0.811c8.148-2e-3 31.964-0.01 40.112-0.013 0.735 0 1.439-0.292 1.958-0.812 0.52-0.519 0.812-1.224 0.811-1.958-1e-3 -6.444-6e-3 -22.371-7e-3 -28.814z"
     style="fill:url(#_Linear1);fill-opacity:1"
     id="path2" />
  <path
     d="m20.437 10.772l-1.17 0.676 1.619 2.804c-2.959 1.43-2.971 4.765-2.971 4.765h12.17s-0.014-3.335-2.971-4.765l1.619-2.804-1.17-0.676-1.751 3.031c-0.537-0.12-1.129-0.195-1.809-0.195-0.682 0-1.277 0.075-1.815 0.195l-1.751-3.031zm0.861 5.54c0.375 0 0.674 0.302 0.674 0.674s-0.303 0.679-0.674 0.679c-0.374 0-0.679-0.303-0.679-0.679 0-0.372 0.305-0.674 0.679-0.674zm5.409 0c0.375 0 0.674 0.302 0.674 0.674s-0.303 0.679-0.674 0.679c-0.374 0-0.679-0.303-0.679-0.679 0-0.372 0.305-0.674 0.679-0.674zm5.466 3.379c-0.778 0-1.412 0.717-1.412 1.6v6.261c0 0.883 0.634 1.604 1.412 1.604 0.777 0 1.293-0.721 1.293-1.604v-6.261c0-0.885-0.514-1.601-1.293-1.601m-14.258 1e-3v11.494c-1e-3 0.319 0.357 0.676 0.676 0.676h2.028v2.536c0 0.841 0.536 1.521 1.353 1.521 0.811 0 1.379-0.681 1.352-1.521v-2.535h1.352v2.535c0 0.841 0.536 1.521 1.352 1.521 0.812 0 1.353-0.692 1.353-1.521v-2.535h2.028c0.319 0 0.676-0.357 0.676-0.677v-11.493l-12.17-1e-3zm-1.969 0c-0.778 0-1.412 0.717-1.412 1.6v6.261c0 0.883 0.634 1.604 1.412 1.604s1.293-0.721 1.293-1.604v-6.261c0-0.885-0.514-1.601-1.293-1.601"
     style="fill-rule:nonzero;fill:#00222b"
     id="path4" />
  <defs
     id="defs16">
    <linearGradient
       id="_Linear1"
       x2="0.02606295"
       gradientTransform="matrix(-.512981 -33.4825 33.4825 -.512981 409.729 34.5015)"
       gradientUnits="userSpaceOnUse"
       x1="0.99223995"
       y1="-11.474073"
       y2="-11.478393">
      <stop
         style="stop-color:#80ffe6;stop-opacity:1"
         offset="0"
         id="stop6" />
      <stop
         style="stop-color:#00aad4;stop-opacity:1"
         offset="1"
         id="stop8" />
    </linearGradient>
    <linearGradient
       id="_Linear2"
       x2="1"
       gradientTransform="matrix(1.53978e-15,-25.1465,25.1465,1.53978e-15,24,35.9182)"
       gradientUnits="userSpaceOnUse">
      <stop
         style="stop-color:#b6b6b6"
         offset="0"
         id="stop11" />
      <stop
         style="stop-color:#fff"
         offset="1"
         id="stop13" />
    </linearGradient>
  </defs>
</svg>
