<?xml version="1.0" encoding="UTF-8" standalone="no"?>
<svg
   xmlns:dc="http://purl.org/dc/elements/1.1/"
   xmlns:cc="http://creativecommons.org/ns#"
   xmlns:rdf="http://www.w3.org/1999/02/22-rdf-syntax-ns#"
   xmlns:svg="http://www.w3.org/2000/svg"
   xmlns="http://www.w3.org/2000/svg"
   xmlns:sodipodi="http://sodipodi.sourceforge.net/DTD/sodipodi-0.dtd"
   xmlns:inkscape="http://www.inkscape.org/namespaces/inkscape"
   style="clip-rule:evenodd;fill-rule:evenodd;stroke-linejoin:round;stroke-miterlimit:2"
   version="1.1"
   viewBox="0 0 48 48"
   id="svg18"
   sodipodi:docname="applications-education.svg"
   inkscape:version="0.92.4 5da689c313, 2019-01-14">
  <metadata
     id="metadata22">
    <rdf:RDF>
      <cc:Work
         rdf:about="">
        <dc:format>image/svg+xml</dc:format>
        <dc:type
           rdf:resource="http://purl.org/dc/dcmitype/StillImage" />
      </cc:Work>
    </rdf:RDF>
  </metadata>
  <sodipodi:namedview
     pagecolor="#ffffff"
     bordercolor="#666666"
     borderopacity="1"
     objecttolerance="10"
     gridtolerance="10"
     guidetolerance="10"
     inkscape:pageopacity="0"
     inkscape:pageshadow="2"
     inkscape:window-width="1920"
     inkscape:window-height="1050"
     id="namedview20"
     showgrid="false"
     inkscape:zoom="17.093099"
     inkscape:cx="8.0578937"
     inkscape:cy="24"
     inkscape:window-x="0"
     inkscape:window-y="30"
     inkscape:window-maximized="1"
     inkscape:current-layer="svg18" />
  <circle
     cx="24"
     cy="24"
     r="22.764"
     style="fill:url(#_Linear1)"
     id="circle2" />
  <path
     d="m24.366 18.572c0.502-0.838 1.296-2.038 2.3-3.189h1e-3c0.849-0.977 2.513-2.23 2.513-2.23 0.25-0.189 0.223-0.453-0.061-0.585l-2.011-0.94c-0.284-0.133-0.671-0.036-0.859 0.215 0 0-1.487 2.133-3.238 6.675-5.412-2.448-10.557 0.981-10.557 6.944 0 6.228 4.792 15.689 11.272 12.833 6.825 2.954 11.275-6.604 11.275-12.833 0-6.014-4.624-9.54-10.635-6.89zm-1.212-2.017c0.313-0.027 0.59-0.303 0.615-0.616 0 0 0.201-2.435-1.497-4.134-1.702-1.7-4.133-1.497-4.133-1.497-0.313 0.026-0.589 0.303-0.615 0.615 0 0-0.205 2.437 1.495 4.136 1.699 1.698 4.135 1.496 4.135 1.496z"
     style="fill-rule:nonzero;fill:url(#_Linear2)"
     id="path4" />
  <defs
     id="defs16">
    <linearGradient
       id="_Linear1"
       x2="1"
       gradientTransform="matrix(.304583 -46.0185 46.0185 .304583 23.9033 47.2137)"
       gradientUnits="userSpaceOnUse">
      <stop
         style="stop-color:#00aad4;stop-opacity:1"
         offset="0"
         id="stop6" />
      <stop
         style="stop-color:#00ffff;stop-opacity:1"
         offset="1"
         id="stop8" />
    </linearGradient>
    <linearGradient
       id="_Linear2"
       x2="1"
       gradientTransform="matrix(.623039 -52.9363 52.9363 .623039 24.3336 53.5901)"
       gradientUnits="userSpaceOnUse">
      <stop
         style="stop-color:#e3e3e3"
         offset="0"
         id="stop11" />
      <stop
         style="stop-color:#fffcff"
         offset="1"
         id="stop13" />
    </linearGradient>
  </defs>
</svg>
