<?xml version="1.0" encoding="UTF-8" standalone="no"?>
<svg
   xmlns:dc="http://purl.org/dc/elements/1.1/"
   xmlns:cc="http://creativecommons.org/ns#"
   xmlns:rdf="http://www.w3.org/1999/02/22-rdf-syntax-ns#"
   xmlns:svg="http://www.w3.org/2000/svg"
   xmlns="http://www.w3.org/2000/svg"
   xmlns:sodipodi="http://sodipodi.sourceforge.net/DTD/sodipodi-0.dtd"
   xmlns:inkscape="http://www.inkscape.org/namespaces/inkscape"
   style="clip-rule:evenodd;fill-rule:evenodd;stroke-linejoin:round;stroke-miterlimit:2"
   version="1.1"
   viewBox="0 0 48 48"
   id="svg18"
   sodipodi:docname="redhat-accessories.svg"
   inkscape:version="0.92.4 5da689c313, 2019-01-14">
  <metadata
     id="metadata22">
    <rdf:RDF>
      <cc:Work
         rdf:about="">
        <dc:format>image/svg+xml</dc:format>
        <dc:type
           rdf:resource="http://purl.org/dc/dcmitype/StillImage" />
      </cc:Work>
    </rdf:RDF>
  </metadata>
  <sodipodi:namedview
     pagecolor="#ffffff"
     bordercolor="#666666"
     borderopacity="1"
     objecttolerance="10"
     gridtolerance="10"
     guidetolerance="10"
     inkscape:pageopacity="0"
     inkscape:pageshadow="2"
     inkscape:window-width="1920"
     inkscape:window-height="1050"
     id="namedview20"
     showgrid="false"
     inkscape:zoom="17.093099"
     inkscape:cx="8.0578937"
     inkscape:cy="24"
     inkscape:window-x="0"
     inkscape:window-y="30"
     inkscape:window-maximized="1"
     inkscape:current-layer="svg18" />
  <circle
     cx="24"
     cy="24"
     r="22.764"
     style="fill:url(#_Linear1)"
     id="circle2" />
  <path
     d="m34.153 13.975c-2.35-2.349-5.301-3.209-6.24-2.269l-3.782 3.782c-0.574 0.573-1.074 2.494-0.845 4.437l-11.446 11.447c-0.679 0.679-0.129 2.33 1.229 3.687 1.357 1.358 3.008 1.908 3.687 1.23l11.447-11.447c1.944 0.229 3.863-0.271 4.437-0.845l3.782-3.782c0.94-0.94 0.081-3.89-2.269-6.24zm-12.588 11.44c-0.523-0.523-0.352-1.539 0.378-2.27 0.731-0.73 1.747-0.901 2.269-0.378 0.522 0.522 0.353 1.538-0.378 2.269s-1.748 0.9-2.269 0.379zm9.468-8.32c-1.821-1.82-2.278-4.222-2.116-4.384 0.162-0.163 2.469 0.389 4.291 2.21 1.82 1.82 2.366 4.133 2.209 4.29s-2.564-0.295-4.384-2.116z"
     style="fill-rule:nonzero;fill:url(#_Linear2)"
     id="path4" />
  <defs
     id="defs16">
    <linearGradient
       id="_Linear1"
       x2="1"
       gradientTransform="matrix(2.76187e-15,-45.1048,45.1048,2.76187e-15,23.9033,47.2137)"
       gradientUnits="userSpaceOnUse">
      <stop
         style="stop-color:#00ffff;stop-opacity:1"
         offset="0"
         id="stop6" />
      <stop
         style="stop-color:#000080;stop-opacity:1"
         offset="1"
         id="stop8" />
    </linearGradient>
    <linearGradient
       id="_Linear2"
       x2="1"
       gradientTransform="matrix(1.78185e-15,-29.0998,29.0998,1.78185e-15,23.7578,39.0658)"
       gradientUnits="userSpaceOnUse">
      <stop
         style="stop-color:#e3e3e3"
         offset="0"
         id="stop11" />
      <stop
         style="stop-color:#fffcff"
         offset="1"
         id="stop13" />
    </linearGradient>
  </defs>
</svg>
