<?xml version="1.0" encoding="UTF-8" standalone="no"?>
<svg
   xmlns:dc="http://purl.org/dc/elements/1.1/"
   xmlns:cc="http://creativecommons.org/ns#"
   xmlns:rdf="http://www.w3.org/1999/02/22-rdf-syntax-ns#"
   xmlns:svg="http://www.w3.org/2000/svg"
   xmlns="http://www.w3.org/2000/svg"
   xmlns:sodipodi="http://sodipodi.sourceforge.net/DTD/sodipodi-0.dtd"
   xmlns:inkscape="http://www.inkscape.org/namespaces/inkscape"
   style="clip-rule:evenodd;fill-rule:evenodd;stroke-linejoin:round;stroke-miterlimit:2"
   version="1.1"
   viewBox="0 0 48 48"
   id="svg13"
   sodipodi:docname="boinc.svg"
   inkscape:version="0.92.4 5da689c313, 2019-01-14">
  <metadata
     id="metadata17">
    <rdf:RDF>
      <cc:Work
         rdf:about="">
        <dc:format>image/svg+xml</dc:format>
        <dc:type
           rdf:resource="http://purl.org/dc/dcmitype/StillImage" />
      </cc:Work>
    </rdf:RDF>
  </metadata>
  <sodipodi:namedview
     pagecolor="#ffffff"
     bordercolor="#666666"
     borderopacity="1"
     objecttolerance="10"
     gridtolerance="10"
     guidetolerance="10"
     inkscape:pageopacity="0"
     inkscape:pageshadow="2"
     inkscape:window-width="1920"
     inkscape:window-height="1050"
     id="namedview15"
     showgrid="false"
     inkscape:zoom="17.093099"
     inkscape:cx="8.0578937"
     inkscape:cy="24"
     inkscape:window-x="0"
     inkscape:window-y="30"
     inkscape:window-maximized="1"
     inkscape:current-layer="svg13" />
  <circle
     cx="24"
     cy="24"
     r="22.764"
     style="fill:url(#_Linear1);fill-opacity:1"
     id="circle2" />
  <path
     d="m13.111 11.565l-1.546 1.546 5.533 5.538v0.022l1.551 1.546c1.188-1.677 3.138-2.779 5.351-2.779 0.856 0 1.666 0.182 2.413 0.478l1.64-1.637c-1.215-0.646-2.581-1.027-4.053-1.027-2.018 0-3.872 0.698-5.351 1.846m16.239-5.533l-5.538 5.533c-8e-3 -8e-3 -0.011-0.015-0.022-0.022l-1.546 1.547c1.685 1.188 2.775 3.161 2.775 5.377 0 0.862-0.176 1.681-0.478 2.436l1.641 1.64c0.65-1.217 1.027-2.601 1.027-4.076 0-2.018-0.698-3.872-1.846-5.351l5.533-5.534-1.55-1.55m-18.604 8.358c-0.654 1.217-1.027 2.597-1.027 4.077 0 2.017 0.698 3.871 1.846 5.35l-5.533 5.534 1.546 1.55 1.641-1.64-0.022-0.022 5.443-5.444c-1.654-1.192-2.734-3.134-2.734-5.331 0-0.859 0.18-1.682 0.478-2.437l-1.637-1.64m13.07 7.862c-1.188 1.677-3.138 2.775-5.351 2.775-0.881 0-1.715-0.186-2.481-0.5l-1.64 1.641c1.229 0.664 2.626 1.046 4.121 1.046 2.018 0 3.872-0.695 5.351-1.842l5.534 5.533 1.55-1.55-3.258-3.281-2.275-2.253c4e-3 -4e-3 -4e-3 -0.019 0-0.022l-1.551-1.55m-0.98-3.779c0 2.413-1.958 4.371-4.371 4.371-2.414 0-4.372-1.958-4.372-4.371 0-2.414 1.958-4.372 4.372-4.372 2.413 0 4.371 1.958 4.371 4.372"
     style="fill-opacity:.76;fill-rule:nonzero"
     id="path4" />
  <defs
     id="defs11">
    <linearGradient
       id="_Linear1"
       x2="0.013978039"
       gradientTransform="matrix(2.78782e-15,-45.5286,45.5286,2.78782e-15,210.895,46.7643)"
       gradientUnits="userSpaceOnUse"
       x1="0.99826938"
       y1="-4.1451373"
       y2="-4.1348577">
      <stop
         style="stop-color:#80ffb3;stop-opacity:1"
         offset="0"
         id="stop6" />
      <stop
         style="stop-color:#00ffff;stop-opacity:1"
         offset="1"
         id="stop8" />
    </linearGradient>
  </defs>
</svg>
