<?xml version="1.0" encoding="UTF-8" standalone="no"?>
<svg
   xmlns:dc="http://purl.org/dc/elements/1.1/"
   xmlns:cc="http://creativecommons.org/ns#"
   xmlns:rdf="http://www.w3.org/1999/02/22-rdf-syntax-ns#"
   xmlns:svg="http://www.w3.org/2000/svg"
   xmlns="http://www.w3.org/2000/svg"
   xmlns:sodipodi="http://sodipodi.sourceforge.net/DTD/sodipodi-0.dtd"
   xmlns:inkscape="http://www.inkscape.org/namespaces/inkscape"
   style="clip-rule:evenodd;fill-rule:evenodd;stroke-linejoin:round;stroke-miterlimit:2"
   version="1.1"
   viewBox="0 0 48 48"
   id="svg48"
   sodipodi:docname="chrome-gbchcmhmhahfdphkhkmpfmihenigjmpp.svg"
   inkscape:version="0.92.4 5da689c313, 2019-01-14">
  <metadata
     id="metadata52">
    <rdf:RDF>
      <cc:Work
         rdf:about="">
        <dc:format>image/svg+xml</dc:format>
        <dc:type
           rdf:resource="http://purl.org/dc/dcmitype/StillImage" />
      </cc:Work>
    </rdf:RDF>
  </metadata>
  <sodipodi:namedview
     pagecolor="#ffffff"
     bordercolor="#666666"
     borderopacity="1"
     objecttolerance="10"
     gridtolerance="10"
     guidetolerance="10"
     inkscape:pageopacity="0"
     inkscape:pageshadow="2"
     inkscape:window-width="1920"
     inkscape:window-height="1050"
     id="namedview50"
     showgrid="false"
     inkscape:zoom="17.093099"
     inkscape:cx="26.778899"
     inkscape:cy="24"
     inkscape:window-x="0"
     inkscape:window-y="30"
     inkscape:window-maximized="1"
     inkscape:current-layer="svg48" />
  <path
     d="m47.312 10.595c0-0.976-0.388-1.911-1.077-2.601-0.69-0.691-1.627-1.079-2.603-1.079h-39.264c-0.976 0-1.913 0.388-2.603 1.079-0.689 0.69-1.077 1.625-1.077 2.601v27.823c0 0.976 0.388 1.911 1.077 2.602 0.69 0.69 1.627 1.078 2.603 1.078h39.264c0.976 0 1.913-0.388 2.603-1.078 0.689-0.691 1.077-1.626 1.077-2.602v-27.823z"
     style="fill-opacity:.67"
     id="path2" />
  <path
     d="m47.312 9.381c0-1.921-1.557-3.479-3.479-3.479h-39.666c-1.922 0-3.479 1.558-3.479 3.479v28.225c0 1.921 1.557 3.479 3.479 3.479h39.666c1.922 0 3.479-1.558 3.479-3.479v-28.225z"
     style="fill:url(#_Linear1)"
     id="path4" />
  <path
     d="m17.602 32.6c-1.002 1.336-1.602 3.019-1.602 4.825 0 4.432 3.568 7.975 8 7.975l2.8-5.735-5.2-1.065-3.998-6z"
     style="fill:url(#_Linear2)"
     id="path6" />
  <path
     d="m24.4 33.8l2.4 5.84-2.8 5.76c4.432 0 8-3.568 8-8 0-1.299-0.313-2.519-0.857-3.6h-6.743z"
     style="fill:url(#_Linear3)"
     id="path8" />
  <path
     d="m23.998 29.4c-2.626 0-4.941 1.258-6.398 3.201l3.998 5.999 5.2 1.04-2.4-5.84h6.743c-1.313-2.612-4.009-4.4-7.143-4.4z"
     style="fill:url(#_Linear4)"
     id="path10" />
  <path
     d="m24.016 33.778c2.052 0 3.705 1.652 3.705 3.705 0 2.052-1.653 3.705-3.705 3.705-2.053 0-3.705-1.653-3.705-3.705 0-2.053 1.652-3.705 3.705-3.705z"
     style="fill-rule:nonzero;fill:url(#_Linear5)"
     id="path12" />
  <path
     d="m24.016 34.62c1.586 0 2.863 1.277 2.863 2.863s-1.277 2.863-2.863 2.863-2.863-1.277-2.863-2.863 1.277-2.863 2.863-2.863z"
     style="fill-rule:nonzero;fill:url(#_Linear6)"
     id="path14" />
  <defs
     id="defs46">
    <linearGradient
       id="_Linear1"
       x2="1"
       gradientTransform="matrix(41.2109,-30.7295,30.7295,41.2109,4.19851,39.0074)"
       gradientUnits="userSpaceOnUse">
      <stop
         style="stop-color:#790bf8;stop-opacity:1"
         offset="0"
         id="stop16" />
      <stop
         style="stop-color:#00ffff;stop-opacity:1"
         offset="1"
         id="stop18" />
    </linearGradient>
    <linearGradient
       id="_Linear2"
       x2="1"
       gradientTransform="matrix(-.03334 -10.7989 10.7989 -.03334 723.321 42.0246)"
       gradientUnits="userSpaceOnUse">
      <stop
         style="stop-color:#0f9d58"
         offset="0"
         id="stop21" />
      <stop
         style="stop-color:#00d455"
         offset="1"
         id="stop23" />
    </linearGradient>
    <linearGradient
       id="_Linear3"
       x2="1"
       gradientTransform="matrix(7.10295e-16,-11.6,11.6,7.10295e-16,812.96,45.3995)"
       gradientUnits="userSpaceOnUse">
      <stop
         style="stop-color:#ffcd40"
         offset="0"
         id="stop26" />
      <stop
         style="stop-color:#fee145"
         offset="1"
         id="stop28" />
    </linearGradient>
    <linearGradient
       id="_Linear4"
       x2="1"
       gradientTransform="matrix(3.91887e-16,-6.4,6.4,3.91887e-16,399.92,35.7995)"
       gradientUnits="userSpaceOnUse">
      <stop
         style="stop-color:#db4437"
         offset="0"
         id="stop31" />
      <stop
         style="stop-color:#fd5757"
         offset="1"
         id="stop33" />
    </linearGradient>
    <linearGradient
       id="_Linear5"
       x2="1"
       gradientTransform="matrix(4.28508e-16,-6.99807,6.99807,4.28508e-16,496.778,40.776)"
       gradientUnits="userSpaceOnUse">
      <stop
         style="stop-color:#f2f6f7"
         offset="0"
         id="stop36" />
      <stop
         style="stop-color:#ecf0f1"
         offset="1"
         id="stop38" />
    </linearGradient>
    <linearGradient
       id="_Linear6"
       x2="1"
       gradientTransform="matrix(3.50598e-16,-5.7257,5.7257,3.50598e-16,420.464,40.3457)"
       gradientUnits="userSpaceOnUse">
      <stop
         style="stop-color:#2566d3"
         offset="0"
         id="stop41" />
      <stop
         style="stop-color:#429aff"
         offset="1"
         id="stop43" />
    </linearGradient>
  </defs>
</svg>
