<?xml version="1.0" encoding="UTF-8" standalone="no"?>
<svg
   xmlns:dc="http://purl.org/dc/elements/1.1/"
   xmlns:cc="http://creativecommons.org/ns#"
   xmlns:rdf="http://www.w3.org/1999/02/22-rdf-syntax-ns#"
   xmlns:svg="http://www.w3.org/2000/svg"
   xmlns="http://www.w3.org/2000/svg"
   xmlns:sodipodi="http://sodipodi.sourceforge.net/DTD/sodipodi-0.dtd"
   xmlns:inkscape="http://www.inkscape.org/namespaces/inkscape"
   style="clip-rule:evenodd;fill-rule:evenodd;stroke-linejoin:round;stroke-miterlimit:2"
   version="1.1"
   viewBox="0 0 48 48"
   id="svg13"
   sodipodi:docname="cpod.svg"
   inkscape:version="0.92.4 5da689c313, 2019-01-14">
  <metadata
     id="metadata17">
    <rdf:RDF>
      <cc:Work
         rdf:about="">
        <dc:format>image/svg+xml</dc:format>
        <dc:type
           rdf:resource="http://purl.org/dc/dcmitype/StillImage" />
      </cc:Work>
    </rdf:RDF>
  </metadata>
  <sodipodi:namedview
     pagecolor="#ffffff"
     bordercolor="#666666"
     borderopacity="1"
     objecttolerance="10"
     gridtolerance="10"
     guidetolerance="10"
     inkscape:pageopacity="0"
     inkscape:pageshadow="2"
     inkscape:window-width="1920"
     inkscape:window-height="1050"
     id="namedview15"
     showgrid="false"
     inkscape:zoom="17.093099"
     inkscape:cx="8.0578937"
     inkscape:cy="24"
     inkscape:window-x="0"
     inkscape:window-y="30"
     inkscape:window-maximized="1"
     inkscape:current-layer="svg13" />
  <circle
     cx="24"
     cy="24"
     r="22.764"
     style="fill:url(#_Linear1);fill-opacity:1"
     id="circle2" />
  <path
     d="m24 5.355c-10.297 0-18.645 8.348-18.645 18.645s8.348 18.645 18.645 18.645c4.975-3e-3 9.743-1.994 13.243-5.531l-1.575-1.534c-3.085 3.114-7.285 4.867-11.668 4.872-9.086 0-16.452-7.366-16.452-16.452s7.366-16.452 16.452-16.452c4.383 4e-3 8.584 1.756 11.67 4.869l1.568-1.527c-3.497-3.537-8.263-5.53-13.238-5.535zm0 5.484c-7.269 0-13.161 5.892-13.161 13.161s5.892 13.161 13.161 13.161c3.496-2e-3 6.847-1.396 9.314-3.873l-1.57-1.531c-2.054 2.053-4.839 3.208-7.744 3.211-6.057 0-10.968-4.911-10.968-10.968s4.911-10.968 10.968-10.968c2.905 3e-3 5.69 1.158 7.744 3.211l1.57-1.529c-2.467-2.478-5.818-3.872-9.314-3.875zm0 5.484c-4.24 0-7.677 3.437-7.677 7.677s3.437 7.677 7.677 7.677c2.017-2e-3 3.953-0.799 5.387-2.217l-1.568-1.525c-1.023 0.993-2.393 1.549-3.819 1.549-3.029 0-5.484-2.455-5.484-5.484s2.455-5.484 5.484-5.484c1.425 2e-3 2.794 0.559 3.815 1.553l1.575-1.534c-1.436-1.417-3.372-2.212-5.39-2.212z"
     style="fill-rule:nonzero;fill:#d5f6ff"
     id="path4" />
  <defs
     id="defs11">
    <linearGradient
       id="_Linear1"
       x2="0.51254839"
       gradientTransform="matrix(2.78787e-15,-45.5294,45.5294,2.78787e-15,210.898,46.7647)"
       gradientUnits="userSpaceOnUse"
       x1="0.50740856"
       y1="-4.6025739"
       y2="-3.7121015">
      <stop
         style="stop-color:#0088aa;stop-opacity:1"
         offset="0"
         id="stop6" />
      <stop
         style="stop-color:#80e5ff;stop-opacity:1"
         offset="1"
         id="stop8" />
    </linearGradient>
  </defs>
</svg>
