<?xml version="1.0" encoding="UTF-8" standalone="no"?>
<svg
   xmlns:dc="http://purl.org/dc/elements/1.1/"
   xmlns:cc="http://creativecommons.org/ns#"
   xmlns:rdf="http://www.w3.org/1999/02/22-rdf-syntax-ns#"
   xmlns:svg="http://www.w3.org/2000/svg"
   xmlns="http://www.w3.org/2000/svg"
   xmlns:sodipodi="http://sodipodi.sourceforge.net/DTD/sodipodi-0.dtd"
   xmlns:inkscape="http://www.inkscape.org/namespaces/inkscape"
   style="clip-rule:evenodd;fill-rule:evenodd;stroke-linejoin:round;stroke-miterlimit:2"
   version="1.1"
   viewBox="0 0 48 48"
   id="svg19"
   sodipodi:docname="show-background.svg"
   inkscape:version="0.92.4 5da689c313, 2019-01-14">
  <metadata
     id="metadata23">
    <rdf:RDF>
      <cc:Work
         rdf:about="">
        <dc:format>image/svg+xml</dc:format>
        <dc:type
           rdf:resource="http://purl.org/dc/dcmitype/StillImage" />
      </cc:Work>
    </rdf:RDF>
  </metadata>
  <sodipodi:namedview
     pagecolor="#ffffff"
     bordercolor="#666666"
     borderopacity="1"
     objecttolerance="10"
     gridtolerance="10"
     guidetolerance="10"
     inkscape:pageopacity="0"
     inkscape:pageshadow="2"
     inkscape:window-width="1920"
     inkscape:window-height="1050"
     id="namedview21"
     showgrid="false"
     inkscape:zoom="16.440104"
     inkscape:cx="29.322351"
     inkscape:cy="24"
     inkscape:window-x="0"
     inkscape:window-y="30"
     inkscape:window-maximized="1"
     inkscape:current-layer="svg19" />
  <path
     d="m47.312 10.595c0-0.976-0.388-1.911-1.077-2.601-0.69-0.691-1.627-1.079-2.603-1.079h-39.264c-0.976 0-1.913 0.388-2.603 1.079-0.689 0.69-1.077 1.625-1.077 2.601v27.823c0 0.976 0.388 1.911 1.077 2.602 0.69 0.69 1.627 1.078 2.603 1.078h39.264c0.976 0 1.913-0.388 2.603-1.078 0.689-0.691 1.077-1.626 1.077-2.602v-27.823z"
     style="fill-opacity:.67"
     id="path2" />
  <path
     d="m47.312 9.381c0-1.921-1.557-3.479-3.479-3.479h-39.666c-1.922 0-3.479 1.558-3.479 3.479v28.225c0 1.921 1.557 3.479 3.479 3.479h39.666c1.922 0 3.479-1.558 3.479-3.479v-28.225z"
     style="fill:url(#_Linear1);fill-opacity:1"
     id="path4" />
  <path
     d="m22.407 38.581l1.24-1.224-1.215-1.231 0.518-0.511 1.215 1.23 1.23-1.215 0.518 0.524-1.231 1.215 1.215 1.231-0.518 0.511-1.215-1.23-1.239 1.224-0.518-0.524z"
     style="fill-rule:nonzero;fill:#fff"
     id="path6" />
  <path
     d="m19.846 35.592c0.249 0 0.482 0.046 0.699 0.139 0.217 0.092 0.407 0.218 0.571 0.377s0.293 0.346 0.387 0.56c0.095 0.215 0.142 0.447 0.142 0.696s-0.047 0.482-0.142 0.699c-0.094 0.217-0.223 0.405-0.387 0.564-0.164 0.16-0.356 0.285-0.575 0.378-0.219 0.092-0.453 0.138-0.702 0.138-0.25 0-0.483-0.046-0.7-0.138-0.216-0.093-0.407-0.218-0.571-0.378-0.163-0.159-0.291-0.347-0.384-0.564-0.092-0.217-0.138-0.45-0.138-0.699s0.046-0.481 0.138-0.696c0.093-0.214 0.221-0.401 0.384-0.56 0.164-0.159 0.356-0.285 0.575-0.377 0.219-0.093 0.453-0.139 0.703-0.139zm0 0.665c-0.153 0-0.295 0.028-0.426 0.086-0.132 0.058-0.244 0.136-0.336 0.235-0.092 0.1-0.164 0.217-0.215 0.354-0.05 0.136-0.076 0.282-0.076 0.439s0.026 0.302 0.076 0.436c0.051 0.134 0.124 0.251 0.219 0.35 0.094 0.099 0.205 0.176 0.332 0.232 0.127 0.055 0.266 0.083 0.419 0.083 0.152 0 0.293-0.028 0.422-0.083 0.129-0.056 0.241-0.133 0.336-0.232 0.094-0.099 0.168-0.216 0.221-0.35s0.08-0.279 0.08-0.436-0.027-0.303-0.08-0.439c-0.053-0.137-0.127-0.254-0.221-0.354-0.095-0.099-0.207-0.177-0.336-0.235s-0.268-0.086-0.415-0.086z"
     style="fill-rule:nonzero;fill:#fff"
     id="path8" />
  <path
     d="m27.659 38.879h-0.124c-0.117 0-0.211-0.095-0.211-0.212v-0.356c-0.502-0.127-0.646-0.425-0.646-1.038 0-0.904 0.734-1.638 1.638-1.638s1.638 0.734 1.638 1.638c0 0.604-0.153 0.901-0.645 1.032v0.361c0 0.117-0.095 0.212-0.212 0.212h-0.123c-0.117 0-0.212-0.095-0.212-0.212v-0.284c-0.055 4e-3 -0.112 6e-3 -0.172 8e-3v0.277c0 0.116-0.095 0.211-0.212 0.211h-0.123c-0.117 0-0.212-0.095-0.212-0.211v-0.276c-0.06-2e-3 -0.118-4e-3 -0.173-7e-3v0.283c0 0.117-0.095 0.212-0.211 0.212zm-0.022-2.272c0.278 0 0.503 0.218 0.503 0.488 0 0.269-0.225 0.487-0.503 0.487s-0.503-0.218-0.503-0.487c0-0.27 0.225-0.488 0.503-0.488zm1.351 0c0.278 0 0.503 0.218 0.503 0.488 0 0.269-0.225 0.487-0.503 0.487s-0.503-0.218-0.503-0.487c0-0.27 0.225-0.488 0.503-0.488z"
     style="fill:#fff"
     id="path10" />
  <defs
     id="defs17">
    <linearGradient
       id="_Linear1"
       x2="0.98125774"
       gradientTransform="matrix(45.8095,-6.49989,6.49989,45.8095,46.3456,344.165)"
       gradientUnits="userSpaceOnUse"
       x1="-0.026851945"
       y1="-6.6508656"
       y2="-7.1863422">
      <stop
         style="stop-color:#8bf6ff;stop-opacity:1"
         offset="0"
         id="stop12" />
      <stop
         style="stop-color:#790bf8;stop-opacity:1"
         offset="1"
         id="stop14" />
    </linearGradient>
  </defs>
</svg>
