<?xml version="1.0" encoding="UTF-8" standalone="no"?>
<svg
   xmlns:dc="http://purl.org/dc/elements/1.1/"
   xmlns:cc="http://creativecommons.org/ns#"
   xmlns:rdf="http://www.w3.org/1999/02/22-rdf-syntax-ns#"
   xmlns:svg="http://www.w3.org/2000/svg"
   xmlns="http://www.w3.org/2000/svg"
   xmlns:sodipodi="http://sodipodi.sourceforge.net/DTD/sodipodi-0.dtd"
   xmlns:inkscape="http://www.inkscape.org/namespaces/inkscape"
   style="clip-rule:evenodd;fill-rule:evenodd;stroke-linejoin:round;stroke-miterlimit:2"
   version="1.1"
   viewBox="0 0 48 48"
   id="svg13"
   sodipodi:docname="org.kde.elisa.svg"
   inkscape:version="0.92.4 5da689c313, 2019-01-14">
  <metadata
     id="metadata17">
    <rdf:RDF>
      <cc:Work
         rdf:about="">
        <dc:format>image/svg+xml</dc:format>
        <dc:type
           rdf:resource="http://purl.org/dc/dcmitype/StillImage" />
      </cc:Work>
    </rdf:RDF>
  </metadata>
  <sodipodi:namedview
     pagecolor="#ffffff"
     bordercolor="#666666"
     borderopacity="1"
     objecttolerance="10"
     gridtolerance="10"
     guidetolerance="10"
     inkscape:pageopacity="0"
     inkscape:pageshadow="2"
     inkscape:window-width="1920"
     inkscape:window-height="1050"
     id="namedview15"
     showgrid="false"
     inkscape:zoom="17.093099"
     inkscape:cx="8.0578937"
     inkscape:cy="24"
     inkscape:window-x="0"
     inkscape:window-y="30"
     inkscape:window-maximized="1"
     inkscape:current-layer="svg13" />
  <circle
     cx="24"
     cy="24"
     r="22.764"
     style="fill:url(#_Linear1);fill-opacity:1"
     id="circle2" />
  <path
     d="m19.701 19.399v14.296c0.014 0.568-0.142 1.13-0.456 1.613-0.408 0.629-1.05 1.069-1.785 1.226-0.569 0.121-1.169 0.248-1.739 0.369-0.733 0.156-1.5 0.014-2.129-0.394-0.629-0.41-1.069-1.052-1.226-1.785-0.023-0.11-0.047-0.22-0.069-0.328-0.156-0.735-0.014-1.501 0.394-2.129 0.41-0.63 1.051-1.071 1.785-1.227 0.57-0.12 1.17-0.248 1.739-0.369 0.079-0.017 0.157-0.03 0.236-0.04v-0.01s0.423-0.089 0.861-0.183c0.552-0.117 0.947-0.604 0.947-1.168v-14.539c0-0.567 0.399-1.057 0.955-1.17 2.551-0.52 9.513-1.942 12.28-2.506 0.284-0.058 0.579 0.014 0.803 0.197 0.225 0.184 0.356 0.457 0.356 0.746l0.046 19.048c8e-3 0.555-0.148 1.106-0.456 1.579-0.409 0.629-1.05 1.07-1.785 1.226-0.569 0.121-1.169 0.248-1.739 0.369-0.734 0.156-1.5 0.014-2.129-0.394-0.63-0.41-1.07-1.052-1.226-1.785-0.023-0.11-0.047-0.219-0.07-0.328-0.155-0.734-0.013-1.5 0.395-2.129 0.41-0.629 1.052-1.071 1.785-1.226 0.57-0.121 1.17-0.249 1.739-0.37 0.09-0.018 0.182-0.034 0.273-0.044l0.802-0.161c0.557-0.113 0.958-0.604 0.958-1.171v-9.576l-11.545 2.363zm11.545-3.537v-1.053c0-0.244-0.109-0.474-0.298-0.629-0.188-0.154-0.436-0.215-0.674-0.167-2.181 0.437-7.444 1.494-9.614 1.93-0.558 0.111-0.959 0.602-0.959 1.171v1.112l11.545-2.364z"
     style="fill-opacity:.77;fill:#fff"
     id="path4" />
  <defs
     id="defs11">
    <linearGradient
       id="_Linear1"
       x2="0.93652397"
       gradientTransform="matrix(.715061 49.5008 -49.5008 .715061 -53.7372 .642361)"
       gradientUnits="userSpaceOnUse"
       x1="0.040893205"
       y1="-1.5636461"
       y2="-1.5483446">
      <stop
         style="stop-color:#8d3aff"
         offset="0"
         id="stop6" />
      <stop
         style="stop-color:#00ffff;stop-opacity:1"
         offset="1"
         id="stop8" />
    </linearGradient>
  </defs>
</svg>
