<?xml version="1.0" encoding="UTF-8" standalone="no"?>
<svg
   xmlns:dc="http://purl.org/dc/elements/1.1/"
   xmlns:cc="http://creativecommons.org/ns#"
   xmlns:rdf="http://www.w3.org/1999/02/22-rdf-syntax-ns#"
   xmlns:svg="http://www.w3.org/2000/svg"
   xmlns="http://www.w3.org/2000/svg"
   xmlns:sodipodi="http://sodipodi.sourceforge.net/DTD/sodipodi-0.dtd"
   xmlns:inkscape="http://www.inkscape.org/namespaces/inkscape"
   style="clip-rule:evenodd;fill-rule:evenodd;stroke-linejoin:round;stroke-miterlimit:2"
   version="1.1"
   viewBox="0 0 48 48"
   id="svg18"
   sodipodi:docname="tunesview.svg"
   inkscape:version="0.92.4 5da689c313, 2019-01-14">
  <metadata
     id="metadata22">
    <rdf:RDF>
      <cc:Work
         rdf:about="">
        <dc:format>image/svg+xml</dc:format>
        <dc:type
           rdf:resource="http://purl.org/dc/dcmitype/StillImage" />
      </cc:Work>
    </rdf:RDF>
  </metadata>
  <sodipodi:namedview
     pagecolor="#ffffff"
     bordercolor="#666666"
     borderopacity="1"
     objecttolerance="10"
     gridtolerance="10"
     guidetolerance="10"
     inkscape:pageopacity="0"
     inkscape:pageshadow="2"
     inkscape:window-width="1920"
     inkscape:window-height="1050"
     id="namedview20"
     showgrid="false"
     inkscape:zoom="12.912219"
     inkscape:cx="14.731899"
     inkscape:cy="24"
     inkscape:window-x="0"
     inkscape:window-y="30"
     inkscape:window-maximized="1"
     inkscape:current-layer="svg18" />
  <circle
     cx="24"
     cy="24"
     r="22.764"
     style="fill:url(#_Linear1);fill-opacity:1"
     id="circle2" />
  <path
     d="m18.308 19.067v15.329c0.015 0.608-0.152 1.212-0.488 1.729-0.439 0.675-1.127 1.148-1.915 1.315-0.61 0.129-1.254 0.266-1.864 0.396-0.788 0.167-1.608 0.015-2.283-0.423-0.675-0.439-1.147-1.128-1.315-1.914-0.025-0.117-0.05-0.235-0.074-0.352-0.168-0.787-0.015-1.608 0.423-2.282 0.438-0.675 1.127-1.149 1.914-1.316 0.61-0.129 1.254-0.266 1.865-0.396 0.083-0.018 0.167-0.032 0.252-0.042v-0.011s0.454-0.097 0.923-0.196c0.592-0.126 1.015-0.648 1.015-1.253v-15.59c0-0.609 0.428-1.134 1.024-1.255 2.736-0.558 10.202-2.082 13.169-2.687 0.305-0.063 0.62 0.016 0.861 0.211 0.241 0.197 0.381 0.491 0.382 0.801l0.05 20.424c8e-3 0.596-0.161 1.186-0.49 1.693-0.438 0.675-1.126 1.148-1.914 1.316-0.61 0.129-1.254 0.265-1.864 0.395-0.788 0.167-1.608 0.015-2.283-0.423-0.675-0.439-1.149-1.127-1.315-1.914-0.025-0.118-0.05-0.235-0.075-0.351-0.167-0.788-0.014-1.608 0.423-2.283 0.439-0.675 1.127-1.148 1.915-1.315 0.61-0.13 1.254-0.267 1.864-0.396 0.098-0.021 0.195-0.037 0.293-0.048l0.859-0.173c0.598-0.121 1.028-0.647 1.028-1.256v-10.268l-12.38 2.535zm12.38-3.793v-1.13c0-0.261-0.117-0.508-0.319-0.673-0.202-0.166-0.467-0.232-0.724-0.18-2.339 0.469-7.981 1.601-10.309 2.069-0.598 0.12-1.028 0.646-1.028 1.256v1.193l12.38-2.535z"
     style="fill:#dbdbe3"
     id="path4" />
  <defs
     id="defs16">
    <linearGradient
       id="_Linear1"
       x2="0.97227049"
       gradientTransform="matrix(2.9145e-15 47.5975 -47.5975 2.9145e-15 -72.2296 .201273)"
       gradientUnits="userSpaceOnUse"
       x1="0.028304681"
       y1="-1.9944077"
       y2="-2.0017824">
      <stop
         style="stop-color:#2d1650;stop-opacity:1"
         offset="0"
         id="stop6" />
      <stop
         style="stop-color:#00ffff;stop-opacity:1"
         offset="1"
         id="stop8" />
    </linearGradient>
    <linearGradient
       id="_Linear2"
       x2="32.247271"
       gradientTransform="matrix(-.0783417 -23.825 23.825 -.0783417 968.216 31.7862)"
       gradientUnits="userSpaceOnUse"
       x1="10.302396"
       y1="23.999959"
       y2="23.999959">
      <stop
         style="stop-color:#bcddff"
         offset="0"
         id="stop11" />
      <stop
         style="stop-color:#e4f7ff"
         offset="1"
         id="stop13" />
    </linearGradient>
  </defs>
</svg>
