<?xml version="1.0" encoding="UTF-8" standalone="no"?>
<svg
   xmlns:dc="http://purl.org/dc/elements/1.1/"
   xmlns:cc="http://creativecommons.org/ns#"
   xmlns:rdf="http://www.w3.org/1999/02/22-rdf-syntax-ns#"
   xmlns:svg="http://www.w3.org/2000/svg"
   xmlns="http://www.w3.org/2000/svg"
   xmlns:sodipodi="http://sodipodi.sourceforge.net/DTD/sodipodi-0.dtd"
   xmlns:inkscape="http://www.inkscape.org/namespaces/inkscape"
   style="clip-rule:evenodd;fill-rule:evenodd;stroke-linejoin:round;stroke-miterlimit:2"
   version="1.1"
   viewBox="0 0 48 48"
   id="svg15"
   sodipodi:docname="fr.free.Homebank.svg"
   inkscape:version="0.92.4 5da689c313, 2019-01-14">
  <metadata
     id="metadata19">
    <rdf:RDF>
      <cc:Work
         rdf:about="">
        <dc:format>image/svg+xml</dc:format>
        <dc:type
           rdf:resource="http://purl.org/dc/dcmitype/StillImage" />
      </cc:Work>
    </rdf:RDF>
  </metadata>
  <sodipodi:namedview
     pagecolor="#ffffff"
     bordercolor="#666666"
     borderopacity="1"
     objecttolerance="10"
     gridtolerance="10"
     guidetolerance="10"
     inkscape:pageopacity="0"
     inkscape:pageshadow="2"
     inkscape:window-width="1920"
     inkscape:window-height="1050"
     id="namedview17"
     showgrid="false"
     inkscape:zoom="17.093099"
     inkscape:cx="8.0578937"
     inkscape:cy="24"
     inkscape:window-x="0"
     inkscape:window-y="30"
     inkscape:window-maximized="1"
     inkscape:current-layer="svg15" />
  <ellipse
     cx="23.984"
     cy="24"
     rx="22.749"
     ry="22.764"
     style="fill:url(#_Linear1)"
     id="ellipse2" />
  <path
     d="m34.419 18.293c-1.088-1.002-2.349-1.783-3.702-2.352-0.176 0.266-0.377 0.516-0.606 0.745-0.303 0.302-0.643 0.562-1.013 0.769 0.392 0.13 0.769 0.278 1.131 0.448 0.367 0.173 0.509 0.624 0.305 0.977-0.179 0.312-0.571 0.435-0.896 0.281-2.466-1.165-5.219-0.946-6.427-0.763-0.356 0.052-0.695-0.173-0.779-0.523v-3e-3c-0.096-0.395 0.17-0.788 0.572-0.85 0.219-0.034 0.485-0.068 0.782-0.095-0.09-0.078-0.177-0.158-0.26-0.241-0.426-0.427-0.763-0.924-0.998-1.481-0.025-0.058-0.05-0.12-0.071-0.179-0.368 0.062-0.733 0.139-1.088 0.229-2.07-1.205-4.555-1.208-6.032-1.063-0.643 0.062-1.023 0.748-0.741 1.329l1.251 2.564c-1.391 1.212-2.441 2.695-3.031 4.348l-1.527-6e-3c-0.513-3e-3 -0.93 0.414-0.93 0.927v3.424c0 0.346 0.192 0.661 0.497 0.822l1.981 1.032c0.828 2.284 2.543 4.243 4.805 5.593v3.032c0 0.596 0.486 1.081 1.082 1.081h2.775c0.429 0 0.819-0.256 0.992-0.649l0.695-1.597c0.6 0.074 1.208 0.111 1.833 0.111 0.982 0 1.937-0.093 2.855-0.269v1.323c0 0.596 0.485 1.081 1.081 1.081h2.763c0.399 0 0.766-0.219 0.955-0.571 1.471-2.763 3.068-5.535 4.249-8.427 0.596-1.465 0.812-3.019 0.683-4.537-0.21-2.447-1.323-4.799-3.186-6.51zm-16.6 5.75c-0.77 0-1.391-0.621-1.391-1.39 0-0.77 0.621-1.391 1.391-1.391 0.769 0 1.39 0.621 1.39 1.391 0 0.769-0.621 1.39-1.39 1.39z"
     style="fill-opacity:.8;fill-rule:nonzero"
     id="path4" />
  <path
     d="m25.448 16.862c0.423 0.167 0.887 0.259 1.372 0.259 0.238 0 0.47-0.021 0.692-0.065 0.946-0.176 1.765-0.71 2.312-1.455 0.454-0.618 0.723-1.381 0.723-2.209 3e-3 -2.062-1.669-3.73-3.727-3.73-2.061 0-3.73 1.668-3.73 3.73 0 0.534 0.112 1.041 0.315 1.501 0.393 0.897 1.132 1.607 2.043 1.969z"
     style="fill-opacity:.8;fill-rule:nonzero"
     id="path6" />
  <defs
     id="defs13">
    <linearGradient
       id="_Linear1"
       x2="1"
       gradientTransform="matrix(3.0299e-15,-49.5142,49.482,3.03187e-15,23.9597,48.5993)"
       gradientUnits="userSpaceOnUse">
      <stop
         style="stop-color:#3771c8;stop-opacity:1"
         offset="0"
         id="stop8" />
      <stop
         style="stop-color:#aaeeff;stop-opacity:1"
         offset="1"
         id="stop10" />
    </linearGradient>
  </defs>
</svg>
