<?xml version="1.0" encoding="UTF-8" standalone="no"?>
<svg
   xmlns:dc="http://purl.org/dc/elements/1.1/"
   xmlns:cc="http://creativecommons.org/ns#"
   xmlns:rdf="http://www.w3.org/1999/02/22-rdf-syntax-ns#"
   xmlns:svg="http://www.w3.org/2000/svg"
   xmlns="http://www.w3.org/2000/svg"
   xmlns:sodipodi="http://sodipodi.sourceforge.net/DTD/sodipodi-0.dtd"
   xmlns:inkscape="http://www.inkscape.org/namespaces/inkscape"
   style="isolation:isolate"
   width="256"
   height="256"
   viewBox="0 0 256 256"
   version="1.1"
   id="svg52"
   sodipodi:docname="netflix.svg"
   inkscape:version="0.92.4 5da689c313, 2019-01-14">
  <metadata
     id="metadata56">
    <rdf:RDF>
      <cc:Work
         rdf:about="">
        <dc:format>image/svg+xml</dc:format>
        <dc:type
           rdf:resource="http://purl.org/dc/dcmitype/StillImage" />
      </cc:Work>
    </rdf:RDF>
  </metadata>
  <sodipodi:namedview
     pagecolor="#ffffff"
     bordercolor="#666666"
     borderopacity="1"
     objecttolerance="10"
     gridtolerance="10"
     guidetolerance="10"
     inkscape:pageopacity="0"
     inkscape:pageshadow="2"
     inkscape:window-width="1920"
     inkscape:window-height="1050"
     id="namedview54"
     showgrid="false"
     inkscape:zoom="0.921875"
     inkscape:cx="-273.8983"
     inkscape:cy="128"
     inkscape:window-x="0"
     inkscape:window-y="30"
     inkscape:window-maximized="1"
     inkscape:current-layer="svg52" />
  <defs
     id="defs13">
    <filter
       id="yeLKbII8IZy6rvz98ICCoYOWyKLzFyRs"
       width="400%"
       height="400%"
       x="-200%"
       y="-200%"
       color-interpolation-filters="sRGB"
       filterUnits="objectBoundingBox">
      <feGaussianBlur
         in="SourceGraphic"
         stdDeviation="4.294"
         id="feGaussianBlur2" />
      <feOffset
         dx="0"
         dy="4"
         result="pf_100_offsetBlur"
         id="feOffset4" />
      <feFlood
         flood-opacity=".4"
         id="feFlood6" />
      <feComposite
         in2="pf_100_offsetBlur"
         operator="in"
         result="pf_100_dropShadow"
         id="feComposite8" />
      <feBlend
         in="SourceGraphic"
         in2="pf_100_dropShadow"
         mode="normal"
         id="feBlend10" />
    </filter>
  </defs>
  <g
     filter="url(#yeLKbII8IZy6rvz98ICCoYOWyKLzFyRs)"
     id="g22">
    <linearGradient
       id="_lgradient_35"
       x1="0"
       x2="0"
       y1="0"
       y2="1"
       gradientTransform="matrix(244.648,0,0,228.338,5.43,11.452)"
       gradientUnits="userSpaceOnUse">
      <stop
         offset="0%"
         style="stop-color:#545e63"
         id="stop15" />
      <stop
         offset="100%"
         style="stop-color:#343b40"
         id="stop17" />
    </linearGradient>
    <path
       fill="url(#_lgradient_35)"
       d="M 165.439 11.452 C 239.495 11.452 250.078 22.009 250.078 95.995 L 250.078 155.246 C 250.078 229.233 239.495 239.79 165.439 239.79 L 90.069 239.79 C 16.014 239.79 5.43 229.233 5.43 155.246 L 5.43 95.995 C 5.43 22.009 16.014 11.452 90.069 11.452 L 165.439 11.452 Z"
       id="path20" />
  </g>
  <g
     opacity=".4"
     id="g35">
    <linearGradient
       id="_lgradient_36"
       x1=".517"
       x2=".517"
       y1="0"
       y2="1"
       gradientTransform="matrix(244.65,0,0,228.34,5.68,11.95)"
       gradientUnits="userSpaceOnUse">
      <stop
         offset="0%"
         style="stop-color:#ffffff"
         id="stop24" />
      <stop
         offset="12.5%"
         stop-opacity=".098"
         style="stop-color:#ffffff"
         id="stop26" />
      <stop
         offset="92.5%"
         stop-opacity=".098"
         style="stop-color:#000000"
         id="stop28" />
      <stop
         offset="100%"
         stop-opacity=".498"
         style="stop-color:#000000"
         id="stop30" />
    </linearGradient>
    <path
       fill="url(#_lgradient_36)"
       fill-rule="evenodd"
       d="M 165.068 11.951 C 169.396 11.941 173.724 11.991 178.052 12.089 C 181.927 12.167 185.803 12.315 189.678 12.541 C 193.131 12.737 196.583 13.022 200.026 13.395 C 203.085 13.73 206.144 14.181 209.174 14.741 C 211.889 15.243 214.574 15.881 217.22 16.657 C 219.62 17.355 221.971 18.219 224.243 19.241 C 226.358 20.184 228.384 21.304 230.302 22.591 C 232.142 23.829 233.863 25.244 235.437 26.806 C 237.001 28.378 238.417 30.088 239.656 31.925 C 240.945 33.841 242.066 35.865 243.02 37.967 C 244.043 40.247 244.909 42.585 245.617 44.972 C 246.394 47.615 247.034 50.297 247.535 53.009 C 248.096 56.035 248.548 59.081 248.883 62.136 C 249.257 65.575 249.542 69.014 249.739 72.462 C 249.965 76.323 250.112 80.194 250.201 84.055 C 250.289 88.378 250.339 92.701 250.329 97.014 L 250.329 155.226 C 250.339 159.549 250.289 163.862 250.201 168.185 C 250.112 172.056 249.965 175.917 249.739 179.778 C 249.542 183.226 249.257 186.675 248.883 190.104 C 248.548 193.159 248.096 196.215 247.535 199.241 C 247.034 201.943 246.394 204.625 245.617 207.268 C 244.909 209.655 244.043 212.003 243.02 214.273 C 242.066 216.385 240.945 218.399 239.656 220.315 C 238.417 222.152 237.001 223.872 235.437 225.434 C 233.863 226.996 232.142 228.411 230.302 229.649 C 228.384 230.936 226.358 232.056 224.243 232.999 C 221.971 234.021 219.62 234.885 217.22 235.593 C 214.574 236.369 211.889 237.007 209.174 237.499 C 206.144 238.068 203.085 238.51 200.026 238.845 C 196.583 239.218 193.131 239.503 189.678 239.699 C 185.803 239.925 181.927 240.073 178.052 240.161 C 173.724 240.249 169.396 240.299 165.068 240.289 L 90.942 240.289 C 86.614 240.299 82.286 240.249 77.958 240.161 C 74.083 240.073 70.207 239.925 66.332 239.699 C 62.879 239.503 59.427 239.218 55.984 238.845 C 52.925 238.51 49.866 238.068 46.836 237.499 C 44.121 237.007 41.436 236.369 38.79 235.593 C 36.39 234.885 34.039 234.021 31.767 232.999 C 29.652 232.056 27.626 230.936 25.708 229.649 C 23.868 228.411 22.147 226.996 20.573 225.434 C 19.009 223.872 17.593 222.152 16.354 220.315 C 15.065 218.399 13.944 216.385 12.99 214.273 C 11.967 212.003 11.101 209.655 10.393 207.268 C 9.616 204.625 8.976 201.943 8.475 199.241 C 7.914 196.215 7.462 193.159 7.127 190.104 C 6.753 186.675 6.468 183.226 6.271 179.778 C 6.045 175.917 5.898 172.056 5.809 168.185 C 5.721 163.862 5.671 159.549 5.681 155.226 L 5.681 97.014 C 5.671 92.701 5.721 88.378 5.809 84.055 C 5.898 80.194 6.045 76.323 6.271 72.462 C 6.468 69.014 6.753 65.575 7.127 62.136 C 7.462 59.081 7.914 56.035 8.475 53.009 C 8.976 50.297 9.616 47.615 10.393 44.972 C 11.101 42.585 11.967 40.247 12.99 37.967 C 13.944 35.865 15.065 33.841 16.354 31.925 C 17.593 30.088 19.009 28.378 20.573 26.806 C 22.147 25.244 23.868 23.829 25.708 22.591 C 27.626 21.304 29.652 20.184 31.767 19.241 C 34.039 18.219 36.39 17.355 38.79 16.657 C 41.436 15.881 44.121 15.243 46.836 14.741 C 49.866 14.181 52.925 13.73 55.984 13.395 C 59.427 13.022 62.879 12.737 66.332 12.541 C 70.207 12.315 74.083 12.167 77.958 12.089 C 82.286 11.991 86.614 11.941 90.942 11.951 L 165.068 11.951 Z M 165.078 15.96 C 169.376 15.95 173.675 15.999 177.973 16.087 C 181.8 16.176 185.626 16.323 189.452 16.539 C 192.836 16.736 196.219 17.011 199.583 17.384 C 202.554 17.699 205.515 18.131 208.446 18.681 C 211.023 19.153 213.58 19.762 216.099 20.499 C 218.322 21.147 220.495 21.953 222.6 22.896 C 224.509 23.751 226.338 24.763 228.069 25.922 C 229.692 27.013 231.207 28.26 232.594 29.646 C 233.981 31.031 235.23 32.544 236.332 34.165 C 237.492 35.894 238.506 37.712 239.361 39.608 C 240.306 41.72 241.112 43.892 241.761 46.102 C 242.509 48.617 243.109 51.162 243.591 53.736 C 244.132 56.664 244.565 59.611 244.889 62.578 C 245.263 65.938 245.539 69.308 245.735 72.688 C 245.952 76.51 246.109 80.322 246.188 84.144 C 246.276 88.437 246.325 92.721 246.325 97.014 C 246.325 97.014 246.325 97.014 246.325 97.014 L 246.325 155.226 C 246.325 155.226 246.325 155.226 246.325 155.226 C 246.325 159.519 246.276 163.803 246.188 168.096 C 246.109 171.918 245.952 175.74 245.735 179.552 C 245.539 182.932 245.263 186.302 244.889 189.672 C 244.565 192.629 244.132 195.576 243.591 198.504 C 243.109 201.078 242.509 203.623 241.761 206.138 C 241.112 208.358 240.306 210.52 239.361 212.632 C 238.506 214.528 237.492 216.356 236.332 218.075 C 235.23 219.706 233.981 221.219 232.594 222.604 C 231.207 223.98 229.692 225.227 228.069 226.318 C 226.338 227.477 224.509 228.489 222.6 229.344 C 220.495 230.297 218.322 231.093 216.099 231.741 C 213.58 232.478 211.023 233.087 208.446 233.559 C 205.515 234.109 202.554 234.541 199.583 234.865 C 196.219 235.229 192.836 235.514 189.452 235.701 C 185.626 235.917 181.8 236.074 177.973 236.153 C 173.675 236.251 169.376 236.29 165.078 236.29 C 165.078 236.29 165.078 236.29 165.068 236.29 L 90.942 236.29 C 90.932 236.29 90.932 236.29 90.932 236.29 C 86.634 236.29 82.335 236.251 78.037 236.153 C 74.21 236.074 70.384 235.917 66.558 235.701 C 63.174 235.514 59.791 235.229 56.427 234.865 C 53.456 234.541 50.495 234.109 47.564 233.559 C 44.987 233.087 42.43 232.478 39.911 231.741 C 37.688 231.093 35.515 230.297 33.41 229.344 C 31.501 228.489 29.672 227.477 27.941 226.318 C 26.318 225.227 24.803 223.98 23.416 222.604 C 22.029 221.219 20.78 219.706 19.678 218.075 C 18.518 216.356 17.504 214.528 16.649 212.632 C 15.704 210.52 14.898 208.358 14.249 206.138 C 13.501 203.623 12.901 201.078 12.419 198.504 C 11.878 195.576 11.445 192.629 11.121 189.672 C 10.747 186.302 10.472 182.932 10.275 179.552 C 10.058 175.74 9.901 171.918 9.822 168.096 C 9.734 163.803 9.685 159.519 9.685 155.226 C 9.685 155.226 9.685 155.226 9.685 155.226 L 9.685 97.014 C 9.685 97.014 9.685 97.014 9.685 97.014 C 9.685 92.721 9.734 88.437 9.822 84.144 C 9.901 80.322 10.058 76.51 10.275 72.688 C 10.472 69.308 10.747 65.938 11.121 62.578 C 11.445 59.611 11.878 56.664 12.419 53.736 C 12.901 51.162 13.501 48.617 14.249 46.102 C 14.898 43.892 15.704 41.72 16.649 39.608 C 17.504 37.712 18.518 35.894 19.678 34.165 C 20.78 32.544 22.029 31.031 23.416 29.646 C 24.803 28.26 26.318 27.013 27.941 25.922 C 29.672 24.763 31.501 23.751 33.41 22.896 C 35.515 21.953 37.688 21.147 39.911 20.499 C 42.43 19.762 44.987 19.153 47.564 18.681 C 50.495 18.131 53.456 17.699 56.427 17.384 C 59.791 17.011 63.174 16.736 66.558 16.539 C 70.384 16.323 74.21 16.176 78.037 16.087 C 82.335 15.999 86.634 15.95 90.932 15.96 C 90.932 15.96 90.932 15.96 90.942 15.96 L 165.068 15.96 C 165.078 15.96 165.078 15.96 165.078 15.96 Z"
       id="path33" />
  </g>
  <path
     inkscape:connector-curvature="0"
     style="isolation:isolate;fill:#ffffff"
     d="m 112.26336,-63.930576 h -6.105 c -0.011,8.3 -0.023,13.677 -0.035,21.977 -2.623,-8.1 -5.249,-13.463 -7.881004,-21.977 h -5.861 v 38.912 c 1.978,-0.281 4.097,-0.551 6.078,-0.81 l 0.017,-21.266 c 2.726004,8.006 4.402004,12.728 7.119004,20.336 2.131,-0.244 4.472,-0.543 6.604,-0.76 z m 22.8,0 h -16.91 l -0.069,35.9 c 5.657,-0.515 11.32,-0.935 16.987,-1.262 l 0.009,-6.014 c -3.685,0.227 -7.21,0.463 -10.882,0.71 l 0.019,-9.096 c 2.684,-0.046 5.518,-0.005 8.26,-0.052 0.003,-1.759 0.006,-4.283 0.01,-6.042 -2.717,0.049 -5.586,0.054 -8.259,0.105 0.006,-3.217 0.012,-4.982 0.019,-8.2 1.94692,-0.021 3.89397,-0.0283 5.841,-0.022 h 0.862 c 1.372,0 2.75,-0.002 4.151,-0.014 0.004,-1.75 -0.041,-4.264 -0.038,-6.013 z m 22.793,0.027 -18.829,10e-4 -0.009,5.98 0.81,-0.003 c 0.818,0 1.636,0.008 2.454,0.016 0.818,0.008 1.635,0.016 2.453,0.016 l 0.629,-10e-4 c -0.013,9.647 -0.026,18.459 -0.038,28.106 1.992,-0.074 4.124,-0.137 6.117,-0.187 l 0.027,-27.948 c 2.104,-0.008 4.279,-0.014 6.384,-0.018 z m 20.942,-0.027 h -16.98 l -0.005,33.791 c 2.01667,-0.008 4.03338,-0.004 6.05,0.012 l -0.005,-13.923 c 1.13533,0.004 2.27068,0.002 3.406,-0.005 0.80566,-0.003 1.61133,-0.005 2.417,-0.006 0.826,0 1.645,0.003 2.445,0.014 l -0.004,-5.976 c -0.76964,-0.007 -1.53932,-0.0107 -2.309,-0.01 -0.835,0 -1.68,0.002 -2.52,0.006 -0.84,0.003 -1.677,0.005 -2.499,0.005 l -0.937,-10e-4 -0.003,-7.88 1.986,10e-4 2.005,-10e-4 h 2.02 c 1.64,0 3.282,10e-4 4.938,0.009 l -0.005,-6.036 m 3.963,0.027 c 0.015,11.373 -0.04,22.745 -0.025,34.118 5.429,0.202 11.133,0.421 16.555,0.796 -0.003,-1.749 -0.006,-4.265 -0.01,-6.015 -3.431,-0.201 -7.004,-0.443 -10.438,-0.586 -0.016,-9.74 0.038,-18.573 0.022,-28.312 l -6.104,-10e-4 m 21.54,10e-4 0.069,35.283 c 1.989,0.154 4.047,0.318 6.035,0.495 0.007,-11.918 0.023,-23.851 0,-35.777 l -6.104,-0.001 m 11.337,0.001 c 2.442,5.946 4.675,11.91 7.154,18.225 -2.54712,5.98928 -5.13819,11.95977 -7.773,17.911 2.132,0.21 4.338,0.518 6.468,0.755 1.528,-3.747 2.918,-6.632 4.448,-10.481 1.527,4.1 2.915,7.267 4.438,11.499 2.127,0.276 4.884,0.672 7.008,0.974 -2.575,-6.883 -5.391,-14.049 -7.98,-20.554 2.578,-6.109 5.209,-11.94 7.887,-18.327 l -6.666,-10e-4 c -1.652,3.948 -2.789,6.484 -4.373,10.242 -1.476,-3.91 -2.466,-6.44 -3.945,-10.242 l -6.666,-10e-4"
     id="path28" />
  <path
     inkscape:connector-curvature="0"
     style="isolation:isolate;fill:#ffffff;stroke-width:1.43100786"
     d="m 63.380615,87.933646 h -7.749176 c -0.01396,13.390364 -0.02919,22.065054 -0.04443,35.455414 -3.329417,-13.06769 -6.662642,-21.7198 -10.003484,-35.455414 h -7.439462 v 62.776594 c 2.510707,-0.45334 5.200389,-0.88893 7.714905,-1.30677 l 0.02158,-34.30836 c 3.460155,12.91605 5.58753,20.53404 9.036262,32.80799 2.704914,-0.39364 5.676383,-0.87601 8.382566,-1.2261 z m 28.940416,0 H 70.856889 l -0.08758,57.917334 c 7.180522,-0.83084 14.36866,-1.50842 21.561872,-2.03597 l 0.0114,-9.70237 c -4.67743,0.36622 -9.151769,0.74696 -13.812699,1.14544 l 0.02412,-14.67454 c 3.406846,-0.0742 7.00409,-0.008 10.484559,-0.0839 0.004,-2.83779 0.007,-6.90974 0.0127,-9.74754 -3.448731,0.0791 -7.090404,0.0872 -10.483287,0.1694 0.0076,-5.18998 0.01523,-8.03744 0.02412,-13.229026 2.471257,-0.03387 4.942679,-0.04565 7.41408,-0.03553 h 1.094147 c 1.74151,0 3.49062,-0.0037 5.26894,-0.02255 0.005,-2.823265 -0.052,-6.879095 -0.0482,-9.70075 z m 28.931519,0.04354 -23.899949,0.0018 -0.0114,9.647518 1.02815,-0.0046 c 1.038293,0 2.076599,0.01288 3.114899,0.02578 1.0383,0.01289 2.07533,0.02577 3.11363,0.02577 l 0.7984,-0.0018 c -0.0165,15.563476 -0.033,29.779846 -0.0482,45.343316 2.52846,-0.11939 5.23465,-0.22103 7.7644,-0.30169 l 0.0343,-45.088405 c 2.67064,-0.01288 5.43141,-0.02255 8.10332,-0.029 z m 26.58204,-0.04354 h -21.553 l -0.006,54.514904 c 2.55978,-0.0129 5.11963,-0.007 7.67936,0.0193 l -0.006,-22.46192 c 1.44109,0.007 2.88221,0.004 4.3233,-0.008 1.02263,-0.004 2.04528,-0.008 3.06793,-0.01 1.04846,0 2.08803,0.004 3.10349,0.0225 l -0.005,-9.64106 c -0.97691,-0.0113 -1.95388,-0.0173 -2.93084,-0.0161 -1.05988,0 -2.13246,0.004 -3.19869,0.01 -1.06622,0.004 -2.12864,0.008 -3.17201,0.008 l -1.18935,-0.002 -0.004,-12.712781 2.52087,0.0018 2.54498,-0.0018 h 2.56401 c 2.08167,0 4.16589,0.0018 6.26789,0.01454 l -0.006,-9.737854 m 5.0303,0.04354 c 0.0191,18.348025 -0.0508,36.694435 -0.0317,55.042455 6.89112,0.32588 14.1313,0.67919 21.01353,1.28418 -0.004,-2.82165 -0.007,-6.88071 -0.0127,-9.70398 -4.35502,-0.32427 -8.89029,-0.71468 -13.24912,-0.94539 -0.0203,-15.7135 0.0482,-29.96375 0.028,-45.675655 l -7.74791,-0.0018 m 27.34108,0.0018 0.0876,56.921945 c 2.52468,0.24845 5.13692,0.51303 7.66033,0.79858 0.009,-19.22726 0.0292,-38.47874 0,-57.718905 l -7.7479,-0.0018 m 14.39023,0.0018 c 3.09968,9.592659 5.93406,19.214365 9.08069,29.402325 -3.2331,9.66249 -6.52199,19.29466 -9.86639,28.89575 2.70618,0.3388 5.50629,0.83569 8.20994,1.21804 1.93951,-6.04502 3.70386,-10.69937 5.64591,-16.90895 1.93825,6.61451 3.70006,11.72381 5.63324,18.55129 2.69983,0.44527 6.19934,1.08414 8.89536,1.57135 -3.26848,-11.10431 -6.84288,-22.6652 -10.12914,-33.15969 3.27229,-9.85563 6.61187,-19.262762 10.01109,-29.566893 l -8.46126,-0.0018 c -2.09691,6.369298 -3.54012,10.460612 -5.55072,16.523383 -1.87351,-6.307986 -3.13013,-10.389625 -5.00746,-16.523383 l -8.46126,-0.0018"
     id="path28-3" />
</svg>
