<?xml version="1.0" encoding="UTF-8" standalone="no"?>
<svg
   xmlns:dc="http://purl.org/dc/elements/1.1/"
   xmlns:cc="http://creativecommons.org/ns#"
   xmlns:rdf="http://www.w3.org/1999/02/22-rdf-syntax-ns#"
   xmlns:svg="http://www.w3.org/2000/svg"
   xmlns="http://www.w3.org/2000/svg"
   xmlns:sodipodi="http://sodipodi.sourceforge.net/DTD/sodipodi-0.dtd"
   xmlns:inkscape="http://www.inkscape.org/namespaces/inkscape"
   style="clip-rule:evenodd;fill-rule:evenodd;stroke-linejoin:round;stroke-miterlimit:2"
   version="1.1"
   viewBox="0 0 48 48"
   id="svg48"
   sodipodi:docname="preferences-desktop-theme-applications.svg"
   inkscape:version="0.92.4 5da689c313, 2019-01-14">
  <metadata
     id="metadata52">
    <rdf:RDF>
      <cc:Work
         rdf:about="">
        <dc:format>image/svg+xml</dc:format>
        <dc:type
           rdf:resource="http://purl.org/dc/dcmitype/StillImage" />
      </cc:Work>
    </rdf:RDF>
  </metadata>
  <sodipodi:namedview
     pagecolor="#ffffff"
     bordercolor="#666666"
     borderopacity="1"
     objecttolerance="10"
     gridtolerance="10"
     guidetolerance="10"
     inkscape:pageopacity="0"
     inkscape:pageshadow="2"
     inkscape:window-width="1920"
     inkscape:window-height="1050"
     id="namedview50"
     showgrid="false"
     inkscape:zoom="6.4561097"
     inkscape:cx="0.69114538"
     inkscape:cy="24.46926"
     inkscape:window-x="0"
     inkscape:window-y="30"
     inkscape:window-maximized="1"
     inkscape:current-layer="svg48" />
  <path
     d="m47.312 10.595c0-0.976-0.388-1.911-1.077-2.601-0.69-0.691-1.627-1.079-2.603-1.079h-39.264c-0.976 0-1.913 0.388-2.603 1.079-0.689 0.69-1.077 1.625-1.077 2.601v27.823c0 0.976 0.388 1.911 1.077 2.602 0.69 0.69 1.627 1.078 2.603 1.078h39.264c0.976 0 1.913-0.388 2.603-1.078 0.689-0.691 1.077-1.626 1.077-2.602v-27.823z"
     style="fill-opacity:.88"
     id="path2" />
  <path
     d="m47.312 9.381c0-1.921-1.557-3.479-3.479-3.479h-39.666c-1.922 0-3.479 1.558-3.479 3.479v28.225c0 1.921 1.557 3.479 3.479 3.479h39.666c1.922 0 3.479-1.558 3.479-3.479v-28.225z"
     style="fill:url(#_Linear1)"
     id="path4" />
  <path
     d="m44.048 5.909c1.821 0.111 3.264 1.623 3.264 3.472v28.225c0 1.921-1.558 3.479-3.479 3.479h-39.666c-1.892 0-3.43-1.51-3.478-3.389 0-6.713 0-21.618-1e-3 -28.359 0.023-1.829 1.457-3.318 3.264-3.428h40.096z"
     style="fill:url(#_Linear2);fill-opacity:1"
     id="path6" />
  <path
     d="m44.065 5.91c1.798 0.118 3.223 1.602 3.247 3.425v28.317c-0.025 1.9-1.573 3.433-3.479 3.433h-13.672v-35.175h13.904z"
     style="fill-rule:nonzero;fill:url(#_Linear3)"
     id="path8" />
  <path
     d="m17.837 41.085h-13.67c-1.922 0-3.479-1.558-3.479-3.479v-28.225c0-1.843 1.434-3.352 3.247-3.471h13.902v35.175z"
     style="fill-rule:nonzero;fill:url(#_Linear4)"
     id="path10" />
  <defs
     id="defs46">
    <linearGradient
       id="_Linear1"
       x2="1"
       gradientTransform="matrix(2.21762e-15,-36.2165,36.2165,2.21762e-15,489.464,42.119)"
       gradientUnits="userSpaceOnUse">
      <stop
         style="stop-color:#313738"
         offset="0"
         id="stop16" />
      <stop
         style="stop-color:#535552"
         offset="1"
         id="stop18" />
    </linearGradient>
    <linearGradient
       id="_Linear2"
       x2="-0.25705451"
       gradientTransform="matrix(.0595533 -35.1749 35.1749 .0595533 245.159 41.4366)"
       gradientUnits="userSpaceOnUse"
       x1="1.4676441"
       y1="-6.2803044"
       y2="-6.2524366">
      <stop
         style="stop-color:#cc00ff;stop-opacity:1"
         offset="0"
         id="stop21" />
      <stop
         style="stop-color:#00ffff;stop-opacity:1"
         offset="1"
         id="stop23" />
    </linearGradient>
    <linearGradient
       id="_Linear3"
       x2="1"
       gradientTransform="matrix(2.15384e-15,-35.1749,35.1749,2.15384e-15,247.338,41.0847)"
       gradientUnits="userSpaceOnUse">
      <stop
         style="stop-color:#006299"
         offset="0"
         id="stop26" />
      <stop
         style="stop-color:#00a3ff"
         offset="1"
         id="stop28" />
    </linearGradient>
    <linearGradient
       id="_Linear4"
       x2="1"
       gradientTransform="matrix(.238213 -35.1749 35.1749 .238213 219.645 42.4925)"
       gradientUnits="userSpaceOnUse">
      <stop
         style="stop-color:#282828"
         offset="0"
         id="stop31" />
      <stop
         style="stop-color:#707070"
         offset="1"
         id="stop33" />
    </linearGradient>
    <linearGradient
       id="_Linear5"
       x2="1"
       gradientTransform="matrix(16.3963,-5.18168,5.18168,16.3963,208.784,661.971)"
       gradientUnits="userSpaceOnUse">
      <stop
         style="stop-color:#fafafa"
         offset="0"
         id="stop36" />
      <stop
         style="stop-color:#aaa"
         offset="1"
         id="stop38" />
    </linearGradient>
    <linearGradient
       id="_Linear6"
       x2="1"
       gradientTransform="matrix(23.5839,0,0,23.5839,18.1145,768.069)"
       gradientUnits="userSpaceOnUse">
      <stop
         style="stop-color:#f0f0f0"
         offset="0"
         id="stop41" />
      <stop
         style="stop-color:#b7f1ff"
         offset="1"
         id="stop43" />
    </linearGradient>
  </defs>
  <path
     inkscape:connector-curvature="0"
     style="color:#232629;fill:#ffffff;stroke-width:0.89833903"
     d="m 20.976342,17.385763 c -0.495007,0 -0.893513,0.402823 -0.893513,0.903191 0,0.500369 0.398506,0.903193 0.893513,0.903193 0.495005,0 0.893511,-0.402824 0.893511,-0.903193 0,-0.500368 -0.398506,-0.903191 -0.893511,-0.903191 z m 6.254581,0 -1.787023,1.806384 2.680535,2.709578 -2.680535,2.709578 1.787023,1.806385 2.680536,-2.709578 1.787022,-1.806385 z m -8.488361,5.419154 c -0.742509,0 -1.340268,0.604236 -1.340268,1.354789 0,0.750554 0.597759,1.354789 1.340268,1.354789 0.742508,0 1.340267,-0.604235 1.340267,-1.354789 0,-0.750553 -0.597759,-1.354789 -1.340267,-1.354789 z m 4.020802,5.419155 c -0.99001,0 -1.787022,0.805648 -1.787022,1.806385 0,1.000737 0.797012,1.806385 1.787022,1.806385 0.990012,0 1.787024,-0.805648 1.787024,-1.806385 0,-1.000737 -0.797012,-1.806385 -1.787024,-1.806385 z"
     id="path18" />
</svg>
