<?xml version="1.0" encoding="UTF-8" standalone="no"?>
<svg
   xmlns:dc="http://purl.org/dc/elements/1.1/"
   xmlns:cc="http://creativecommons.org/ns#"
   xmlns:rdf="http://www.w3.org/1999/02/22-rdf-syntax-ns#"
   xmlns:svg="http://www.w3.org/2000/svg"
   xmlns="http://www.w3.org/2000/svg"
   xmlns:sodipodi="http://sodipodi.sourceforge.net/DTD/sodipodi-0.dtd"
   xmlns:inkscape="http://www.inkscape.org/namespaces/inkscape"
   style="clip-rule:evenodd;fill-rule:evenodd;stroke-linejoin:round;stroke-miterlimit:2"
   version="1.1"
   viewBox="0 0 48 48"
   id="svg27"
   sodipodi:docname="background.svg"
   inkscape:version="0.92.4 5da689c313, 2019-01-14">
  <metadata
     id="metadata31">
    <rdf:RDF>
      <cc:Work
         rdf:about="">
        <dc:format>image/svg+xml</dc:format>
        <dc:type
           rdf:resource="http://purl.org/dc/dcmitype/StillImage" />
      </cc:Work>
    </rdf:RDF>
  </metadata>
  <sodipodi:namedview
     pagecolor="#ffffff"
     bordercolor="#666666"
     borderopacity="1"
     objecttolerance="10"
     gridtolerance="10"
     guidetolerance="10"
     inkscape:pageopacity="0"
     inkscape:pageshadow="2"
     inkscape:window-width="1920"
     inkscape:window-height="1050"
     id="namedview29"
     showgrid="false"
     inkscape:zoom="17.093099"
     inkscape:cx="26.778899"
     inkscape:cy="24"
     inkscape:window-x="0"
     inkscape:window-y="30"
     inkscape:window-maximized="1"
     inkscape:current-layer="svg27" />
  <path
     d="m47.312 10.595c0-0.976-0.388-1.911-1.077-2.601-0.69-0.691-1.627-1.079-2.603-1.079h-39.264c-0.976 0-1.913 0.388-2.603 1.079-0.689 0.69-1.077 1.625-1.077 2.601v27.823c0 0.976 0.388 1.911 1.077 2.602 0.69 0.69 1.627 1.078 2.603 1.078h39.264c0.976 0 1.913-0.388 2.603-1.078 0.689-0.691 1.077-1.626 1.077-2.602v-27.823z"
     style="fill-opacity:.67"
     id="path2" />
  <path
     d="m47.312 9.381c0-1.921-1.557-3.479-3.479-3.479h-39.666c-1.922 0-3.479 1.558-3.479 3.479v28.225c0 1.921 1.557 3.479 3.479 3.479h39.666c1.922 0 3.479-1.558 3.479-3.479v-28.225z"
     style="fill:url(#_Linear1)"
     id="path4" />
  <path
     d="m41.356 21.603l5.956 2.466v13.537c0 1.921-1.557 3.479-3.479 3.479h-39.666c-1.922 0-3.479-1.558-3.479-3.479v-14.15l5.432 2.755 6.259-0.573 11.171 6.149 11.682-3.095 6.124-7.089z"
     style="fill:url(#_Linear2)"
     id="path6" />
  <path
     d="m31.14 19.688c2.077-0.256 3.971 1.224 4.227 3.301 0.255 2.077-1.224 3.971-3.302 4.226-2.077 0.255-3.971-1.224-4.226-3.301s1.224-3.971 3.301-4.226z"
     style="fill:url(#_Linear3)"
     id="path8" />
  <defs
     id="defs25">
    <linearGradient
       id="_Linear1"
       x2="1"
       gradientTransform="matrix(-.0595533 -35.183 35.183 -.0595533 25.1017 41.085)"
       gradientUnits="userSpaceOnUse">
      <stop
         style="stop-color:#f086fb"
         offset="0"
         id="stop10" />
      <stop
         style="stop-color:#4392f6"
         offset="1"
         id="stop12" />
    </linearGradient>
    <linearGradient
       id="_Linear2"
       x2="47.312"
       gradientTransform="matrix(-.303232 -11.2772 11.2772 -.303232 793.043 14.4296)"
       gradientUnits="userSpaceOnUse"
       x1="0.688"
       y1="31.344"
       y2="31.344">
      <stop
         style="stop-color:#132e51"
         offset="0"
         id="stop15" />
      <stop
         style="stop-color:#2767b9"
         offset="1"
         id="stop17" />
    </linearGradient>
    <linearGradient
       id="_Linear3"
       x2="1"
       gradientTransform="matrix(-.0788615 -8.12667 8.12667 -.0788615 212.345 25.3603)"
       gradientUnits="userSpaceOnUse">
      <stop
         style="stop-color:#eefefe;stop-opacity:.8"
         offset="0"
         id="stop20" />
      <stop
         style="stop-color:#d6fefe;stop-opacity:.8"
         offset="1"
         id="stop22" />
    </linearGradient>
  </defs>
</svg>
