<?xml version="1.0" encoding="UTF-8" standalone="no"?>
<svg
   xmlns:dc="http://purl.org/dc/elements/1.1/"
   xmlns:cc="http://creativecommons.org/ns#"
   xmlns:rdf="http://www.w3.org/1999/02/22-rdf-syntax-ns#"
   xmlns:svg="http://www.w3.org/2000/svg"
   xmlns="http://www.w3.org/2000/svg"
   xmlns:sodipodi="http://sodipodi.sourceforge.net/DTD/sodipodi-0.dtd"
   xmlns:inkscape="http://www.inkscape.org/namespaces/inkscape"
   style="clip-rule:evenodd;fill-rule:evenodd;stroke-linejoin:round;stroke-miterlimit:2"
   version="1.1"
   viewBox="0 0 48 48"
   id="svg18"
   sodipodi:docname="python-idle.svg"
   inkscape:version="0.92.4 5da689c313, 2019-01-14">
  <metadata
     id="metadata22">
    <rdf:RDF>
      <cc:Work
         rdf:about="">
        <dc:format>image/svg+xml</dc:format>
        <dc:type
           rdf:resource="http://purl.org/dc/dcmitype/StillImage" />
      </cc:Work>
    </rdf:RDF>
  </metadata>
  <sodipodi:namedview
     pagecolor="#ffffff"
     bordercolor="#666666"
     borderopacity="1"
     objecttolerance="10"
     gridtolerance="10"
     guidetolerance="10"
     inkscape:pageopacity="0"
     inkscape:pageshadow="2"
     inkscape:window-width="1920"
     inkscape:window-height="1050"
     id="namedview20"
     showgrid="false"
     inkscape:zoom="17.093099"
     inkscape:cx="8.0578937"
     inkscape:cy="24"
     inkscape:window-x="0"
     inkscape:window-y="30"
     inkscape:window-maximized="1"
     inkscape:current-layer="svg18" />
  <circle
     cx="24"
     cy="24"
     r="22.764"
     style="fill:url(#_Linear1);fill-opacity:1"
     id="circle2" />
  <path
     d="m24 10c-4.53 0-6.795 1.167-6.795 3.209v2.625h6.795v1.166h-9.344c-2.196 0-4.246 2.333-4.246 7s2.05 7 4.246 7h1.416v-4.084c0-1.939 1.517-3.5 3.399-3.5h7.925c1.883 0 3.399-1.561 3.399-3.5v-6.707c0-2.042-2.265-3.209-6.795-3.209zm-3.396 2.334c0.62 1e-3 1.13 0.527 1.13 1.166s-0.51 1.165-1.13 1.166c-0.622 0-1.133-0.526-1.133-1.166s0.511-1.166 1.133-1.166zm11.32 4.666v4.084c0 1.939-1.514 3.5-3.397 3.5h-7.927c-1.883 0-3.399 1.561-3.399 3.5v6.707c0 2.042 2.265 3.209 6.795 3.209s6.795-1.167 6.795-3.209v-2.625h-6.795v-1.166h9.344c2.196 0 4.25-2.333 4.25-7s-2.054-7-4.25-7h-1.416zm-4.528 16.334c0.622 0 1.133 0.526 1.133 1.166s-0.511 1.166-1.133 1.166c-0.62-1e-3 -1.13-0.527-1.13-1.166s0.51-1.165 1.13-1.166z"
     style="fill-rule:nonzero;fill:#d5f6ff"
     id="path4" />
  <defs
     id="defs16">
    <linearGradient
       id="_Linear1"
       x2="0.15918028"
       gradientTransform="matrix(2.78782e-15,-45.5286,45.5286,2.78782e-15,210.895,46.7643)"
       gradientUnits="userSpaceOnUse"
       x1="1.0111191"
       y1="-4.1579871"
       y2="-4.1554174">
      <stop
         style="stop-color:#000080;stop-opacity:1"
         offset="0"
         id="stop6" />
      <stop
         style="stop-color:#00ffff;stop-opacity:1"
         offset="1"
         id="stop8" />
    </linearGradient>
    <linearGradient
       id="_Linear2"
       x2="1"
       gradientTransform="matrix(-44 6e-6 -6e-6 -44 455.321 526.907)"
       gradientUnits="userSpaceOnUse">
      <stop
         style="stop-color:#ccc"
         offset="0"
         id="stop11" />
      <stop
         style="stop-color:#e6e6e6"
         offset="1"
         id="stop13" />
    </linearGradient>
  </defs>
</svg>
