<?xml version="1.0" encoding="UTF-8" standalone="no"?>
<svg
   xmlns:dc="http://purl.org/dc/elements/1.1/"
   xmlns:cc="http://creativecommons.org/ns#"
   xmlns:rdf="http://www.w3.org/1999/02/22-rdf-syntax-ns#"
   xmlns:svg="http://www.w3.org/2000/svg"
   xmlns="http://www.w3.org/2000/svg"
   xmlns:sodipodi="http://sodipodi.sourceforge.net/DTD/sodipodi-0.dtd"
   xmlns:inkscape="http://www.inkscape.org/namespaces/inkscape"
   style="clip-rule:evenodd;fill-rule:evenodd;stroke-linejoin:round;stroke-miterlimit:2"
   version="1.1"
   viewBox="0 0 48 48"
   id="svg13"
   sodipodi:docname="radiotray_connecting.svg"
   inkscape:version="0.92.4 5da689c313, 2019-01-14">
  <metadata
     id="metadata17">
    <rdf:RDF>
      <cc:Work
         rdf:about="">
        <dc:format>image/svg+xml</dc:format>
        <dc:type
           rdf:resource="http://purl.org/dc/dcmitype/StillImage" />
      </cc:Work>
    </rdf:RDF>
  </metadata>
  <sodipodi:namedview
     pagecolor="#ffffff"
     bordercolor="#666666"
     borderopacity="1"
     objecttolerance="10"
     gridtolerance="10"
     guidetolerance="10"
     inkscape:pageopacity="0"
     inkscape:pageshadow="2"
     inkscape:window-width="1920"
     inkscape:window-height="1050"
     id="namedview15"
     showgrid="false"
     inkscape:zoom="17.093099"
     inkscape:cx="8.0578937"
     inkscape:cy="24"
     inkscape:window-x="0"
     inkscape:window-y="30"
     inkscape:window-maximized="1"
     inkscape:current-layer="svg13" />
  <circle
     cx="24"
     cy="24"
     r="22.764"
     style="fill:url(#_Linear1)"
     id="circle2" />
  <path
     d="m33.917 24c0 2.792-1.187 5.471-3.259 7.349-0.406 0.37-0.916 0.553-1.428 0.553-0.578 0-1.153-0.235-1.572-0.697-0.789-0.869-0.724-2.213 0.146-3.001 1.184-1.076 1.863-2.608 1.863-4.204 0-1.601-0.677-3.131-1.856-4.201-0.87-0.787-0.937-2.132-0.147-3.002 0.787-0.871 2.13-0.936 3-0.147 2.067 1.873 3.253 4.552 3.253 7.35zm2.145-11.994c-0.828-0.831-2.175-0.834-3.005-7e-3 -0.833 0.827-0.836 2.173-9e-3 3.006 2.387 2.397 3.702 5.592 3.702 8.995 0 3.394-1.317 6.586-3.709 8.991-0.827 0.832-0.824 2.178 9e-3 3.005 0.413 0.412 0.956 0.619 1.499 0.619 0.545 0 1.092-0.208 1.505-0.626 3.189-3.207 4.946-7.464 4.946-11.989 0-4.534-1.754-8.794-4.938-11.994zm-12.062 9.425c-1.421 0-2.567 1.146-2.567 2.569 0 1.416 1.148 2.568 2.568 2.568 1.421 0 2.567-1.152 2.567-2.568 0-1.423-1.147-2.569-2.568-2.569zm-3.656-4.636c-0.789-0.87-2.132-0.935-3.002-0.146-2.071 1.878-3.259 4.558-3.259 7.351 0 2.8 1.186 5.478 3.254 7.349 0.407 0.369 0.917 0.55 1.426 0.55 0.579 0 1.156-0.235 1.576-0.698 0.788-0.87 0.72-2.215-0.15-3.002-1.178-1.067-1.856-2.597-1.856-4.199 0-1.597 0.679-3.128 1.865-4.204 0.87-0.789 0.935-2.133 0.146-3.001zm-9.094 7.205c0-3.395 1.318-6.586 3.709-8.99 0.827-0.832 0.826-2.178-7e-3 -3.005-0.83-0.829-2.176-0.825-3.005 7e-3 -3.19 3.204-4.947 7.463-4.947 11.988 0 4.532 1.754 8.792 4.939 11.993 0.415 0.418 0.96 0.626 1.505 0.626 0.543 0 1.084-0.206 1.499-0.619 0.832-0.827 0.835-2.173 7e-3 -3.004-2.385-2.4-3.7-5.595-3.7-8.996z"
     style="fill-opacity:0.85;fill-rule:nonzero;fill:#d5e5ff"
     id="path4" />
  <defs
     id="defs11">
    <linearGradient
       id="_Linear1"
       x2="1"
       gradientTransform="matrix(2.71809e-15,-44.3898,44.3898,2.71809e-15,24,45.6258)"
       gradientUnits="userSpaceOnUse">
      <stop
         style="stop-color:#2ad4ff;stop-opacity:1"
         offset="0"
         id="stop6" />
      <stop
         style="stop-color:#000080;stop-opacity:1"
         offset="1"
         id="stop8" />
    </linearGradient>
  </defs>
</svg>
