<?xml version="1.0" encoding="UTF-8" standalone="no"?>
<svg
   xmlns:dc="http://purl.org/dc/elements/1.1/"
   xmlns:cc="http://creativecommons.org/ns#"
   xmlns:rdf="http://www.w3.org/1999/02/22-rdf-syntax-ns#"
   xmlns:svg="http://www.w3.org/2000/svg"
   xmlns="http://www.w3.org/2000/svg"
   xmlns:sodipodi="http://sodipodi.sourceforge.net/DTD/sodipodi-0.dtd"
   xmlns:inkscape="http://www.inkscape.org/namespaces/inkscape"
   style="clip-rule:evenodd;fill-rule:evenodd;stroke-linejoin:round;stroke-miterlimit:2"
   version="1.1"
   viewBox="0 0 48 48"
   id="svg13"
   sodipodi:docname="realtimesync.svg"
   inkscape:version="0.92.4 5da689c313, 2019-01-14">
  <metadata
     id="metadata17">
    <rdf:RDF>
      <cc:Work
         rdf:about="">
        <dc:format>image/svg+xml</dc:format>
        <dc:type
           rdf:resource="http://purl.org/dc/dcmitype/StillImage" />
      </cc:Work>
    </rdf:RDF>
  </metadata>
  <sodipodi:namedview
     pagecolor="#ffffff"
     bordercolor="#666666"
     borderopacity="1"
     objecttolerance="10"
     gridtolerance="10"
     guidetolerance="10"
     inkscape:pageopacity="0"
     inkscape:pageshadow="2"
     inkscape:window-width="1920"
     inkscape:window-height="1050"
     id="namedview15"
     showgrid="false"
     inkscape:zoom="16.440104"
     inkscape:cx="7.4246792"
     inkscape:cy="24"
     inkscape:window-x="0"
     inkscape:window-y="30"
     inkscape:window-maximized="1"
     inkscape:current-layer="svg13" />
  <path
     d="m45.668 8.56c0-3.438-2.79-6.228-6.228-6.228h-30.88c-3.438 0-6.228 2.79-6.228 6.228v30.88c0 3.438 2.79 6.228 6.228 6.228h30.88c3.438 0 6.228-2.79 6.228-6.228v-30.88z"
     style="fill:url(#_Linear1)"
     id="path2" />
  <path
     d="m24.032 8.001c3.367 7e-3 6.781 1.056 9.447 3.133 1.875 2.16-1.697 4.473-3.306 2.367-4.843-2.93-11.673-1.899-15.317 2.483-1.939 2.174-3.031 5.075-3.018 7.988h3.2l-5.12 7.681-5.121-7.681h3.2c-0.102-6.954 4.9-13.57 11.615-15.37 1.44-0.396 2.924-0.617 4.42-0.601zm14.05 8.321l5.121 7.682h-3.2c0.09 7.037-5.039 13.726-11.871 15.432-4.61 1.288-9.823 0.348-13.612-2.597-1.933-2.196 1.688-4.486 3.312-2.361 4.692 2.847 11.263 1.944 14.968-2.123 2.144-2.209 3.377-5.272 3.361-8.352h-3.2l5.121-7.681z"
     style="fill-opacity:0.86;fill-rule:nonzero;fill:#0000ff"
     id="path4" />
  <defs
     id="defs11">
    <linearGradient
       id="_Linear1"
       x2="1"
       gradientTransform="matrix(2.65356e-15,-43.336,43.336,2.65356e-15,67.3359,45.6681)"
       gradientUnits="userSpaceOnUse">
      <stop
         style="stop-color:#e4e4e4"
         offset="0"
         id="stop6" />
      <stop
         style="stop-color:#eee"
         offset="1"
         id="stop8" />
    </linearGradient>
  </defs>
</svg>
