<?xml version="1.0" encoding="UTF-8" standalone="no"?>
<svg
   xmlns:dc="http://purl.org/dc/elements/1.1/"
   xmlns:cc="http://creativecommons.org/ns#"
   xmlns:rdf="http://www.w3.org/1999/02/22-rdf-syntax-ns#"
   xmlns:svg="http://www.w3.org/2000/svg"
   xmlns="http://www.w3.org/2000/svg"
   xmlns:sodipodi="http://sodipodi.sourceforge.net/DTD/sodipodi-0.dtd"
   xmlns:inkscape="http://www.inkscape.org/namespaces/inkscape"
   style="clip-rule:evenodd;fill-rule:evenodd;stroke-linejoin:round;stroke-miterlimit:2"
   version="1.1"
   viewBox="0 0 48 48"
   id="svg13"
   sodipodi:docname="seafile.svg"
   inkscape:version="0.92.4 5da689c313, 2019-01-14">
  <metadata
     id="metadata17">
    <rdf:RDF>
      <cc:Work
         rdf:about="">
        <dc:format>image/svg+xml</dc:format>
        <dc:type
           rdf:resource="http://purl.org/dc/dcmitype/StillImage" />
      </cc:Work>
    </rdf:RDF>
  </metadata>
  <sodipodi:namedview
     pagecolor="#ffffff"
     bordercolor="#666666"
     borderopacity="1"
     objecttolerance="10"
     gridtolerance="10"
     guidetolerance="10"
     inkscape:pageopacity="0"
     inkscape:pageshadow="2"
     inkscape:window-width="1920"
     inkscape:window-height="1050"
     id="namedview15"
     showgrid="false"
     inkscape:zoom="17.093099"
     inkscape:cx="8.0578937"
     inkscape:cy="24"
     inkscape:window-x="0"
     inkscape:window-y="30"
     inkscape:window-maximized="1"
     inkscape:current-layer="svg13" />
  <circle
     cx="23.977"
     cy="24.023"
     r="22.787"
     style="fill:url(#_Linear1)"
     id="circle2" />
  <path
     d="m6.786 22.599c0-0.574 0.465-1.034 1.039-1.034 0.273 0 0.516 0.109 0.703 0.279-5e-3 -0.092-0.011-0.18-0.011-0.273 0-1.917 1.55-3.468 3.468-3.468 0.496 0 0.966 0.103 1.395 0.295-4e-3 -0.099-0.01-0.197-0.01-0.289 0-2.874 2.325-5.199 5.199-5.199 2.852 0 5.167 2.3 5.198 5.147-0.94 0.827-1.689 1.87-2.17 3.049-0.93-0.579-2.026-0.925-3.199-0.925-2.418 0-4.506 1.375-5.482 3.452h-3.706-1.385c-0.574-0.011-1.039-0.46-1.039-1.034zm27.373-3.106c-1.287-1.287-3.059-2.083-5.022-2.083-3.582 0-6.548 2.652-7.034 6.104-0.884-1.178-2.294-1.944-3.881-1.944-2.682 0-4.853 2.176-4.853 4.853 0 0.78 0.186 1.514 0.512 2.17-1.685 0.341-2.936 1.649-2.936 3.204 0 1.82 1.706 3.292 3.814 3.292 0.93 0 1.783-0.289 2.445-0.769l7.798-7.67c0.863-0.791 2.01-1.271 3.271-1.271 2.636 0 4.78 2.103 4.852 4.723 0 0 0-5e-3 -4e-3 -5e-3 0.041 0.775-0.362 1.556-1.106 1.985-1.039 0.599-2.341 0.279-2.91-0.708-0.573-0.993-0.196-2.28 0.843-2.879 0.243-0.139 0.496-0.227 0.755-0.273-0.223-0.047-0.455-0.068-0.693-0.068-1.912 0-3.467 1.55-3.467 3.468 0 1.917 1.55 3.468 3.467 3.468l7.153-6e-3c2.082-0.093 4.051-2.01 4.051-4.346 0-2.393-2.046-4.346-4.439-4.346h-0.01c-0.388 0.692-0.858 1.096-1.39 1.529 0.558-1.017 0.879-2.175 0.879-3.416-0.012-1.957-0.808-3.725-2.094-5.012h-1e-3z"
     style="fill-rule:nonzero;fill:#fff"
     id="path4" />
  <defs
     id="defs11">
    <linearGradient
       id="_Linear1"
       x2="1"
       gradientTransform="matrix(-.0570485 -45.0778 45.0778 -.0570485 24.1012 46.4873)"
       gradientUnits="userSpaceOnUse">
      <stop
         style="stop-color:#00ffff;stop-opacity:1"
         offset="0"
         id="stop6" />
      <stop
         style="stop-color:#000080;stop-opacity:1"
         offset="1"
         id="stop8" />
    </linearGradient>
  </defs>
</svg>
