<?xml version="1.0" encoding="UTF-8" standalone="no"?>
<svg
   xmlns:dc="http://purl.org/dc/elements/1.1/"
   xmlns:cc="http://creativecommons.org/ns#"
   xmlns:rdf="http://www.w3.org/1999/02/22-rdf-syntax-ns#"
   xmlns:svg="http://www.w3.org/2000/svg"
   xmlns="http://www.w3.org/2000/svg"
   xmlns:xlink="http://www.w3.org/1999/xlink"
   xmlns:sodipodi="http://sodipodi.sourceforge.net/DTD/sodipodi-0.dtd"
   xmlns:inkscape="http://www.inkscape.org/namespaces/inkscape"
   style="clip-rule:evenodd;fill-rule:evenodd;stroke-linejoin:round;stroke-miterlimit:2"
   version="1.1"
   viewBox="0 0 48 48"
   id="svg21"
   sodipodi:docname="simplescreenrecorder.svg"
   inkscape:version="0.92.5 (2060ec1f9f, 2020-04-08)">
  <metadata
     id="metadata25">
    <rdf:RDF>
      <cc:Work
         rdf:about="">
        <dc:format>image/svg+xml</dc:format>
        <dc:type
           rdf:resource="http://purl.org/dc/dcmitype/StillImage" />
        <dc:title />
      </cc:Work>
    </rdf:RDF>
  </metadata>
  <sodipodi:namedview
     pagecolor="#ffffff"
     bordercolor="#666666"
     borderopacity="1"
     objecttolerance="10"
     gridtolerance="10"
     guidetolerance="10"
     inkscape:pageopacity="0"
     inkscape:pageshadow="2"
     inkscape:window-width="1920"
     inkscape:window-height="1050"
     id="namedview23"
     showgrid="false"
     inkscape:zoom="7.8714761"
     inkscape:cx="11.151043"
     inkscape:cy="28.980456"
     inkscape:window-x="0"
     inkscape:window-y="30"
     inkscape:window-maximized="1"
     inkscape:current-layer="svg21" />
  <path
     d="m45.668 8.56c0-3.438-2.79-6.228-6.228-6.228h-30.88c-3.438 0-6.228 2.79-6.228 6.228v30.88c0 3.438 2.79 6.228 6.228 6.228h30.88c3.438 0 6.228-2.79 6.228-6.228v-30.88z"
     style="fill:url(#linearGradient826);fill-opacity:1"
     id="path2" />
  <path
     d="m7.069 6.724v5.008h1.001v-4.006h4.007v-1.002h-5.008z"
     style="fill-opacity:1;fill-rule:nonzero;fill:#000000"
     id="path4" />
  <path
     d="m7.069 40.713h5.008v-1.002h-4.007v-4.006h-1.001v5.008z"
     style="fill-opacity:1;fill-rule:nonzero;fill:#000000"
     id="path6" />
  <path
     d="m41.458 40.713v-1.002-4.006h-1.001v4.006h-4.006v1.002h5.007z"
     style="fill-opacity:1;fill-rule:nonzero;fill:#000000"
     id="path8" />
  <path
     d="m41.559 6.724h-1.002-4.006v1.002h4.006v4.006h1.002v-5.008z"
     style="fill-opacity:1;fill-rule:nonzero;fill:#000000"
     id="path10" />
  <path
     d="m32.605 18.503c-0.503-0.49-1.109-0.735-1.82-0.735h-2.253l-0.512-1.332c-0.128-0.32-0.36-0.596-0.699-0.828s-0.686-0.348-1.041-0.348h-5.148c-0.356 0-0.702 0.116-1.041 0.348s-0.571 0.508-0.699 0.828l-0.513 1.332h-2.252c-0.711 0-1.317 0.245-1.82 0.735s-0.754 1.081-0.754 1.773v8.778c0 0.693 0.251 1.284 0.754 1.774 0.503 0.489 1.109 0.734 1.82 0.734h14.158c0.71 0 1.317-0.245 1.82-0.734 0.502-0.49 0.754-1.081 0.754-1.774v-8.778c0-0.692-0.252-1.283-0.754-1.773zm-5.717 9.263c-0.881 0.859-1.942 1.288-3.182 1.288s-2.301-0.429-3.183-1.288c-0.881-0.859-1.322-1.892-1.322-3.101 0-1.208 0.441-2.242 1.322-3.101 0.882-0.858 1.943-1.288 3.183-1.288s2.301 0.43 3.182 1.288c0.882 0.859 1.323 1.893 1.323 3.101 0 1.209-0.441 2.242-1.323 3.101zm-3.182-5.922c-0.798 0-1.48 0.276-2.046 0.828-0.567 0.551-0.85 1.216-0.85 1.993 0 0.778 0.283 1.442 0.85 1.994 0.566 0.552 1.248 0.828 2.046 0.828s1.48-0.276 2.046-0.828c0.567-0.552 0.85-1.216 0.85-1.994 0-0.777-0.283-1.442-0.85-1.993-0.566-0.552-1.248-0.828-2.046-0.828z"
     style="fill-opacity:0.8;fill-rule:nonzero;fill:#000000"
     id="path12" />
  <defs
     id="defs19">
    <linearGradient
       inkscape:collect="always"
       id="linearGradient824">
      <stop
         style="stop-color:#790bf8;stop-opacity:1"
         offset="0"
         id="stop820" />
      <stop
         style="stop-color:#8bf6ff;stop-opacity:1"
         offset="1"
         id="stop822" />
    </linearGradient>
    <linearGradient
       id="_Linear1"
       x2="-0.19955927"
       gradientTransform="matrix(2.65364e-15,-43.3373,43.3373,2.65364e-15,201.9,45.6687)"
       gradientUnits="userSpaceOnUse"
       x1="0.85668296"
       y1="-4.1097021"
       y2="-4.0975189">
      <stop
         style="stop-color:#55ddff;stop-opacity:1"
         offset="0"
         id="stop14" />
      <stop
         style="stop-color:#00ffcc;stop-opacity:1"
         offset="1"
         id="stop16" />
    </linearGradient>
    <linearGradient
       inkscape:collect="always"
       xlink:href="#linearGradient824"
       id="linearGradient826"
       x1="78.748932"
       y1="27.07922"
       x2="-2.8883114"
       y2="26.429617"
       gradientUnits="userSpaceOnUse" />
  </defs>
</svg>
