<?xml version="1.0" encoding="UTF-8" standalone="no"?>
<svg
   xmlns:dc="http://purl.org/dc/elements/1.1/"
   xmlns:cc="http://creativecommons.org/ns#"
   xmlns:rdf="http://www.w3.org/1999/02/22-rdf-syntax-ns#"
   xmlns:svg="http://www.w3.org/2000/svg"
   xmlns="http://www.w3.org/2000/svg"
   xmlns:sodipodi="http://sodipodi.sourceforge.net/DTD/sodipodi-0.dtd"
   xmlns:inkscape="http://www.inkscape.org/namespaces/inkscape"
   style="clip-rule:evenodd;fill-rule:evenodd;stroke-linejoin:round;stroke-miterlimit:2"
   version="1.1"
   viewBox="0 0 48 48"
   id="svg31"
   sodipodi:docname="io.github.TransmissionRemoteGtk.svg"
   inkscape:version="0.92.4 5da689c313, 2019-01-14">
  <metadata
     id="metadata35">
    <rdf:RDF>
      <cc:Work
         rdf:about="">
        <dc:format>image/svg+xml</dc:format>
        <dc:type
           rdf:resource="http://purl.org/dc/dcmitype/StillImage" />
      </cc:Work>
    </rdf:RDF>
  </metadata>
  <sodipodi:namedview
     pagecolor="#ffffff"
     bordercolor="#666666"
     borderopacity="1"
     objecttolerance="10"
     gridtolerance="10"
     guidetolerance="10"
     inkscape:pageopacity="0"
     inkscape:pageshadow="2"
     inkscape:window-width="1920"
     inkscape:window-height="1050"
     id="namedview33"
     showgrid="false"
     inkscape:zoom="16.440104"
     inkscape:cx="7.4246792"
     inkscape:cy="24"
     inkscape:window-x="0"
     inkscape:window-y="30"
     inkscape:window-maximized="1"
     inkscape:current-layer="svg31" />
  <path
     d="m24.002 2.143c-12.058 0-21.854 9.796-21.854 21.855 0 12.058 9.796 21.854 21.854 21.854 12.059 0 21.855-9.796 21.855-21.854 0-12.059-9.796-21.855-21.855-21.855z"
     style="fill-rule:nonzero;fill:url(#_Radial1)"
     id="path2" />
  <path
     d="m26.32 12.328c-4.908 0-9.493 1.893-12.922 5.327-3.41 3.42-5.283 7.979-5.273 12.85 0.014 10.145 7.601 14.773 16.926 14.314 0.012 1e-3 0.025 0 0.037 0 3.566 0.053 7.155-1.381 8.994-2.497 0.013-2e-3 0.024-4e-3 0.038-7e-3 2.575-1.472 3.955-2.784 3.955-2.784-2.71 0.293-6.552 0.52-12.015-1.472-3.292-1.198-4.665-3.385-4.917-3.837 0 0-0.011-0.014-0.011-0.019-0.604-1.051-0.894-2.198-0.894-3.33 0-2.312 1.199-4.562 3.339-5.803 1.546-0.889 3.349-1.126 5.076-0.665 1.721 0.461 3.163 1.57 4.058 3.116l2.786-1.484-0.052-0.096c-1.313-2.278-3.434-3.904-5.973-4.589-2.54-0.68-5.194-0.329-7.473 0.983h-2e-3c-3.153 1.822-4.916 5.139-4.916 8.544 0 1.579 0.393 3.171 1.188 4.646l-0.01 0.01c0 4e-3 0.028 0.052 0.038 0.071h-4e-3s0.019 0.028 0.033 0.052c0.019 0.038 0.066 0.125 0.071 0.129 0.495 0.852 2.402 3.718 6.582 5.24 4.885 1.783 6.653 1.708 8.894 1.322-1.95 0.939-6.477 2.21-12.891-2.195-5.189-3.567-6.807-9.911-3.844-15.086 1.389-2.421 3.7-4.175 6.516-4.931 2.887-0.78 5.874-0.4 8.414 1.065l1.578-2.739c-3.273-1.888-7.115-2.379-10.816-1.38-3.633 0.98-6.63 3.257-8.437 6.415-3.795 6.635-1.779 14.734 4.794 19.257 0.992 0.871 2.127 1.418 3.322 1.732-6.778-1.144-11.215-6.62-11.228-13.992-4e-3 -4.023 1.537-7.79 4.352-10.611 2.83-2.834 6.625-4.4 10.686-4.4v-3.157l1e-3 1e-3z"
     style="fill-opacity:.19;fill-rule:nonzero"
     id="path4" />
  <path
     d="m23.706 9.168l-8.528 8.958h3.198v11.945h-3.198l8.528 8.958 8.529-8.958h-3.198v-11.945h3.198l-8.529-8.958z"
     style="fill-rule:nonzero;fill:#00ccff"
     id="path6" />
  <path
     d="m23.935 1.236c-12.585 0-22.828 10.243-22.828 22.828s10.243 22.828 22.828 22.828 22.828-10.243 22.828-22.828-10.243-22.828-22.828-22.828zm0 2.075c11.461 0 20.753 9.292 20.753 20.753s-9.292 20.753-20.753 20.753-20.752-9.292-20.752-20.753 9.291-20.753 20.752-20.753z"
     style="fill-rule:nonzero;fill:url(#_Linear3)"
     id="path8" />
  <defs
     id="defs29">
    <radialGradient
       id="_Radial1"
       cx="0"
       cy="0"
       r="1"
       gradientTransform="matrix(0 53.2787 -56.3625 -1.42636e-6 24.0026 -.397175)"
       gradientUnits="userSpaceOnUse">
      <stop
         style="stop-color:#e4e4e4"
         offset="0"
         id="stop10" />
      <stop
         style="stop-color:#d2d2d3"
         offset=".37"
         id="stop12" />
      <stop
         style="stop-color:#ababac"
         offset=".81"
         id="stop14" />
      <stop
         style="stop-color:#888889"
         offset="1"
         id="stop16" />
    </radialGradient>
    <linearGradient
       id="_Linear2"
       x2="1"
       gradientTransform="matrix(1.82845e-15,29.8608,-29.8608,1.82845e-15,23.7062,9.16813)"
       gradientUnits="userSpaceOnUse">
      <stop
         style="stop-color:#ff4035"
         offset="0"
         id="stop19" />
      <stop
         style="stop-color:#dc311a"
         offset="1"
         id="stop21" />
    </linearGradient>
    <linearGradient
       id="_Linear3"
       x2="1"
       gradientTransform="matrix(.265861 -45.8478 45.8478 .265861 23.6695 45.5893)"
       gradientUnits="userSpaceOnUse">
      <stop
         style="stop-color:#8b8b8b"
         offset="0"
         id="stop24" />
      <stop
         style="stop-color:#c0c0c0"
         offset="1"
         id="stop26" />
    </linearGradient>
  </defs>
</svg>
