<?xml version="1.0" encoding="UTF-8" standalone="no"?>
<svg
   xmlns:dc="http://purl.org/dc/elements/1.1/"
   xmlns:cc="http://creativecommons.org/ns#"
   xmlns:rdf="http://www.w3.org/1999/02/22-rdf-syntax-ns#"
   xmlns:svg="http://www.w3.org/2000/svg"
   xmlns="http://www.w3.org/2000/svg"
   xmlns:sodipodi="http://sodipodi.sourceforge.net/DTD/sodipodi-0.dtd"
   xmlns:inkscape="http://www.inkscape.org/namespaces/inkscape"
   style="clip-rule:evenodd;fill-rule:evenodd;stroke-linejoin:round;stroke-miterlimit:2"
   version="1.1"
   viewBox="0 0 48 48"
   id="svg32"
   sodipodi:docname="mate-panel-force-quit.svg"
   inkscape:version="0.92.4 5da689c313, 2019-01-14">
  <metadata
     id="metadata36">
    <rdf:RDF>
      <cc:Work
         rdf:about="">
        <dc:format>image/svg+xml</dc:format>
        <dc:type
           rdf:resource="http://purl.org/dc/dcmitype/StillImage" />
      </cc:Work>
    </rdf:RDF>
  </metadata>
  <sodipodi:namedview
     pagecolor="#ffffff"
     bordercolor="#666666"
     borderopacity="1"
     objecttolerance="10"
     gridtolerance="10"
     guidetolerance="10"
     inkscape:pageopacity="0"
     inkscape:pageshadow="2"
     inkscape:window-width="1920"
     inkscape:window-height="1050"
     id="namedview34"
     showgrid="false"
     inkscape:zoom="5.8124546"
     inkscape:cx="29.322351"
     inkscape:cy="24"
     inkscape:window-x="0"
     inkscape:window-y="30"
     inkscape:window-maximized="1"
     inkscape:current-layer="svg32" />
  <circle
     cx="24"
     cy="24"
     r="22.764"
     style="fill:url(#_Linear1)"
     id="circle2" />
  <path
     d="m35.382 35.382h-6.07l-6.071-9.106 9.106-13.658h1.517l-6.829 10.623 8.347 12.141z"
     style="fill-rule:nonzero;fill:url(#_Linear2)"
     id="path4" />
  <path
     d="m12.618 12.618h6.07l6.071 9.106-9.106 13.658h-1.517l6.829-10.623-8.347-12.141z"
     style="fill-rule:nonzero;fill:url(#_Linear3)"
     id="path6" />
  <path
     d="m23.241 15.673l-0.047 0.047c-0.306 0.017-0.603 0.059-0.901 0.095l2.134 3.177c0.38-0.976 1.374-1.546 2.513-1.517 0.252 6e-3 0.499 0.079 0.759 0.142 0.032 7e-3 0.064-9e-3 0.095 0 0.345 0.101 0.671 0.245 0.996 0.379l0.759-1.185c-1.644-0.738-3.53-1.138-5.549-1.138-0.236 0-0.479 0.036-0.711 0.047l-0.048-0.047zm7.493 1.802l-0.711 1.138c2.308 1.378 3.841 3.619 3.841 6.165 0 4.191-4.076 7.588-9.105 7.588s-9.106-3.397-9.106-7.588c0-1.801 0.775-3.441 2.039-4.742l-1.327-1.992c-2.302 1.658-3.747 4.055-3.747 6.734 0 5.029 5.096 9.106 11.382 9.106s11.382-4.077 11.382-9.106c0-3.008-1.837-5.645-4.648-7.303z"
     style="fill-rule:nonzero;fill:url(#_Linear4)"
     id="path8" />
  <defs
     id="defs30">
    <linearGradient
       id="_Linear1"
       x2="1"
       gradientTransform="matrix(.0298995 -45.8139 45.8139 .0298995 24.6941 47.1042)"
       gradientUnits="userSpaceOnUse">
      <stop
         style="stop-color:#bfbfbf"
         offset="0"
         id="stop10" />
      <stop
         style="stop-color:#fff"
         offset="1"
         id="stop12" />
    </linearGradient>
    <linearGradient
       id="_Linear2"
       x2="1"
       gradientTransform="matrix(12.1408,0,0,12.1408,23.2412,24)"
       gradientUnits="userSpaceOnUse">
      <stop
         style="stop-color:#2e3e46"
         offset="0"
         id="stop15" />
      <stop
         style="stop-color:#47606a"
         offset="1"
         id="stop17" />
    </linearGradient>
    <linearGradient
       id="_Linear3"
       x2="1"
       gradientTransform="matrix(12.1408,0,0,12.1408,12.618,24)"
       gradientUnits="userSpaceOnUse">
      <stop
         style="stop-color:#2e3e46"
         offset="0"
         id="stop20" />
      <stop
         style="stop-color:#47606a"
         offset="1"
         id="stop22" />
    </linearGradient>
    <linearGradient
       id="_Linear4"
       x2="1.6493117"
       gradientTransform="matrix(22.764,0,0,22.764,12.618,24.7782)"
       gradientUnits="userSpaceOnUse"
       y2="0.0026720644"
       x1="-0.52372456"
       y1="-0.053441279">
      <stop
         style="stop-color:#d42aff;stop-opacity:1"
         offset="0"
         id="stop25" />
      <stop
         style="stop-color:#4400aa;stop-opacity:1"
         offset="1"
         id="stop27" />
    </linearGradient>
  </defs>
</svg>
