<?xml version="1.0" encoding="UTF-8" standalone="no"?>
<svg
   xmlns:dc="http://purl.org/dc/elements/1.1/"
   xmlns:cc="http://creativecommons.org/ns#"
   xmlns:rdf="http://www.w3.org/1999/02/22-rdf-syntax-ns#"
   xmlns:svg="http://www.w3.org/2000/svg"
   xmlns="http://www.w3.org/2000/svg"
   xmlns:sodipodi="http://sodipodi.sourceforge.net/DTD/sodipodi-0.dtd"
   xmlns:inkscape="http://www.inkscape.org/namespaces/inkscape"
   id="svg2"
   width="44"
   height="40"
   version="1.1"
   viewBox="0 0 11.64 10.58"
   sodipodi:docname="busywidget.svg"
   inkscape:version="0.92.4 5da689c313, 2019-01-14">
  <metadata
     id="metadata16">
    <rdf:RDF>
      <cc:Work
         rdf:about="">
        <dc:format>image/svg+xml</dc:format>
        <dc:type
           rdf:resource="http://purl.org/dc/dcmitype/StillImage" />
      </cc:Work>
    </rdf:RDF>
  </metadata>
  <defs
     id="defs14" />
  <sodipodi:namedview
     pagecolor="#ffffff"
     bordercolor="#666666"
     borderopacity="1"
     objecttolerance="10"
     gridtolerance="10"
     guidetolerance="10"
     inkscape:pageopacity="0"
     inkscape:pageshadow="2"
     inkscape:window-width="1920"
     inkscape:window-height="1050"
     id="namedview12"
     showgrid="false"
     inkscape:zoom="5.9"
     inkscape:cx="-24.186441"
     inkscape:cy="20"
     inkscape:window-x="0"
     inkscape:window-y="30"
     inkscape:window-maximized="1"
     inkscape:current-layer="svg2" />
  <rect
     id="hint-rotation-angle"
     style="fill:#8bf6ff;fill-opacity:1"
     width="3.704"
     height="3.704"
     x="0"
     y="0" />
  <g
     id="stopped"
     transform="translate(-3.9683821,0.5291173)">
    <rect
       id="rect4143"
       style="opacity:0.001"
       width="5.82"
       height="5.82"
       x="9.79"
       y="4.23" />
    <path
       id="path826"
       style="opacity:1;fill:#eff0f1"
       transform="matrix(0.26455882,0,0,0.26455882,0,-0.00117647)"
       d="M 48,17 A 9.9999987,10.000001 0 0 0 38,27 9.9999987,10.000001 0 0 0 48,37 9.9999987,10.000001 0 0 0 58,27 9.9999987,10.000001 0 0 0 48,17 Z m 0,2 a 7.9999978,7.9999997 0 0 1 8,8 7.9999978,7.9999997 0 0 1 -8,8 7.9999978,7.9999997 0 0 1 -8,-8 7.9999978,7.9999997 0 0 1 8,-8 z" />
  </g>
  <g
     id="busywidget"
     transform="matrix(0.26455882,0,0,0.26455882,-80.161322,-85.263532)">
    <rect
       id="rect1459"
       style="opacity:0.001"
       width="22"
       height="22"
       x="303"
       y="340.28" />
    <path
       id="path1455"
       style="opacity:0.001"
       d="m 306.92892,344.24143 a 9.9999993,9.9999993 0 0 0 -2e-5,14.14212 9.9999993,9.9999993 0 0 0 14.14216,2e-5 9.9999993,9.9999993 0 0 0 -2e-5,-14.14216 9.9999993,9.9999993 0 0 0 -14.14212,2e-5 z m 1.43629,1.43629 a 7.9999992,7.9999992 0 0 1 11.31372,10e-6 7.9999992,7.9999992 0 0 1 0,11.31371 7.9999992,7.9999992 0 0 1 -11.31371,0 7.9999992,7.9999992 0 0 1 -1e-5,-11.31372 z" />
    <path
       id="path1457"
       style="opacity:1;fill:#eff0f1"
       d="m 319.63475,344.21934 a 0.99999995,0.99999995 0 0 0 0,1.41421 l -10e-4,10e-4 a 7.9999994,7.9999994 0 0 1 0.0235,0.0207 7.9999994,7.9999994 0 0 1 0,11.31371 l -0.0221,-0.0221 a 0.99999995,0.99999995 0 0 0 0,1.41421 0.99999995,0.99999995 0 0 0 1.41421,0 9.9999995,9.9999995 0 0 0 0,-14.14213 0.99999995,0.99999995 0 0 0 -1.41421,0 z" />
    <path
       id="path1472"
       style="opacity:1;fill:#eff0f1"
       d="m 308.36523,344.21933 a 0.99999995,0.99999995 0 0 1 0,1.41422 l 10e-4,10e-4 a 7.9999994,7.9999994 0 0 0 -0.0235,0.0207 7.9999994,7.9999994 0 0 0 0,11.31371 l 0.0221,-0.0221 a 0.99999995,0.99999995 0 0 1 0,1.41421 0.99999995,0.99999995 0 0 1 -1.41421,0 9.9999995,9.9999995 0 0 1 0,-14.14214 0.99999995,0.99999995 0 0 1 1.41421,0 z" />
  </g>
</svg>
