<?xml version="1.0" encoding="UTF-8" standalone="no"?>
<svg
   xmlns:dc="http://purl.org/dc/elements/1.1/"
   xmlns:cc="http://creativecommons.org/ns#"
   xmlns:rdf="http://www.w3.org/1999/02/22-rdf-syntax-ns#"
   xmlns:svg="http://www.w3.org/2000/svg"
   xmlns="http://www.w3.org/2000/svg"
   xmlns:sodipodi="http://sodipodi.sourceforge.net/DTD/sodipodi-0.dtd"
   xmlns:inkscape="http://www.inkscape.org/namespaces/inkscape"
   id="svg2"
   width="42"
   height="36"
   version="1.1"
   sodipodi:docname="lineedit.svg"
   inkscape:version="0.92.4 5da689c313, 2019-01-14">
  <metadata
     id="metadata35">
    <rdf:RDF>
      <cc:Work
         rdf:about="">
        <dc:format>image/svg+xml</dc:format>
        <dc:type
           rdf:resource="http://purl.org/dc/dcmitype/StillImage" />
      </cc:Work>
    </rdf:RDF>
  </metadata>
  <defs
     id="defs33" />
  <sodipodi:namedview
     pagecolor="#ffffff"
     bordercolor="#666666"
     borderopacity="1"
     objecttolerance="10"
     gridtolerance="10"
     guidetolerance="10"
     inkscape:pageopacity="0"
     inkscape:pageshadow="2"
     inkscape:window-width="1920"
     inkscape:window-height="1050"
     id="namedview31"
     showgrid="false"
     inkscape:zoom="26.222222"
     inkscape:cx="-20.567797"
     inkscape:cy="11.898305"
     inkscape:window-x="0"
     inkscape:window-y="30"
     inkscape:window-maximized="1"
     inkscape:current-layer="svg2" />
  <g
     id="base-top"
     transform="matrix(0.83333333,0,0,1,-9.83333,-53)">
    <path
       id="rect993"
       style="opacity:0.2;fill:#ffffff"
       transform="translate(1,53)"
       d="M 12,0.5 35.999996,1 60,0.5 35.999996,0 Z" />
    <path
       id="rect956"
       style="opacity:0.001"
       d="M 13,54 H 61 V 65 H 13 Z" />
  </g>
  <g
     id="base-left"
     transform="matrix(0.09090909,0,0,1.0000001,-0.18181,-53)">
    <path
       id="rect966"
       style="opacity:0.001"
       d="M 2.0000001,64.999999 H 13 V 76.999998 H 2.0000001 Z" />
  </g>
  <rect
     id="base-center"
     style="opacity:0.001"
     width="40"
     height="12"
     x="1"
     y="12" />
  <g
     id="base-right"
     transform="matrix(0.09090904,0,0,1,35.45456,-52.99999)">
    <path
       id="rect970"
       style="opacity:0.001"
       d="M 61,64.999995 72,65 v 11.999999 l -11,-5e-6 z" />
  </g>
  <g
     id="base-bottom"
     transform="matrix(0.83333332,0,0,1,-9.83333,-52.99999)">
    <path
       id="rect999"
       style="opacity:0.2;fill:#ffffff"
       transform="translate(1,53)"
       d="M 12,35.49999 36.000009,36 60,35.49999 36.000009,35 Z" />
    <path
       id="rect974"
       style="opacity:0.001"
       d="m 12.999999,88 h 48 V 76.999999 h -48 z" />
  </g>
  <rect
     id="base-hint-top-margin"
     style="opacity:1;fill:#ff0000"
     width="2"
     height="1"
     x="20"
     y="0" />
  <rect
     id="base-hint-right-margin"
     style="opacity:1;fill:#ff0000"
     width="2"
     height="1"
     x="-19"
     y="41"
     transform="rotate(-90)" />
  <rect
     id="base-hint-left-margin"
     style="opacity:1;fill:#ff0000"
     width="2"
     height="1"
     x="-19"
     y="0"
     transform="rotate(-90)" />
  <rect
     id="base-hint-bottom-margin"
     style="opacity:1;fill:#ff0000"
     width="2"
     height="1"
     x="20"
     y="35" />
  <g
     id="base-topleft"
     transform="matrix(0.08333335,0,0,1,-24.09524,-546.64795)">
    <path
       id="rect842"
       style="opacity:0.001"
       transform="translate(289.14285,546.64795)"
       d="M 3e-6,0.99999925 12,1 V 0 L 3e-6,-7.5405274e-7 Z" />
    <rect
       id="rect847"
       style="opacity:0.001"
       width="12"
       height="11"
       x="289.14"
       y="547.65" />
  </g>
  <g
     id="base-bottomleft"
     transform="matrix(0.08333331,0,0,1,-24.09522,-546.64794)">
    <rect
       id="rect851"
       style="opacity:0.001"
       width="12"
       height="11"
       x="289.14"
       y="-581.65"
       transform="scale(1,-1)" />
    <path
       id="path904"
       style="opacity:0.001"
       d="m 289.14285,582.64795 v -1 h 12 v 1 z" />
  </g>
  <g
     id="base-topright"
     transform="matrix(0.08333331,0,0,1,11.90477,-546.64794)">
    <rect
       id="rect855"
       style="opacity:0.001"
       width="12"
       height="11"
       x="-361.14"
       y="547.65"
       transform="scale(-1,1)" />
    <path
       id="path906"
       style="opacity:0.001"
       d="m 361.14285,547.64795 h -12 v -1 h 12 z" />
  </g>
  <g
     id="base-bottomright"
     transform="matrix(0.08333331,0,0,1,11.90478,-546.64794)">
    <rect
       id="rect859"
       style="opacity:0.001"
       width="12"
       height="11"
       x="-361.14"
       y="-581.65"
       transform="scale(-1)" />
    <path
       id="path908"
       style="opacity:0.001"
       d="m 361.14285,582.64795 v -1 h -12 v 1 z" />
  </g>
  <rect
     id="hint-stretch-borders"
     style="opacity:1;fill:#ff0000"
     width="1"
     height="1"
     x="-1"
     y="35" />
  <path
     style="opacity:0.95;fill:#8bf6ff;fill-opacity:1;stroke-width:0.03813559"
     d="m -0.99661015,35.492797 v -0.476695 h 0.49576271 0.49576272 v 0.476695 0.476695 h -0.49576272 -0.49576271 z"
     id="path842"
     inkscape:connector-curvature="0" />
  <path
     style="opacity:0.95;fill:#8bf6ff;fill-opacity:1;stroke-width:0.03813559"
     d="m 20.016102,35.492797 v -0.476695 h 0.991525 0.991526 v 0.476695 0.476695 h -0.991526 -0.991525 z"
     id="path844"
     inkscape:connector-curvature="0" />
  <path
     style="opacity:0.95;fill:#8bf6ff;fill-opacity:1;stroke-width:0.03813559"
     d="M 0.03305087,18.007627 V 17.016102 H 0.50974578 0.9864407 v 0.991525 0.991526 H 0.50974578 0.03305087 Z"
     id="path846"
     inkscape:connector-curvature="0" />
  <path
     style="opacity:0.95;fill:#8bf6ff;fill-opacity:1;stroke-width:0.03813559"
     d="M 20.016102,0.50338981 V 0.0076271 h 0.991525 0.991526 v 0.49576271 0.49576271 h -0.991526 -0.991525 z"
     id="path848"
     inkscape:connector-curvature="0" />
  <path
     style="opacity:0.95;fill:#8bf6ff;fill-opacity:1;stroke-width:0.03813559"
     d="m 41.028814,18.007627 v -0.991525 h 0.476695 0.476694 v 0.991525 0.991526 h -0.476694 -0.476695 z"
     id="path850"
     inkscape:connector-curvature="0" />
</svg>
