<?xml version="1.0" encoding="UTF-8" standalone="no"?>
<svg
   xmlns:dc="http://purl.org/dc/elements/1.1/"
   xmlns:cc="http://creativecommons.org/ns#"
   xmlns:rdf="http://www.w3.org/1999/02/22-rdf-syntax-ns#"
   xmlns:svg="http://www.w3.org/2000/svg"
   xmlns="http://www.w3.org/2000/svg"
   xmlns:sodipodi="http://sodipodi.sourceforge.net/DTD/sodipodi-0.dtd"
   xmlns:inkscape="http://www.inkscape.org/namespaces/inkscape"
   style="clip-rule:evenodd;fill-rule:evenodd;stroke-linejoin:round;stroke-miterlimit:2"
   version="1.1"
   viewBox="0 0 64 64"
   id="svg19"
   sodipodi:docname="application-vnd.debian.binary-package.svg"
   inkscape:version="0.92.4 5da689c313, 2019-01-14">
  <metadata
     id="metadata23">
    <rdf:RDF>
      <cc:Work
         rdf:about="">
        <dc:format>image/svg+xml</dc:format>
        <dc:type
           rdf:resource="http://purl.org/dc/dcmitype/StillImage" />
      </cc:Work>
    </rdf:RDF>
  </metadata>
  <sodipodi:namedview
     pagecolor="#ffffff"
     bordercolor="#666666"
     borderopacity="1"
     objecttolerance="10"
     gridtolerance="10"
     guidetolerance="10"
     inkscape:pageopacity="0"
     inkscape:pageshadow="2"
     inkscape:window-width="1920"
     inkscape:window-height="1050"
     id="namedview21"
     showgrid="false"
     inkscape:zoom="12.819824"
     inkscape:cx="10.743858"
     inkscape:cy="32"
     inkscape:window-x="0"
     inkscape:window-y="30"
     inkscape:window-maximized="1"
     inkscape:current-layer="svg19" />
  <path
     d="m54 3.146c0-0.926-0.751-1.677-1.677-1.677h-34.705c-2.02 0-3.958 0.803-5.387 2.231-1.428 1.429-2.231 3.367-2.231 5.387v45.295c0 2.02 0.803 3.958 2.231 5.387 1.429 1.428 3.367 2.231 5.387 2.231h28.764c2.02 0 3.958-0.803 5.387-2.231 1.428-1.429 2.231-3.367 2.231-5.387v-51.236z"
     style="fill:url(#_Linear1);fill-opacity:1"
     id="path2" />
  <path
     d="m27.39 59.371c-0.519 0-0.968-0.205-1.345-0.615-0.377-0.409-0.565-0.918-0.565-1.524s0.188-1.115 0.565-1.524c0.377-0.41 0.826-0.615 1.345-0.615 0.306 0 0.579 0.066 0.819 0.197 0.246 0.131 0.429 0.295 0.549 0.491h0.033l-0.033-0.557v-1.852h0.754v5.868h-0.721v-0.557h-0.033c-0.12 0.196-0.303 0.36-0.549 0.491-0.24 0.131-0.513 0.197-0.819 0.197zm0.122-0.688c0.356 0 0.656-0.132 0.902-0.394 0.251-0.262 0.377-0.614 0.377-1.057s-0.126-0.795-0.377-1.057c-0.246-0.262-0.546-0.394-0.902-0.394-0.349 0-0.65 0.134-0.901 0.402-0.251 0.262-0.377 0.612-0.377 1.049s0.126 0.789 0.377 1.057c0.251 0.262 0.552 0.394 0.901 0.394z"
     style="fill-rule:nonzero;fill:#fff"
     id="path4" />
  <path
     d="m32.203 59.371c-0.607 0-1.101-0.202-1.484-0.606-0.377-0.405-0.565-0.916-0.565-1.533 0-0.585 0.183-1.087 0.549-1.508 0.372-0.421 0.844-0.631 1.418-0.631 0.595 0 1.071 0.194 1.426 0.582 0.361 0.388 0.541 0.907 0.541 1.557l-8e-3 0.139h-3.172c0.022 0.405 0.156 0.724 0.402 0.959 0.251 0.235 0.543 0.353 0.876 0.353 0.541 0 0.907-0.23 1.099-0.689l0.672 0.279c-0.131 0.311-0.347 0.573-0.648 0.787-0.3 0.207-0.669 0.311-1.106 0.311zm1.082-2.623c-0.017-0.229-0.123-0.448-0.32-0.655-0.191-0.208-0.478-0.312-0.86-0.312-0.279 0-0.522 0.088-0.73 0.263-0.202 0.174-0.341 0.409-0.418 0.704h2.328z"
     style="fill-rule:nonzero;fill:#fff"
     id="path6" />
  <path
     d="m36.892 59.371c-0.306 0-0.582-0.066-0.828-0.197-0.24-0.131-0.42-0.295-0.541-0.491h-0.032v0.557h-0.722v-5.868h0.754v1.852l-0.032 0.557h0.032c0.121-0.196 0.301-0.36 0.541-0.491 0.246-0.131 0.522-0.197 0.828-0.197 0.519 0 0.967 0.205 1.344 0.615 0.377 0.409 0.566 0.918 0.566 1.524s-0.189 1.115-0.566 1.524c-0.377 0.41-0.825 0.615-1.344 0.615zm-0.123-0.688c0.35 0 0.65-0.132 0.902-0.394 0.251-0.268 0.377-0.62 0.377-1.057s-0.126-0.787-0.377-1.049c-0.252-0.268-0.552-0.402-0.902-0.402-0.355 0-0.658 0.132-0.91 0.394-0.246 0.262-0.368 0.614-0.368 1.057s0.122 0.795 0.368 1.057c0.252 0.262 0.555 0.394 0.91 0.394z"
     style="fill-rule:nonzero;fill:#fff"
     id="path8" />
  <path
     d="m33.445 38c-3.358-1.208-5.353-2.691-7.541-6.001-0.536-0.911-1.523-2.946-1.486-5.602-0.087-2.648 1.251-5.699 3.748-7.327 2.411-1.719 5.523-1.744 7.375-1.066 1.909 0.709 2.684 1.89 2.706 1.834-0.059 0.015 1.023 0.924 1.505 2.904 0.537 1.904-9e-3 5.059-2.634 6.35-1.207 0.648-2.775 0.765-4.005 0.302-1.23-0.496-2.122-1.585-2.42-2.723-0.648-2.512 1.258-3.904 2.099-4.047 3.421-1.14 5.153 4.213 1.152 4.668 1.824 0.609 3.704-1.263 3.346-3.169-0.072-1.906-2.38-3.799-4.926-3.023-0.665 0.183-1.671 0.65-2.459 1.699-0.808 1.044-1.175 2.679-0.755 4.268 0.409 1.598 1.655 3.127 3.389 3.815 1.752 0.646 3.703 0.461 5.314-0.377 3.439-1.701 4.128-5.847 3.444-8.128-0.603-2.451-1.935-3.574-1.866-3.591-0.024 0.067-0.982-1.389-3.35-2.274-2.315-0.844-5.924-0.784-8.814 1.242-2.957 1.897-4.559 5.624-4.443 8.627-0.04 3.051 1.097 5.385 1.717 6.423 2.501 3.813 5.366 5.005 8.904 5.196"
     style="fill-opacity:.47;fill-rule:nonzero"
     id="path10" />
  <defs
     id="defs17">
    <linearGradient
       id="_Linear1"
       x2="-0.19419625"
       gradientTransform="matrix(3.03829e-15,-49.619,49.619,3.03829e-15,104.99,51.088)"
       gradientUnits="userSpaceOnUse"
       x1="0.98485094"
       y1="-1.4446524"
       y2="-1.4540849">
      <stop
         style="stop-color:#cd87de;stop-opacity:1"
         offset="0"
         id="stop12" />
      <stop
         style="stop-color:#672178;stop-opacity:1"
         offset="1"
         id="stop14" />
    </linearGradient>
  </defs>
</svg>
