<?xml version="1.0" encoding="UTF-8" standalone="no"?>
<svg
   xmlns:dc="http://purl.org/dc/elements/1.1/"
   xmlns:cc="http://creativecommons.org/ns#"
   xmlns:rdf="http://www.w3.org/1999/02/22-rdf-syntax-ns#"
   xmlns:svg="http://www.w3.org/2000/svg"
   xmlns="http://www.w3.org/2000/svg"
   xmlns:sodipodi="http://sodipodi.sourceforge.net/DTD/sodipodi-0.dtd"
   xmlns:inkscape="http://www.inkscape.org/namespaces/inkscape"
   style="clip-rule:evenodd;fill-rule:evenodd;stroke-linejoin:round;stroke-miterlimit:2"
   version="1.1"
   viewBox="0 0 64 64"
   id="svg19"
   sodipodi:docname="folder_tar.svg"
   inkscape:version="0.92.4 5da689c313, 2019-01-14">
  <metadata
     id="metadata23">
    <rdf:RDF>
      <cc:Work
         rdf:about="">
        <dc:format>image/svg+xml</dc:format>
        <dc:type
           rdf:resource="http://purl.org/dc/dcmitype/StillImage" />
      </cc:Work>
    </rdf:RDF>
  </metadata>
  <sodipodi:namedview
     pagecolor="#ffffff"
     bordercolor="#666666"
     borderopacity="1"
     objecttolerance="10"
     gridtolerance="10"
     guidetolerance="10"
     inkscape:pageopacity="0"
     inkscape:pageshadow="2"
     inkscape:window-width="1920"
     inkscape:window-height="1050"
     id="namedview21"
     showgrid="false"
     inkscape:zoom="9.0649846"
     inkscape:cx="7.9892594"
     inkscape:cy="31.407205"
     inkscape:window-x="0"
     inkscape:window-y="30"
     inkscape:window-maximized="1"
     inkscape:current-layer="svg19" />
  <path
     d="m54 3.146c0-0.926-0.751-1.677-1.677-1.677h-34.705c-2.02 0-3.958 0.803-5.387 2.231-1.428 1.429-2.231 3.367-2.231 5.387v45.295c0 2.02 0.803 3.958 2.231 5.387 1.429 1.428 3.367 2.231 5.387 2.231h28.764c2.02 0 3.958-0.803 5.387-2.231 1.428-1.429 2.231-3.367 2.231-5.387v-51.236z"
     style="fill:url(#_Linear1);fill-opacity:1"
     id="path2" />
  <path
     d="m42 18.285c0-1.262-1.023-2.285-2.285-2.285h-15.23c-1.262 0-2.285 1.023-2.285 2.285v17.43c0 1.262 1.023 2.285 2.285 2.285h15.23c1.262 0 2.285-1.023 2.285-2.285v-17.43z"
     style="fill:#2d1650"
     id="path4" />
  <path
     d="m33.245 24.663v1.1h-2.2v-1.1h2.2zm0-1.645v1.1h-2.2v-1.1h2.2zm0-1.608v1.1h-2.2v-1.1h2.2zm-0.024-1.636v1.1h-2.2v-1.1h2.2zm0.014-1.572v1.1h-2.2v-1.1h2.2zm4e-3 -1.591v1.1h-2.2v-1.1h2.2z"
     style="fill-opacity:.93;fill:#fff"
     id="path6" />
  <path
     d="m32.951 27.371v-0.694c0-0.194-0.157-0.351-0.349-0.351h-0.97c-0.193 0-0.349 0.157-0.349 0.351v0.693l-0.539 1.591c-0.151 0.443-0.079 0.935 0.193 1.317 0.272 0.381 0.713 0.608 1.18 0.608s0.908-0.227 1.18-0.608c0.271-0.382 0.344-0.874 0.193-1.317l-0.539-1.59zm-0.226 2.497c-0.279 0.393-0.937 0.393-1.217 0-0.14-0.197-0.177-0.451-0.1-0.68l0.181-0.533h1.055l0.181 0.533c0.078 0.229 0.04 0.483-0.1 0.68z"
     style="fill-rule:nonzero;fill:#fff"
     id="path8" />
  <path
     d="m32.097 59.171c-0.426 0-0.784-0.123-1.074-0.369-0.284-0.246-0.426-0.571-0.426-0.975 0-0.437 0.169-0.779 0.508-1.025 0.339-0.251 0.757-0.377 1.254-0.377 0.443 0 0.806 0.082 1.09 0.246v-0.114c0-0.295-0.101-0.53-0.303-0.705-0.202-0.181-0.451-0.271-0.746-0.271-0.219 0-0.418 0.052-0.598 0.156-0.175 0.104-0.295 0.246-0.361 0.426l-0.688-0.295c0.093-0.24 0.276-0.462 0.549-0.664 0.273-0.207 0.634-0.311 1.082-0.311 0.513 0 0.939 0.15 1.278 0.451 0.339 0.3 0.508 0.724 0.508 1.27v2.426h-0.721v-0.558h-0.033c-0.3 0.459-0.74 0.689-1.319 0.689zm-2.891-4.147h0.983v0.688h-0.983v2.049c0 0.437 0.18 0.656 0.541 0.656 0.136 0 0.251-0.022 0.344-0.066l0.262 0.648c-0.164 0.071-0.366 0.106-0.606 0.106-0.421 0-0.743-0.112-0.967-0.336-0.219-0.224-0.328-0.541-0.328-0.95v-2.107h-0.705v-0.688h0.705v-1.229h0.754v1.229zm6.568 4.016h-0.754v-4.016h0.721v0.656h0.033c0.077-0.219 0.232-0.399 0.467-0.541 0.241-0.142 0.473-0.213 0.697-0.213s0.413 0.032 0.565 0.098l-0.286 0.705c-0.099-0.038-0.233-0.058-0.402-0.058-0.273 0-0.516 0.11-0.729 0.328-0.208 0.213-0.312 0.495-0.312 0.844v2.197zm-3.554-0.558c0.311 0 0.592-0.114 0.844-0.344 0.257-0.235 0.385-0.511 0.385-0.827-0.213-0.175-0.533-0.263-0.959-0.263-0.366 0-0.642 0.079-0.828 0.238-0.185 0.158-0.278 0.344-0.278 0.557 0 0.197 0.084 0.353 0.254 0.467 0.169 0.115 0.363 0.172 0.582 0.172z"
     style="fill-rule:nonzero;fill:#fff"
     id="path10" />
  <defs
     id="defs17">
    <linearGradient
       id="_Linear1"
       x2="0.98494887"
       gradientTransform="matrix(1.07196,-49.7469,49.7469,1.07196,178.156,54.3653)"
       gradientUnits="userSpaceOnUse"
       x1="-0.8417896"
       y1="-2.8723323"
       y2="-2.8981333">
      <stop
         style="stop-color:#220055;stop-opacity:1"
         offset="0"
         id="stop12" />
      <stop
         style="stop-color:#aaaaff;stop-opacity:1"
         offset="1"
         id="stop14" />
    </linearGradient>
  </defs>
</svg>
