<?xml version="1.0" encoding="UTF-8" standalone="no"?>
<svg
   xmlns:dc="http://purl.org/dc/elements/1.1/"
   xmlns:cc="http://creativecommons.org/ns#"
   xmlns:rdf="http://www.w3.org/1999/02/22-rdf-syntax-ns#"
   xmlns:svg="http://www.w3.org/2000/svg"
   xmlns="http://www.w3.org/2000/svg"
   xmlns:sodipodi="http://sodipodi.sourceforge.net/DTD/sodipodi-0.dtd"
   xmlns:inkscape="http://www.inkscape.org/namespaces/inkscape"
   style="clip-rule:evenodd;fill-rule:evenodd;stroke-linejoin:round;stroke-miterlimit:2"
   version="1.1"
   viewBox="0 0 64 64"
   id="svg15"
   sodipodi:docname="application-x-yaml.svg"
   inkscape:version="0.92.4 5da689c313, 2019-01-14">
  <metadata
     id="metadata19">
    <rdf:RDF>
      <cc:Work
         rdf:about="">
        <dc:format>image/svg+xml</dc:format>
        <dc:type
           rdf:resource="http://purl.org/dc/dcmitype/StillImage" />
      </cc:Work>
    </rdf:RDF>
  </metadata>
  <sodipodi:namedview
     pagecolor="#ffffff"
     bordercolor="#666666"
     borderopacity="1"
     objecttolerance="10"
     gridtolerance="10"
     guidetolerance="10"
     inkscape:pageopacity="0"
     inkscape:pageshadow="2"
     inkscape:window-width="1920"
     inkscape:window-height="1050"
     id="namedview17"
     showgrid="false"
     inkscape:zoom="4.5324923"
     inkscape:cx="-11.746334"
     inkscape:cy="2.5895382"
     inkscape:window-x="0"
     inkscape:window-y="30"
     inkscape:window-maximized="1"
     inkscape:current-layer="svg15" />
  <path
     d="m54 3.146c0-0.926-0.751-1.677-1.677-1.677h-34.705c-2.02 0-3.958 0.803-5.387 2.231-1.428 1.429-2.231 3.367-2.231 5.387v45.295c0 2.02 0.803 3.958 2.231 5.387 1.429 1.428 3.367 2.231 5.387 2.231h28.764c2.02 0 3.958-0.803 5.387-2.231 1.428-1.429 2.231-3.367 2.231-5.387v-51.236z"
     style="fill:url(#_Linear1);fill-opacity:1"
     id="path2" />
  <path
     d="m31.976 26.883l5.586-10.47h2.636l-6.99 12.82v8.12h-2.464v-8.006l-6.975-12.933h2.664l5.543 10.469z"
     style="fill-rule:nonzero;fill:#660080"
     id="path4" />
  <path
     d="m31.981 58.456v-4.016h0.72v0.557h0.034c0.115-0.191 0.289-0.352 0.524-0.483 0.24-0.137 0.478-0.205 0.713-0.205 0.623 0 1.046 0.257 1.27 0.77 0.328-0.513 0.795-0.77 1.402-0.77 0.475 0 0.833 0.153 1.073 0.459 0.241 0.3 0.361 0.71 0.361 1.23v2.458h-0.754v-2.344c0-0.405-0.074-0.691-0.221-0.86-0.147-0.17-0.371-0.255-0.672-0.255-0.295 0-0.541 0.126-0.738 0.377-0.191 0.251-0.287 0.538-0.287 0.86v2.222h-0.754v-2.344c0-0.405-0.073-0.691-0.22-0.86-0.148-0.17-0.372-0.255-0.673-0.255-0.295 0-0.541 0.126-0.738 0.377-0.191 0.251-0.286 0.538-0.286 0.86v2.222h-0.754zm-2.881 0.131c-0.427 0-0.785-0.123-1.074-0.369-0.284-0.246-0.426-0.571-0.426-0.975 0-0.437 0.169-0.779 0.508-1.025 0.339-0.251 0.757-0.377 1.254-0.377 0.443 0 0.806 0.082 1.09 0.246v-0.114c0-0.295-0.101-0.53-0.303-0.705-0.202-0.18-0.451-0.27-0.746-0.27-0.218 0-0.417 0.052-0.598 0.155-0.175 0.104-0.295 0.246-0.36 0.426l-0.689-0.295c0.093-0.24 0.277-0.461 0.55-0.664 0.273-0.207 0.633-0.311 1.08-0.311 0.514 0 0.941 0.15 1.28 0.45 0.339 0.301 0.508 0.724 0.508 1.27v2.427h-0.722v-0.558h-0.032c-0.301 0.459-0.741 0.689-1.32 0.689zm0.123-0.689c0.311 0 0.593-0.115 0.844-0.344 0.257-0.235 0.385-0.51 0.385-0.827-0.213-0.175-0.533-0.263-0.959-0.263-0.366 0-0.642 0.079-0.827 0.238-0.186 0.159-0.279 0.344-0.279 0.557 0 0.197 0.085 0.352 0.254 0.467s0.363 0.172 0.582 0.172zm10.46 0.67h-0.754v-5.868h0.754v5.868zm-14.388 1.055h-0.713l0.855-1.852-1.515-3.442h0.75l1.095 2.64h0.015l1.065-2.64h0.75l-2.302 5.294z"
     style="fill-rule:nonzero;fill:#fff"
     id="path6" />
  <defs
     id="defs13">
    <linearGradient
       id="_Linear1"
       x2="-0.90038806"
       gradientTransform="matrix(3.03829e-15,-49.619,49.619,3.03829e-15,323.66,51.088)"
       gradientUnits="userSpaceOnUse"
       x1="1.3520627"
       y1="-5.9381089"
       y2="-5.9276624">
      <stop
         style="stop-color:#c6afe9;stop-opacity:1"
         offset="0"
         id="stop8" />
      <stop
         style="stop-color:#440055;stop-opacity:1"
         offset="1"
         id="stop10" />
    </linearGradient>
  </defs>
</svg>
