<?xml version="1.0" encoding="UTF-8" standalone="no"?>
<svg
   xmlns:dc="http://purl.org/dc/elements/1.1/"
   xmlns:cc="http://creativecommons.org/ns#"
   xmlns:rdf="http://www.w3.org/1999/02/22-rdf-syntax-ns#"
   xmlns:svg="http://www.w3.org/2000/svg"
   xmlns="http://www.w3.org/2000/svg"
   xmlns:sodipodi="http://sodipodi.sourceforge.net/DTD/sodipodi-0.dtd"
   xmlns:inkscape="http://www.inkscape.org/namespaces/inkscape"
   style="clip-rule:evenodd;fill-rule:evenodd;stroke-linejoin:round;stroke-miterlimit:2"
   version="1.1"
   viewBox="0 0 64 64"
   id="svg19"
   sodipodi:docname="application-atom+xml.svg"
   inkscape:version="0.92.4 5da689c313, 2019-01-14">
  <metadata
     id="metadata23">
    <rdf:RDF>
      <cc:Work
         rdf:about="">
        <dc:format>image/svg+xml</dc:format>
        <dc:type
           rdf:resource="http://purl.org/dc/dcmitype/StillImage" />
      </cc:Work>
    </rdf:RDF>
  </metadata>
  <sodipodi:namedview
     pagecolor="#ffffff"
     bordercolor="#666666"
     borderopacity="1"
     objecttolerance="10"
     gridtolerance="10"
     guidetolerance="10"
     inkscape:pageopacity="0"
     inkscape:pageshadow="2"
     inkscape:window-width="1920"
     inkscape:window-height="1050"
     id="namedview21"
     showgrid="false"
     inkscape:zoom="12.819824"
     inkscape:cx="10.743858"
     inkscape:cy="32"
     inkscape:window-x="0"
     inkscape:window-y="30"
     inkscape:window-maximized="1"
     inkscape:current-layer="svg19" />
  <path
     d="m54 3.146c0-0.926-0.751-1.677-1.677-1.677h-34.705c-2.02 0-3.958 0.803-5.387 2.231-1.428 1.429-2.231 3.367-2.231 5.387v45.295c0 2.02 0.803 3.958 2.231 5.387 1.429 1.428 3.367 2.231 5.387 2.231h28.764c2.02 0 3.958-0.803 5.387-2.231 1.428-1.429 2.231-3.367 2.231-5.387v-51.236z"
     style="fill:url(#_Linear1);fill-opacity:1"
     id="path2" />
  <path
     d="m29.753 59.24h-0.885l-0.992-1.483-0.975 1.483h-0.885l1.418-2.041-1.385-1.975h0.852l0.992 1.418 0.942-1.418h0.885l-1.401 1.975 1.434 2.041z"
     style="fill-rule:nonzero;fill:#fff"
     id="path4" />
  <path
     d="m30.283 59.24v-4.016h0.721v0.558h0.033c0.115-0.192 0.29-0.353 0.525-0.484 0.24-0.137 0.478-0.205 0.713-0.205 0.622 0 1.046 0.257 1.27 0.77 0.328-0.513 0.795-0.77 1.401-0.77 0.476 0 0.833 0.153 1.074 0.459 0.24 0.301 0.36 0.71 0.36 1.229v2.459h-0.753v-2.344c0-0.404-0.074-0.691-0.222-0.86-0.147-0.17-0.371-0.254-0.672-0.254-0.295 0-0.541 0.125-0.737 0.376-0.192 0.252-0.287 0.539-0.287 0.861v2.221h-0.754v-2.344c0-0.404-0.074-0.691-0.222-0.86-0.147-0.17-0.371-0.254-0.672-0.254-0.295 0-0.54 0.125-0.737 0.376-0.191 0.252-0.287 0.539-0.287 0.861v2.221h-0.754z"
     style="fill-rule:nonzero;fill:#fff"
     id="path6" />
  <rect
     x="37.262"
     y="53.372"
     width=".754"
     height="5.868"
     style="fill-rule:nonzero;fill:#fff"
     id="rect8" />
  <path
     d="m23.094 16c1.829 0 3.59 0.237 5.283 0.71 1.693 0.474 3.278 1.144 4.754 2.01 1.476 0.867 2.82 1.906 4.032 3.117 1.211 1.212 2.251 2.556 3.117 4.032s1.536 3.061 2.01 4.754c0.473 1.693 0.71 3.454 0.71 5.283 0 0.578-0.205 1.071-0.614 1.48-0.409 0.41-0.902 0.614-1.48 0.614s-1.071-0.204-1.48-0.614c-0.41-0.409-0.614-0.902-0.614-1.48 0-1.444-0.189-2.836-0.566-4.176s-0.907-2.592-1.589-3.755c-0.682-1.164-1.5-2.223-2.455-3.177-0.954-0.955-2.013-1.773-3.177-2.455-1.163-0.682-2.415-1.212-3.755-1.589s-2.732-0.566-4.176-0.566c-0.578 0-1.071-0.204-1.48-0.614-0.409-0.409-0.614-0.902-0.614-1.48 0-0.577 0.205-1.071 0.614-1.48s0.902-0.614 1.48-0.614zm0 7.919c1.653 0 3.205 0.317 4.658 0.951 1.452 0.634 2.719 1.492 3.803 2.575 1.083 1.084 1.941 2.351 2.575 3.803 0.634 1.453 0.951 3.005 0.951 4.658 0 0.578-0.205 1.071-0.614 1.48s-0.902 0.614-1.48 0.614-1.071-0.205-1.481-0.614c-0.409-0.409-0.613-0.902-0.613-1.48 0-1.075-0.205-2.086-0.614-3.033s-0.967-1.773-1.673-2.479-1.532-1.264-2.479-1.673-1.958-0.614-3.033-0.614c-0.578 0-1.071-0.204-1.48-0.613-0.409-0.41-0.614-0.903-0.614-1.481 0-0.577 0.205-1.071 0.614-1.48s0.902-0.614 1.48-0.614zm3.851 11c0 0.417-0.076 0.802-0.228 1.155-0.153 0.354-0.361 0.662-0.626 0.927s-0.578 0.473-0.939 0.626c-0.361 0.152-0.742 0.229-1.143 0.229-0.417 0-0.803-0.077-1.156-0.229s-0.662-0.361-0.926-0.626c-0.265-0.265-0.474-0.574-0.626-0.927-0.153-0.353-0.229-0.738-0.229-1.155 0-0.401 0.076-0.782 0.229-1.143 0.152-0.361 0.361-0.674 0.626-0.939 0.264-0.265 0.573-0.473 0.926-0.626 0.353-0.152 0.739-0.228 1.156-0.228 0.401 0 0.782 0.076 1.143 0.228 0.361 0.153 0.674 0.361 0.939 0.626s0.473 0.578 0.626 0.939c0.152 0.361 0.228 0.742 0.228 1.143z"
     style="fill-rule:nonzero;fill:#170b28"
     id="path10" />
  <defs
     id="defs17">
    <linearGradient
       id="_Linear1"
       x2="-0.20677276"
       gradientTransform="matrix(3.03829e-15,-49.619,49.619,3.03829e-15,104.99,51.088)"
       gradientUnits="userSpaceOnUse"
       x1="0.9895671"
       y1="-1.4430804"
       y2="-1.4226435">
      <stop
         style="stop-color:#e3d7f4;stop-opacity:1"
         offset="0"
         id="stop12" />
      <stop
         style="stop-color:#9955ff;stop-opacity:1"
         offset="1"
         id="stop14" />
    </linearGradient>
  </defs>
</svg>
