<?xml version="1.0" encoding="UTF-8" standalone="no"?>
<svg
   xmlns:dc="http://purl.org/dc/elements/1.1/"
   xmlns:cc="http://creativecommons.org/ns#"
   xmlns:rdf="http://www.w3.org/1999/02/22-rdf-syntax-ns#"
   xmlns:svg="http://www.w3.org/2000/svg"
   xmlns="http://www.w3.org/2000/svg"
   xmlns:sodipodi="http://sodipodi.sourceforge.net/DTD/sodipodi-0.dtd"
   xmlns:inkscape="http://www.inkscape.org/namespaces/inkscape"
   style="clip-rule:evenodd;fill-rule:evenodd;stroke-linejoin:round;stroke-miterlimit:2"
   version="1.1"
   viewBox="0 0 64 64"
   id="svg19"
   sodipodi:docname="application-x-7z-compressed.svg"
   inkscape:version="0.92.4 5da689c313, 2019-01-14">
  <metadata
     id="metadata23">
    <rdf:RDF>
      <cc:Work
         rdf:about="">
        <dc:format>image/svg+xml</dc:format>
        <dc:type
           rdf:resource="http://purl.org/dc/dcmitype/StillImage" />
      </cc:Work>
    </rdf:RDF>
  </metadata>
  <sodipodi:namedview
     pagecolor="#ffffff"
     bordercolor="#666666"
     borderopacity="1"
     objecttolerance="10"
     gridtolerance="10"
     guidetolerance="10"
     inkscape:pageopacity="0"
     inkscape:pageshadow="2"
     inkscape:window-width="1920"
     inkscape:window-height="1050"
     id="namedview21"
     showgrid="false"
     inkscape:zoom="12.819824"
     inkscape:cx="10.743858"
     inkscape:cy="32"
     inkscape:window-x="0"
     inkscape:window-y="30"
     inkscape:window-maximized="1"
     inkscape:current-layer="svg19" />
  <path
     d="m54 3.146c0-0.926-0.751-1.677-1.677-1.677h-34.705c-2.02 0-3.958 0.803-5.387 2.231-1.428 1.429-2.231 3.367-2.231 5.387v45.295c0 2.02 0.803 3.958 2.231 5.387 1.429 1.428 3.367 2.231 5.387 2.231h28.764c2.02 0 3.958-0.803 5.387-2.231 1.428-1.429 2.231-3.367 2.231-5.387v-51.236z"
     style="fill:url(#_Linear1);fill-opacity:1"
     id="path2" />
  <path
     d="m33.697 60.81h-0.754v-5.786h0.722v0.557h0.032c0.121-0.196 0.301-0.36 0.541-0.491 0.246-0.132 0.522-0.197 0.828-0.197 0.519 0 0.967 0.205 1.344 0.615 0.377 0.409 0.566 0.917 0.566 1.524 0 0.606-0.189 1.114-0.566 1.524s-0.825 0.615-1.344 0.615c-0.306 0-0.582-0.066-0.828-0.197-0.24-0.131-0.42-0.295-0.541-0.492h-0.032l0.032 0.558v1.77zm-3.339-1.77h-3.245v-0.656l2.287-2.672h-2.221v-0.688h3.147v0.656l-2.287 2.671h2.319v0.689zm1.629 0h-0.754v-4.016h0.754v4.016zm2.956-0.558c0.35 0 0.65-0.131 0.902-0.393 0.251-0.268 0.377-0.62 0.377-1.057s-0.126-0.787-0.377-1.049c-0.252-0.268-0.552-0.402-0.902-0.402-0.355 0-0.658 0.131-0.91 0.394-0.246 0.262-0.368 0.614-0.368 1.057 0 0.442 0.122 0.795 0.368 1.057 0.252 0.262 0.555 0.393 0.91 0.393zm-2.956-4.466c-0.104 0.104-0.23 0.156-0.377 0.156-0.148 0-0.273-0.052-0.377-0.156s-0.156-0.23-0.156-0.377c0-0.148 0.052-0.273 0.156-0.377s0.229-0.156 0.377-0.156c0.147 0 0.273 0.052 0.377 0.156s0.156 0.229 0.156 0.377c0 0.147-0.052 0.273-0.156 0.377z"
     style="fill-rule:nonzero;fill:#fff"
     id="path4" />
  <path
     d="m42 18.285c0-1.262-1.023-2.285-2.285-2.285h-15.23c-1.262 0-2.285 1.023-2.285 2.285v17.43c0 1.262 1.023 2.285 2.285 2.285h15.23c1.262 0 2.285-1.023 2.285-2.285v-17.43z"
     style="fill:#002b00"
     id="path6" />
  <path
     d="m33.245 24.663v1.1h-2.2v-1.1h2.2zm0-1.645v1.1h-2.2v-1.1h2.2zm0-1.608v1.1h-2.2v-1.1h2.2zm-0.024-1.636v1.1h-2.2v-1.1h2.2zm0.014-1.572v1.1h-2.2v-1.1h2.2zm4e-3 -1.591v1.1h-2.2v-1.1h2.2z"
     style="fill-opacity:.93;fill:#fff"
     id="path8" />
  <path
     d="m32.951 27.371v-0.694c0-0.194-0.157-0.351-0.349-0.351h-0.97c-0.193 0-0.349 0.157-0.349 0.351v0.693l-0.539 1.591c-0.151 0.443-0.079 0.935 0.193 1.317 0.272 0.381 0.713 0.608 1.18 0.608s0.908-0.227 1.18-0.608c0.271-0.382 0.344-0.874 0.193-1.317l-0.539-1.59zm-0.226 2.497c-0.279 0.393-0.937 0.393-1.217 0-0.14-0.197-0.177-0.451-0.1-0.68l0.181-0.533h1.055l0.181 0.533c0.078 0.229 0.04 0.483-0.1 0.68z"
     style="fill-rule:nonzero;fill:#fff"
     id="path10" />
  <defs
     id="defs17">
    <linearGradient
       id="_Linear1"
       x2="-0.19236067"
       gradientTransform="matrix(1.07196,-49.7469,49.7469,1.07196,178.156,54.3653)"
       gradientUnits="userSpaceOnUse"
       x1="0.99450386"
       y1="-2.9284291"
       y2="-2.914891">
      <stop
         style="stop-color:#2aff2a;stop-opacity:1"
         offset="0"
         id="stop12" />
      <stop
         style="stop-color:#008000;stop-opacity:1"
         offset="1"
         id="stop14" />
    </linearGradient>
  </defs>
</svg>
