<?xml version="1.0" encoding="UTF-8" standalone="no"?>
<svg
   xmlns:dc="http://purl.org/dc/elements/1.1/"
   xmlns:cc="http://creativecommons.org/ns#"
   xmlns:rdf="http://www.w3.org/1999/02/22-rdf-syntax-ns#"
   xmlns:svg="http://www.w3.org/2000/svg"
   xmlns="http://www.w3.org/2000/svg"
   xmlns:xlink="http://www.w3.org/1999/xlink"
   xmlns:sodipodi="http://sodipodi.sourceforge.net/DTD/sodipodi-0.dtd"
   xmlns:inkscape="http://www.inkscape.org/namespaces/inkscape"
   id="svg7500"
   style="shape-rendering:crispEdges"
   height="12"
   width="36"
   version="1.1"
   sodipodi:docname="bar_meter_horizontal (1).svg"
   inkscape:version="0.92.4 5da689c313, 2019-01-14">
  <sodipodi:namedview
     pagecolor="#ffffff"
     bordercolor="#666666"
     borderopacity="1"
     objecttolerance="10"
     gridtolerance="10"
     guidetolerance="10"
     inkscape:pageopacity="0"
     inkscape:pageshadow="2"
     inkscape:window-width="1920"
     inkscape:window-height="1050"
     id="namedview78"
     showgrid="false"
     inkscape:zoom="15.262825"
     inkscape:cx="12.036085"
     inkscape:cy="-4.8438109"
     inkscape:window-x="0"
     inkscape:window-y="30"
     inkscape:window-maximized="1"
     inkscape:current-layer="bar-active-left" />
  <defs
     id="defs3">
    <linearGradient
       id="linearGradient889">
      <stop
         offset="0"
         style="stop-color:#8bf6ff;stop-opacity:1"
         id="stop885" />
      <stop
         offset="1"
         style="stop-color:#790bf8;stop-opacity:1"
         id="stop887" />
    </linearGradient>
    <style
       id="current-color-scheme"
       type="text/css">
			.ColorScheme-Highlight { color:#FF00FF; }
			.ColorScheme-Text { color:#0000FF; }
		</style>
    <linearGradient
       id="linearGradient4251"
       x1="1.5"
       xlink:href="#linearGradient889"
       gradientUnits="userSpaceOnUse"
       y1="5"
       gradientTransform="translate(0,2)"
       x2="1.5"
       y2="11" />
    <linearGradient
       id="linearGradient4207">
      <stop
         id="stop4209"
         style="stop-color:#000000;stop-opacity:0"
         offset="0" />
      <stop
         id="stop4211"
         style="stop-color:#000000;stop-opacity:.37647"
         offset="1" />
    </linearGradient>
    <linearGradient
       id="linearGradient4249"
       x1="1.5"
       xlink:href="#linearGradient889"
       gradientUnits="userSpaceOnUse"
       y1="5"
       gradientTransform="translate(0,-2)"
       x2="1.5"
       y2="11" />
    <linearGradient
       id="linearGradient4213"
       x1="10"
       xlink:href="#linearGradient889"
       gradientUnits="userSpaceOnUse"
       x2="10"
       y1="5"
       y2="11" />
    <linearGradient
       inkscape:collect="always"
       xlink:href="#linearGradient889"
       id="linearGradient891"
       gradientUnits="userSpaceOnUse"
       x1="10"
       y1="5"
       x2="10"
       y2="11" />
    <linearGradient
       inkscape:collect="always"
       xlink:href="#linearGradient889"
       id="linearGradient893"
       gradientUnits="userSpaceOnUse"
       gradientTransform="translate(0,2)"
       x1="1.5"
       y1="5"
       x2="1.5"
       y2="11" />
  </defs>
  <metadata
     id="metadata7">
    <rdf:RDF>
      <cc:Work
         rdf:about="">
        <dc:format>image/svg+xml</dc:format>
        <dc:type
           rdf:resource="http://purl.org/dc/dcmitype/StillImage" />
        <dc:title />
        <dc:creator>
          <cc:Agent>
            <dc:title>obnosim</dc:title>
          </cc:Agent>
        </dc:creator>
        <cc:license
           rdf:resource="http://creativecommons.org/licenses/by-sa/3.0/" />
      </cc:Work>
      <cc:License
         rdf:about="http://creativecommons.org/licenses/by-sa/3.0/">
        <cc:permits
           rdf:resource="http://creativecommons.org/ns#Reproduction" />
        <cc:permits
           rdf:resource="http://creativecommons.org/ns#Distribution" />
        <cc:requires
           rdf:resource="http://creativecommons.org/ns#Notice" />
        <cc:requires
           rdf:resource="http://creativecommons.org/ns#Attribution" />
        <cc:permits
           rdf:resource="http://creativecommons.org/ns#DerivativeWorks" />
        <cc:requires
           rdf:resource="http://creativecommons.org/ns#ShareAlike" />
      </cc:License>
    </rdf:RDF>
  </metadata>
  <rect
     id="hint-bar-size"
     style="fill:#278000"
     height="7"
     width="7"
     y="28"
     x="0" />
  <path
     id="bar-inactive-center"
     style="opacity:.125;fill:currentColor"
     class="ColorScheme-Text"
     d="m3 14h30v4h-30z" />
  <path
     id="bar-inactive-right"
     style="opacity:.125;fill:currentColor"
     class="ColorScheme-Text"
     d="m33 14h3v4h-3z" />
  <path
     id="bar-inactive-left"
     style="opacity:.125;fill:currentColor"
     class="ColorScheme-Text"
     d="m4.9526e-7 14h3v4h-3z" />
  <g
     id="bar-inactive-top"
     transform="matrix(6,0,0,1,573,-11)">
    <rect
       style="opacity:.125;fill:currentColor"
       class="ColorScheme-Text"
       height="3"
       width="5"
       y="14"
       x="-95"
       id="rect15" />
  </g>
  <g
     id="bar-inactive-topleft"
     transform="translate(98,-11)">
    <path
       style="opacity:.125;fill:currentColor"
       class="ColorScheme-Text"
       d="m-95 14c-1.662 0-3 1.338-3 3h3v-3z"
       id="path18" />
  </g>
  <g
     id="bar-inactive-topright"
     transform="translate(123,-11)">
    <path
       style="opacity:.125;fill:currentColor"
       class="ColorScheme-Text"
       d="m-90 14c1.662 0 3 1.338 3 3h-3v-3z"
       id="path21" />
  </g>
  <g
     id="bar-inactive-bottom"
     transform="matrix(6,0,0,1,573,-44)">
    <rect
       style="opacity:.125;fill:currentColor"
       class="ColorScheme-Text"
       height="3"
       width="5"
       y="50"
       x="-95"
       id="rect24" />
  </g>
  <g
     id="bar-inactive-bottomleft"
     transform="translate(98,-44)">
    <path
       style="opacity:.125;fill:currentColor"
       class="ColorScheme-Text"
       d="m-95 53c-1.662 0-3-1.338-3-3h3v3z"
       id="path27" />
  </g>
  <g
     id="bar-inactive-bottomright"
     transform="translate(123,-44)">
    <path
       style="opacity:.125;fill:currentColor"
       class="ColorScheme-Text"
       d="m-90 53c1.662 0 3-1.338 3-3h-3v3z"
       id="path30" />
  </g>
  <g
     id="bar-active-top"
     transform="translate(4.9e-7,-2)">
    <rect
       style="fill-rule:evenodd;fill:currentColor"
       class="ColorScheme-Highlight"
       height="3"
       width="15"
       y="5"
       x="3"
       id="rect33" />
    <rect
       style="fill:url(#linearGradient891);fill-rule:evenodd"
       height="3"
       width="15"
       y="5"
       x="3"
       id="rect35" />
  </g>
  <g
     id="bar-active-bottom"
     transform="translate(4.9e-7,-2)">
    <rect
       style="fill-rule:evenodd;fill:currentColor"
       class="ColorScheme-Highlight"
       height="3"
       width="15"
       y="8"
       x="3"
       id="rect38" />
    <rect
       style="fill-rule:evenodd;fill:url(#linearGradient4213)"
       height="3"
       width="15"
       y="8"
       x="3"
       id="rect40" />
  </g>
  <g
     id="bar-active-topleft">
    <path
       d="m3 3a3 3 0 0 0 -3 3h3v-3z"
       style="fill-rule:evenodd;fill:currentColor"
       class="ColorScheme-Highlight"
       id="path43" />
    <path
       style="fill-rule:evenodd;fill:url(#linearGradient4249)"
       d="m3 3a3 3 0 0 0 -3 3h3v-3z"
       id="path45" />
  </g>
  <g
     id="bar-active-bottomleft"
     transform="translate(4.9e-7,-4)">
    <path
       id="circle4233"
       d="m0 10a3 3 0 0 0 3 3v-3h-3z"
       style="fill-rule:evenodd;fill:currentColor"
       class="ColorScheme-Highlight" />
    <path
       style="fill-rule:evenodd;fill:url(#linearGradient893)"
       d="m0 10a3 3 0 0 0 3 3v-3h-3z"
       id="path49" />
  </g>
  <g
     id="bar-active-topright"
     transform="matrix(-1,0,0,1,21,0)">
    <path
       d="m3 3a3 3 0 0 0 -3 3h3v-3z"
       style="fill-rule:evenodd;fill:currentColor"
       class="ColorScheme-Highlight"
       id="path52" />
    <path
       style="fill:url(#linearGradient4249);fill-rule:evenodd"
       d="m3 3a3 3 0 0 0 -3 3h3v-3z"
       id="path54" />
  </g>
  <g
     id="bar-active-bottomright"
     transform="matrix(-1,0,0,1,21,-4)">
    <path
       d="m0 10a3 3 0 0 0 3 3v-3h-3z"
       style="fill-rule:evenodd;fill:currentColor"
       class="ColorScheme-Highlight"
       id="path57" />
    <path
       style="fill:url(#linearGradient4251);fill-rule:evenodd"
       d="m0 10a3 3 0 0 0 3 3v-3h-3z"
       id="path59" />
  </g>
  <g
     id="bar-active-center"
     transform="translate(0,3)">
    <rect
       style="color:#ff00ff;fill:currentColor"
       class="ColorScheme-Highlight"
       height="4"
       width="15"
       y="16"
       x="3"
       id="rect62" />
    <rect
       style="fill:#9a9a9a;fill-opacity:1"
       height="4"
       width="15"
       y="16"
       x="3"
       id="rect64" />
  </g>
  <g
     id="bar-active-left"
     transform="translate(3.8340616,-2.6791496)">
    <rect
       style="fill:#9a9a9a;fill-opacity:1"
       height="4"
       width="3"
       y="21.67915"
       x="-3.8340616"
       id="rect69" />
  </g>
  <g
     id="bar-active-right"
     transform="translate(0,3)">
    <rect
       style="fill:currentColor"
       class="ColorScheme-Highlight"
       height="4"
       width="3"
       y="16"
       x="18"
       id="rect72" />
    <rect
       style="fill-opacity:1;fill:#9a9a9a"
       height="4"
       width="3"
       y="16"
       x="18"
       id="rect74" />
  </g>
</svg>
