<?xml version="1.0" encoding="UTF-8" standalone="no"?>
<svg
   xmlns:dc="http://purl.org/dc/elements/1.1/"
   xmlns:cc="http://creativecommons.org/ns#"
   xmlns:rdf="http://www.w3.org/1999/02/22-rdf-syntax-ns#"
   xmlns:svg="http://www.w3.org/2000/svg"
   xmlns="http://www.w3.org/2000/svg"
   xmlns:xlink="http://www.w3.org/1999/xlink"
   xmlns:sodipodi="http://sodipodi.sourceforge.net/DTD/sodipodi-0.dtd"
   xmlns:inkscape="http://www.inkscape.org/namespaces/inkscape"
   id="svg129"
   width="308"
   height="268"
   version="1"
   sodipodi:docname="background.svg"
   inkscape:version="0.92.4 5da689c313, 2019-01-14">
  <metadata
     id="metadata64">
    <rdf:RDF>
      <cc:Work
         rdf:about="">
        <dc:format>image/svg+xml</dc:format>
        <dc:type
           rdf:resource="http://purl.org/dc/dcmitype/StillImage" />
      </cc:Work>
    </rdf:RDF>
  </metadata>
  <sodipodi:namedview
     pagecolor="#ffffff"
     bordercolor="#666666"
     borderopacity="1"
     objecttolerance="10"
     gridtolerance="10"
     guidetolerance="10"
     inkscape:pageopacity="0"
     inkscape:pageshadow="2"
     inkscape:window-width="1920"
     inkscape:window-height="1050"
     id="namedview62"
     showgrid="false"
     inkscape:zoom="2.4907045"
     inkscape:cx="29.501274"
     inkscape:cy="134"
     inkscape:window-x="0"
     inkscape:window-y="30"
     inkscape:window-maximized="1"
     inkscape:current-layer="svg129" />
  <defs
     id="defs15">
    <linearGradient
       id="linearGradient993">
      <stop
         id="stop989"
         style="stop-color:#000000;stop-opacity:1"
         offset="0" />
      <stop
         id="stop991"
         style="stop-color:#000000;stop-opacity:0"
         offset="1" />
    </linearGradient>
    <linearGradient
       id="linearGradient985">
      <stop
         id="stop981"
         style="stop-color:#000000;stop-opacity:1"
         offset="0" />
      <stop
         id="stop983"
         style="stop-color:#000000;stop-opacity:0"
         offset="1" />
    </linearGradient>
    <radialGradient
       id="radialGradient987"
       cx="129.71"
       cy="144.271"
       r="11"
       fx="129.71"
       fy="144.271"
       gradientTransform="matrix(1.8641918,-1.8641918,2.1818194,2.1818194,-372.5768,-23.969379)"
       gradientUnits="userSpaceOnUse"
       xlink:href="#linearGradient985" />
    <linearGradient
       id="linearGradient995"
       x1="148"
       x2="148"
       y1="143"
       y2="128.5"
       gradientTransform="matrix(1.9999998,0,0,1.9999998,-73.999963,-238.99996)"
       gradientUnits="userSpaceOnUse"
       xlink:href="#linearGradient993" />
    <linearGradient
       id="linearGradient1003"
       x1="148"
       x2="148"
       y1="143"
       y2="128.5"
       gradientTransform="matrix(0,1.9999998,-1.9999998,0,551.99997,-208.99996)"
       gradientUnits="userSpaceOnUse"
       xlink:href="#linearGradient993" />
    <linearGradient
       id="linearGradient1007"
       x1="148"
       x2="148"
       y1="143"
       y2="128.5"
       gradientTransform="matrix(0,1.9999998,1.9999998,0,-103.99996,-208.99996)"
       gradientUnits="userSpaceOnUse"
       xlink:href="#linearGradient993" />
    <linearGradient
       id="linearGradient1022"
       x1="148"
       x2="148"
       y1="143"
       y2="128.5"
       gradientTransform="matrix(1.9999998,0,0,-1.9999998,-73.999963,416.99997)"
       gradientUnits="userSpaceOnUse"
       xlink:href="#linearGradient993" />
    <radialGradient
       id="radialGradient876"
       cx="129.71"
       cy="144.271"
       r="11"
       fx="129.71"
       fy="144.271"
       gradientTransform="matrix(-1.8641918,-1.8641918,-2.1818194,2.1818194,820.5768,-23.969379)"
       gradientUnits="userSpaceOnUse"
       xlink:href="#linearGradient985" />
    <radialGradient
       id="radialGradient882"
       cx="129.71"
       cy="144.271"
       r="11"
       fx="129.71"
       fy="144.271"
       gradientTransform="matrix(1.8641918,1.8641918,2.1818194,-2.1818194,-372.5768,201.96938)"
       gradientUnits="userSpaceOnUse"
       xlink:href="#linearGradient985" />
    <radialGradient
       id="radialGradient884"
       cx="129.71"
       cy="144.271"
       r="11"
       fx="129.71"
       fy="144.271"
       gradientTransform="matrix(-1.8641918,1.8641918,-2.1818194,-2.1818194,820.5768,201.96938)"
       gradientUnits="userSpaceOnUse"
       xlink:href="#linearGradient985" />
    <filter
       inkscape:collect="always"
       style="color-interpolation-filters:sRGB"
       id="filter1085"
       x="-0.53869948"
       width="2.077399"
       y="-0.54130682"
       height="2.0826136">
      <feGaussianBlur
         inkscape:collect="always"
         stdDeviation="5.3426329"
         id="feGaussianBlur1087" />
    </filter>
    <filter
       inkscape:collect="always"
       style="color-interpolation-filters:sRGB"
       id="filter1537"
       x="-0.038939395"
       width="1.0778788"
       y="-0.13067796"
       height="1.2613559">
      <feGaussianBlur
         inkscape:collect="always"
         stdDeviation="1.2897958"
         id="feGaussianBlur1539" />
    </filter>
    <filter
       inkscape:collect="always"
       style="color-interpolation-filters:sRGB"
       id="filter1557"
       x="-0.059999998"
       width="1.12"
       y="-0.060000002"
       height="1.12">
      <feGaussianBlur
         inkscape:collect="always"
         stdDeviation="1.9873896"
         id="feGaussianBlur1559" />
    </filter>
    <filter
       inkscape:collect="always"
       style="color-interpolation-filters:sRGB"
       id="filter1577"
       x="-0.060144747"
       width="1.1202895"
       y="-0.059855948"
       height="1.1197119">
      <feGaussianBlur
         inkscape:collect="always"
         stdDeviation="0.5936306"
         id="feGaussianBlur1579" />
    </filter>
    <filter
       inkscape:collect="always"
       style="color-interpolation-filters:sRGB"
       id="filter1597"
       x="-0.13067796"
       width="1.2613559"
       y="-0.038939394"
       height="1.0778788">
      <feGaussianBlur
         inkscape:collect="always"
         stdDeviation="1.2897957"
         id="feGaussianBlur1599" />
    </filter>
    <filter
       inkscape:collect="always"
       style="color-interpolation-filters:sRGB"
       id="filter1617"
       x="-0.05999999"
       width="1.12"
       y="-0.06000001"
       height="1.12">
      <feGaussianBlur
         inkscape:collect="always"
         stdDeviation="0.59220185"
         id="feGaussianBlur1619" />
    </filter>
    <filter
       inkscape:collect="always"
       style="color-interpolation-filters:sRGB"
       id="filter1821"
       x="-0.059986174"
       width="1.1199723"
       y="-0.060013833"
       height="1.1200277">
      <feGaussianBlur
         inkscape:collect="always"
         stdDeviation="0.59492187"
         id="feGaussianBlur1823" />
    </filter>
    <filter
       inkscape:collect="always"
       style="color-interpolation-filters:sRGB"
       id="filter2009"
       x="-0.13067795"
       width="1.2613559"
       y="-0.038939395"
       height="1.0778788">
      <feGaussianBlur
         inkscape:collect="always"
         stdDeviation="1.2897958"
         id="feGaussianBlur2011" />
    </filter>
  </defs>
  <rect
     id="hint-tile-center"
     style="opacity:1;fill:#8bf6ff;fill-opacity:1"
     width="7"
     height="7"
     x="0"
     y="-7" />
  <path
     id="topright"
     style="opacity:0.8;fill:#000000;fill-opacity:0.94117647"
     d="m 104,5.000917 v 23.999998 h 24 C 128,9 124,5.000917 104,5.000917 Z" />
  <rect
     id="top"
     style="opacity:0.8;fill:#000000;fill-opacity:0.84705883"
     width="80"
     height="24"
     x="24"
     y="5" />
  <rect
     id="center"
     style="opacity:0.8;fill:#000000;fill-opacity:0.94117647"
     width="80"
     height="80"
     x="24"
     y="29" />
  <path
     id="topleft"
     style="opacity:0.9;fill:#000000;fill-opacity:0.94117647"
     d="M 24,5.000002 V 29 H 0 C 0,9 4,5.000002 24,5.000002 Z" />
  <path
     id="bottomright"
     style="opacity:0.8;fill:#000000;fill-opacity:0.94117647"
     d="m 104,132.99908 v -24 h 24 c 0,20.00092 -4,24 -24,24 z" />
  <rect
     id="bottom"
     style="opacity:0.8;fill:#000000;fill-opacity:0.94117647"
     width="80"
     height="24"
     x="24"
     y="-133"
     transform="scale(1,-1)" />
  <path
     id="bottomleft"
     style="opacity:0.8;fill:#000000;fill-opacity:0.94269341"
     d="M 24.000017,133 V 109 H 1.7081479e-5 C 1.7081479e-5,129 4,133 24.000017,133 Z" />
  <rect
     id="left"
     style="opacity:0.8;fill:#000000;fill-opacity:0.94117647"
     width="80"
     height="24"
     x="29"
     y="-24"
     transform="rotate(90)" />
  <rect
     id="right"
     style="opacity:0.8;fill:#000000;fill-opacity:0.94117647"
     width="80"
     height="24"
     x="29"
     y="-128"
     transform="rotate(90)" />
  <rect
     id="hint-top-margin"
     style="opacity:1;fill:#ff0000"
     width="8"
     height="12"
     x="60"
     y="29" />
  <rect
     id="hint-left-margin"
     style="opacity:1;fill:#ff0000"
     width="12"
     height="8"
     x="24"
     y="63" />
  <rect
     id="hint-right-margin"
     style="opacity:1;fill:#ff0000"
     width="12"
     height="8"
     x="92"
     y="63" />
  <rect
     id="hint-bottom-margin"
     style="opacity:1;fill:#ff0000"
     width="8"
     height="12"
     x="60"
     y="97" />
  <path
     id="mask-topright"
     style="opacity:1"
     d="m 104,140.00092 v 23.99999 h 24 C 128,144 124,140.00092 104,140.00092 Z" />
  <rect
     id="mask-top"
     style="opacity:1"
     width="80"
     height="24"
     x="24"
     y="140" />
  <rect
     id="mask-center"
     style="opacity:1"
     width="80"
     height="80"
     x="24"
     y="164" />
  <path
     id="mask-topleft"
     style="opacity:1"
     d="m 24,140 v 23.99999 H 0 C 0,144 4,140 24,140 Z" />
  <path
     id="mask-bottomright"
     style="opacity:1"
     d="m 104,267.99908 v -24 h 24 c 0,20.00092 -4,24 -24,24 z" />
  <rect
     id="mask-bottom"
     style="opacity:1"
     width="80"
     height="24"
     x="24"
     y="-268"
     transform="scale(1,-1)" />
  <path
     id="mask-bottomleft"
     style="opacity:1"
     d="M 24,268 V 244 H 0 c 0,20 4,24 24,24 z" />
  <rect
     id="mask-left"
     style="opacity:1"
     width="80"
     height="24"
     x="164"
     y="-24"
     transform="rotate(90)" />
  <rect
     id="mask-right"
     style="opacity:1"
     width="80"
     height="24"
     x="164"
     y="-128"
     transform="rotate(90)" />
  <path
     id="shadow-topleft"
     style="opacity:1;fill:url(#radialGradient987)"
     d="M 153,18.000002 V 49 h 7 c 0,-20 4,-24 24,-24 v -6.999998 z" />
  <g
     id="shadow-top">
    <path
       id="rect1029"
       style="opacity:0.001"
       d="m 184,18 h 80 v 31 h -80 z" />
    <path
       id="rect953"
       style="opacity:1;fill:url(#linearGradient995)"
       d="m 184,17.999998 v 6.999998 h 80 v -6.999998 z" />
  </g>
  <g
     id="shadow-right">
    <path
       id="rect1037"
       style="opacity:0.001"
       transform="rotate(90)"
       d="m 49,-295 h 80 v 31 H 49 Z" />
    <path
       id="path999"
       style="opacity:1;fill:url(#linearGradient1003)"
       d="M 288,48.999996 V 129 h 7 V 48.999996 Z" />
  </g>
  <g
     id="shadow-left">
    <path
       id="rect1039"
       style="opacity:0.001"
       transform="rotate(90)"
       d="m 49,-184 h 80 v 31 H 49 Z" />
    <path
       id="path1005"
       style="opacity:1;fill:url(#linearGradient1007)"
       d="M 153,48.999996 V 129 h 7 V 48.999996 Z" />
  </g>
  <g
     id="shadow-bottom">
    <path
       id="rect1031"
       style="opacity:0.001"
       d="m 184,129 h 80 v 31 h -80 z" />
    <path
       id="path1011"
       style="opacity:1;fill:url(#linearGradient1022)"
       d="m 184,153 v 7 h 80 v -7 z" />
  </g>
  <rect
     id="shadow-hint-right-margin"
     style="opacity:1;fill:#ff0000"
     width="7"
     height="7"
     x="288"
     y="80" />
  <rect
     id="shadow-hint-bottom-margin"
     style="opacity:1;fill:#ff0000"
     width="7"
     height="7"
     x="220"
     y="153" />
  <rect
     id="shadow-hint-left-margin"
     style="opacity:1;fill:#ff0000"
     width="7"
     height="7"
     x="153"
     y="80" />
  <rect
     id="shadow-hint-top-margin"
     style="opacity:1;fill:#ff0000"
     width="7"
     height="7"
     x="220"
     y="18" />
  <rect
     id="shadow-center"
     style="opacity:0.001"
     width="80"
     height="80"
     x="184"
     y="49" />
  <path
     id="shadow-topright"
     style="opacity:1;fill:url(#radialGradient876)"
     d="M 295,18.000002 V 49 h -7 c 0,-20 -4,-24 -24,-24 v -6.999998 z" />
  <path
     id="shadow-bottomleft"
     style="opacity:1;fill:url(#radialGradient882)"
     d="m 153,160 v -31 h 7 c 0,20 4,24 24,24 v 7 z" />
  <path
     id="shadow-bottomright"
     style="opacity:1;fill:url(#radialGradient884)"
     d="m 295,160 v -31 h -7 c 0,20 -4,24 -24,24 v 7 z" />
  <path
     style="fill:#000106;fill-opacity:1;stroke-width:0.40149283"
     d="m 24.281866,203.94005 v -39.74779 h 39.747791 39.747793 v 39.74779 39.74779 H 64.029657 24.281866 Z"
     id="path874"
     inkscape:connector-curvature="0" />
  <path
     style="fill:#000106;fill-opacity:1;stroke-width:0.40149283;opacity:0.95;filter:url(#filter1557)"
     d="m 24.281866,203.94005 v -39.74779 h 39.747791 39.747793 v 39.74779 39.74779 H 64.029657 24.281866 Z"
     id="path876"
     inkscape:connector-curvature="0" />
  <path
     style="fill:#000106;fill-opacity:1;stroke-width:0.40149283"
     d="m 24.281866,151.94673 v -11.84404 h 39.747791 39.747793 v 11.84404 11.84404 H 64.029657 24.281866 Z"
     id="path878"
     inkscape:connector-curvature="0" />
  <path
     style="fill:#000106;fill-opacity:1;stroke-width:0.40149283"
     d="m 0.3226786,159.07095 c 0.760975,-14.15252 4.5488529,-17.89068 19.0409004,-18.79097 l 4.516795,-0.2806 v 11.8957 11.89569 H 11.974635 0.06889635 Z"
     id="path880"
     inkscape:connector-curvature="0" />
  <path
     style="fill:#000106;fill-opacity:1;stroke-width:0.40149283"
     d="M 0.19229637,203.94005 V 164.19226 H 12.036335 23.880374 v 39.74779 39.74779 H 12.036335 0.19229637 Z"
     id="path882"
     inkscape:connector-curvature="0" />
  <path
     style="fill:#000106;fill-opacity:1;stroke-width:0.40149283"
     d="M 14.80184,267.35541 C 7.9036263,266.45534 4.1507519,264.09829 2.1373849,259.40129 1.1736634,257.15302 0.1978538,250.92406 0.19466321,247.00016 l -0.002367,-2.91082 H 12.036335 23.880374 v 11.84403 11.84404 l -3.312316,-0.0509 c -1.821774,-0.028 -4.416572,-0.19499 -5.766218,-0.37109 z"
     id="path884"
     inkscape:connector-curvature="0" />
  <path
     style="fill:#000106;fill-opacity:1;stroke-width:0.40149283;opacity:0.95"
     d="m 24.281866,255.93337 v -11.84403 h 39.747791 39.747793 v 11.84403 11.84404 H 64.029657 24.281866 Z"
     id="path886"
     inkscape:connector-curvature="0" />
  <path
     style="fill:#000106;fill-opacity:1;stroke-width:0.40149283;opacity:0.95;filter:url(#filter1085)"
     d="m 104.17894,255.93337 v -11.84403 h 11.90118 11.90118 l -0.27975,4.51679 c -0.64338,10.38779 -2.79669,14.9055 -8.21065,17.22619 -2.24827,0.96373 -8.47724,1.93953 -12.40114,1.94273 l -2.91082,0.002 z"
     id="path888"
     inkscape:connector-curvature="0" />
  <path
     style="fill:#000106;fill-opacity:1;stroke-width:0.40149283;opacity:0.95;filter:url(#filter2009)"
     d="m 104.17894,203.94005 v -39.74779 h 11.84404 11.84404 v 39.74779 39.74779 h -11.84404 -11.84404 z"
     id="path890"
     inkscape:connector-curvature="0" />
  <path
     style="fill:#000106;fill-opacity:1;stroke-width:0.40149283;opacity:0.95;filter:url(#filter1821)"
     d="m 104.17894,151.89508 v -11.8957 l 4.51679,0.2806 c 14.5534,0.9041 18.10525,4.45374 19.00582,18.99399 l 0.27975,4.5168 h -11.90118 -11.90118 z"
     id="path892"
     inkscape:connector-curvature="0" />
  <path
     style="fill:#000106;fill-opacity:1;stroke-width:0.40149283;opacity:0.95;filter:url(#filter1537)"
     d="m 24.281866,151.94673 v -11.84404 h 39.747791 39.747793 v 11.84404 11.84404 H 64.029657 24.281866 Z"
     id="path894"
     inkscape:connector-curvature="0" />
  <path
     style="fill:#000106;fill-opacity:1;stroke-width:0.40149283;opacity:0.95;filter:url(#filter1577)"
     d="m 0.19229637,161.00937 c 0,-1.52977 0.18910538,-4.19468 0.4202342,-5.92202 C 2.0588656,144.27816 6.0927828,141.09011 19.363579,140.26816 l 4.516795,-0.27976 v 11.90119 11.90118 H 12.036335 0.19229637 Z"
     id="path896"
     inkscape:connector-curvature="0" />
  <path
     style="fill:#000106;fill-opacity:1;stroke-width:0.40149283;opacity:0.95;filter:url(#filter1597)"
     d="M 0.19229637,203.94005 V 164.19226 H 12.036335 23.880374 v 39.74779 39.74779 H 12.036335 0.19229637 Z"
     id="path898"
     inkscape:connector-curvature="0" />
  <path
     style="fill:#000106;fill-opacity:1;stroke-width:0.40149283;opacity:0.95;filter:url(#filter1617)"
     d="m 15.449024,267.48848 c -2.589581,-0.29563 -6.4269844,-1.30222 -7.938044,-2.08221 -2.0678106,-1.06739 -4.3098205,-3.49216 -5.2966136,-5.72839 -0.9957533,-2.25653 -2.01643905,-8.6634 -2.01970319,-12.67772 l -0.002367,-2.91082 H 12.036335 23.880374 v 11.84403 11.84404 l -3.513063,-0.0642 c -1.932184,-0.0353 -4.145413,-0.13645 -4.918287,-0.22468 z"
     id="path900"
     inkscape:connector-curvature="0" />
  <path
     style="opacity:0.95;fill:#8bf6ff;fill-opacity:1;stroke-width:0.40149283"
     d="M 60.295773,35.112316 V 29.29067 h 3.814182 3.814182 v 5.821646 5.821646 h -3.814182 -3.814182 z"
     id="path887"
     inkscape:connector-curvature="0" />
  <path
     style="opacity:0.95;fill:#8bf6ff;fill-opacity:1;stroke-width:0.40149283"
     d="m 24.161418,66.830249 v -3.814181 h 5.821647 5.821646 v 3.814181 3.814182 h -5.821646 -5.821647 z"
     id="path889"
     inkscape:connector-curvature="0" />
  <path
     style="opacity:0.95;fill:#8bf6ff;fill-opacity:1;stroke-width:0.40149283"
     d="m 60.295773,102.9646 v -5.821642 h 3.814182 3.814182 v 5.821642 5.82165 h -3.814182 -3.814182 z"
     id="path893"
     inkscape:connector-curvature="0" />
  <path
     style="opacity:0.95;fill:#8bf6ff;fill-opacity:1;stroke-width:0.40149283"
     d="m 92.013707,66.830249 v -3.814181 h 5.821646 5.821647 v 3.814181 3.814182 h -5.821647 -5.821646 z"
     id="path895"
     inkscape:connector-curvature="0" />
  <path
     style="opacity:0.95;fill:#8bf6ff;fill-opacity:1;stroke-width:0.40149283"
     d="m 153.04062,83.492202 v -3.211943 h 3.41269 3.41269 v 3.211943 3.211943 h -3.41269 -3.41269 z"
     id="path897"
     inkscape:connector-curvature="0" />
  <path
     style="opacity:0.95;fill:#8bf6ff;fill-opacity:1;stroke-width:0.40149283"
     d="m 220.08992,21.46156 v -3.412689 h 3.41269 3.41269 v 3.412689 3.412689 h -3.41269 -3.41269 z"
     id="path899"
     inkscape:connector-curvature="0" />
  <path
     style="opacity:0.95;fill:#8bf6ff;fill-opacity:1;stroke-width:0.40149283"
     d="m 220.08992,156.5639 v -3.21195 h 3.41269 3.41269 v 3.21195 3.21194 h -3.41269 -3.41269 z"
     id="path901"
     inkscape:connector-curvature="0" />
  <path
     style="opacity:0.95;fill:#8bf6ff;fill-opacity:1;stroke-width:0.40149283"
     d="m 288.3437,83.492202 v -3.211943 h 3.21194 3.21195 v 3.211943 3.211943 h -3.21195 -3.21194 z"
     id="path903"
     inkscape:connector-curvature="0" />
  <path
     style="opacity:0.9;fill:#000000;fill-opacity:0.84705882;stroke-width:0.40149283"
     d="M 23.960673,17.045138 V 5.2010999 H 63.909209 103.85775 V 17.045138 28.889177 H 63.909209 23.960673 Z"
     id="path907"
     inkscape:connector-curvature="0" />
  <path
     style="opacity:0.9;fill:#000000;fill-opacity:0.84705882;stroke-width:0.40149283"
     d="M 0.39331255,23.770143 C 1.0472617,9.9349007 4.9380105,6.0896065 19.042385,5.3389426 L 23.960673,5.0771813 V 16.983179 28.889177 H 12.056012 0.15135165 Z"
     id="path909"
     inkscape:connector-curvature="0" />
  <path
     style="opacity:0.9;fill:#000000;fill-opacity:0.84705882;stroke-width:0.40149283"
     d="M 104.25924,17.045138 V 5.2010999 h 2.7814 c 3.57143,0 8.51041,0.6632275 11.0701,1.4865401 6.59654,2.1217457 8.90461,6.404851 9.6381,17.885489 l 0.27575,4.316048 h -11.88268 -11.88267 z"
     id="path911"
     inkscape:connector-curvature="0" />
  <path
     style="opacity:0.9;fill:#000000;fill-opacity:0.84705882;stroke-width:0.40149283"
     d="M 104.25924,69.03846 V 29.29067 h 11.84404 11.84404 v 39.74779 39.74779 h -11.84404 -11.84404 z"
     id="path913"
     inkscape:connector-curvature="0" />
  <path
     style="opacity:0.9;fill:#000000;fill-opacity:0.84705882;stroke-width:0.40149283"
     d="M 24.362165,89.916087 V 71.045924 h 5.821646 5.821647 V 67.030996 63.016068 H 30.183811 24.362165 V 46.153369 29.29067 h 17.654952 17.654951 l 0.111107,5.922019 0.111106,5.922019 4.115301,0.114419 4.115302,0.114419 V 35.327108 29.29067 h 17.866431 17.866435 v 16.862699 16.862699 h -6.022397 -6.022392 v 4.014928 4.014928 h 6.022392 6.022397 V 89.916087 108.78625 H 85.991315 68.124884 v -6.03644 -6.036437 l -4.115302,0.114421 -4.115301,0.114418 -0.111106,5.922018 -0.111107,5.92202 H 42.017117 24.362165 Z"
     id="path915"
     inkscape:connector-curvature="0" />
  <path
     style="opacity:0.9;fill:#000000;fill-opacity:0.84705882;stroke-width:0.40149283"
     d="M 0.27259558,69.03846 V 29.29067 H 12.116634 23.960673 v 39.74779 39.74779 H 12.116634 0.27259558 Z"
     id="path917"
     inkscape:connector-curvature="0" />
  <path
     style="opacity:0.9;fill:#000000;fill-opacity:0.84705882;stroke-width:0.40149283"
     d="M 15.737016,132.43165 C 10.872557,131.91962 7.5505738,130.76574 5.3407331,128.82057 2.0428268,125.91763 0.82324966,122.28312 0.40320569,114.10603 L 0.15056115,109.18774 H 12.055617 23.960673 v 11.84404 11.84404 l -2.509331,-0.0534 c -1.380131,-0.0294 -3.951578,-0.20522 -5.714326,-0.39077 z"
     id="path919"
     inkscape:connector-curvature="0" />
  <path
     style="opacity:0.9;fill:#000000;fill-opacity:0.84705882;stroke-width:0.40149283"
     d="m 24.362165,121.03178 v -11.84404 h 39.747791 39.747794 v 11.84404 11.84404 H 64.109956 24.362165 Z"
     id="path921"
     inkscape:connector-curvature="0" />
  <path
     style="opacity:0.85;fill:#000000;fill-opacity:0.84705882;stroke-width:0.40149283"
     d="m 104.25924,121.08892 v -11.90118 h 11.88735 11.88734 l -0.26991,4.1153 c -0.9861,15.03509 -4.37854,18.50245 -18.98799,19.40731 l -4.51679,0.27976 z"
     id="path923"
     inkscape:connector-curvature="0" />
  <path
     style="opacity:0.85;fill:#000000;fill-opacity:0.84705882;stroke-width:0.40149283"
     d="m 104.25924,121.07357 v -11.88583 h 11.87163 11.87163 l -0.25697,3.31232 c -1.24624,16.06419 -4.10521,18.92647 -20.17398,20.19736 l -3.31231,0.26198 z"
     id="path925"
     inkscape:connector-curvature="0" />
  <path
     style="opacity:0.85;fill:#000000;fill-opacity:0.84705882;stroke-width:0.40149283"
     d="m 24.362165,121.03178 v -11.84404 h 39.747791 39.747794 v 11.84404 11.84404 H 64.109956 24.362165 Z"
     id="path927"
     inkscape:connector-curvature="0" />
  <path
     style="opacity:0.85;fill:#000000;fill-opacity:0.84705882;stroke-width:0.40149283"
     d="M 17.39678,132.44888 C 10.935043,131.876 7.7433774,130.76432 4.9561162,128.11571 4.1093261,127.31104 3.0852446,126.01133 2.6803796,125.22746 1.6697688,123.27079 0.80030884,118.65701 0.47107336,113.50379 L 0.19532411,109.18774 H 12.077998 23.960673 v 11.84404 11.84404 l -1.505599,-0.056 c -0.828078,-0.0308 -3.104311,-0.19772 -5.058294,-0.37096 z"
     id="path929"
     inkscape:connector-curvature="0" />
  <path
     style="opacity:0.85;fill:#000000;fill-opacity:0.84705882;stroke-width:0.40149283"
     d="M 0.27259558,69.03846 V 29.29067 H 12.116634 23.960673 v 39.74779 39.74779 H 12.116634 0.27259558 Z"
     id="path931"
     inkscape:connector-curvature="0" />
  <path
     style="opacity:0.85;fill:#000000;fill-opacity:0.84705882;stroke-width:0.40149283"
     d="M 24.362165,89.916087 V 71.045924 h 5.821646 5.821647 V 67.030996 63.016068 H 30.183811 24.362165 V 46.153369 29.29067 H 42.02785 59.693535 v 6.022392 6.022393 h 4.215674 4.215675 V 35.313062 29.29067 h 17.866431 17.866435 v 16.862699 16.862699 h -6.022397 -6.022392 v 4.014928 4.014928 h 6.022392 6.022397 V 89.916087 108.78625 H 85.991315 68.124884 v -6.02239 -6.022395 h -4.215675 -4.215674 v 6.022395 6.02239 H 42.02785 24.362165 Z"
     id="path933"
     inkscape:connector-curvature="0" />
  <path
     style="opacity:0.85;fill:#000000;fill-opacity:0.84705882;stroke-width:0.40149283"
     d="M 104.25924,69.03846 V 29.29067 h 11.84404 11.84404 v 39.74779 39.74779 h -11.84404 -11.84404 z"
     id="path935"
     inkscape:connector-curvature="0" />
  <path
     style="opacity:0.85;fill:#000000;fill-opacity:0.84705882;stroke-width:0.40149283"
     d="M 104.25924,16.987743 V 5.0863096 l 4.10985,0.2830614 c 4.78283,0.3294119 9.10213,1.1056346 11.27435,2.0261167 2.24738,0.9523318 4.88111,3.5677853 5.84202,5.8014793 0.9366,2.177197 1.87233,7.350824 2.23909,12.379894 l 0.24155,3.312316 h -11.85343 -11.85343 z"
     id="path937"
     inkscape:connector-curvature="0" />
  <path
     style="opacity:0.85;fill:#000000;fill-opacity:0.84705882;stroke-width:0.40149283"
     d="M 23.960673,17.045138 V 5.2010999 H 63.909209 103.85775 V 17.045138 28.889177 H 63.909209 23.960673 Z"
     id="path939"
     inkscape:connector-curvature="0" />
  <path
     style="opacity:0.85;fill:#000000;fill-opacity:0.84705882;stroke-width:0.40149283"
     d="m 0.27259558,27.124999 c 0,-3.426863 0.84424472,-9.928113 1.61207532,-12.414059 C 3.3144007,10.082013 6.5777329,7.427027 12.459895,6.1071347 14.97359,5.5430892 20.806132,5.4449729 59.593161,5.314248 L 103.85775,5.1650619 V 17.027119 28.889177 H 52.065171 0.27259558 Z"
     id="path941"
     inkscape:connector-curvature="0" />
</svg>
